<svg xmlns="http://www.w3.org/2000/svg" version="1.1" xmlns:xlink="http://www.w3.org/1999/xlink" xmlns:svgjs="http://svgjs.dev/svgjs" width="1500" height="1500" viewBox="0 0 1500 1500"><rect width="1500" height="1500" fill="#ffffff"></rect><g transform="matrix(0.6666666666666666,0,0,0.6666666666666666,250.53947368421063,100.52631578947364)"><svg viewBox="0 0 190 247" data-background-color="#ffffff" preserveAspectRatio="xMidYMid meet" height="1950" width="1500" xmlns="http://www.w3.org/2000/svg" xmlns:xlink="http://www.w3.org/1999/xlink"><g id="tight-bounds" transform="matrix(1,0,0,1,-0.10250000000002046,-0.09999999999999432)"><svg viewBox="0 0 190.2047437126663 247.2" height="247.2" width="190.2047437126663"><g><svg></svg></g><g><svg viewBox="0 0 190.2047437126663 247.2" height="247.2" width="190.2047437126663"><g transform="matrix(1,0,0,1,0,47.215199999999996)"><svg viewBox="0 0 190.2047437126663 152.7696" height="152.7696" width="190.2047437126663"><g><svg viewBox="0 0 190.2047437126663 152.7696" height="152.7696" width="190.2047437126663"><g><svg viewBox="0 0 244.43135999999998 196.3236056355481" height="152.7696" width="190.2047437126663"><g><svg viewBox="0 0 244.43135999999998 196.3236056355481" height="196.3236056355481" width="244.43135999999998"><g id="textblocktransform"><svg viewBox="0 0 244.43135999999998 196.3236056355481" height="196.3236056355481" width="244.43135999999998" id="textblock"><g><svg viewBox="0 0 244.43135999999998 119.37733770491802" height="119.37733770491802" width="244.43135999999998"><g transform="matrix(1,0,0,1,0,0)"><svg width="244.43135999999998" viewBox="2.5 -35.15 73.2 35.75" height="119.37733770491802" data-palette-color="#111111"><path d="M17.75 0.6L17.75 0.6Q14 0.6 11.03-0.8 8.05-2.2 6.2-4.55L6.2-4.55Q2.5-9.35 2.5-16.05L2.5-16.05Q2.5-24.45 7.35-29.8 12.2-35.15 20.2-35.15L20.2-35.15Q23.95-35.15 26.93-33.75 29.9-32.35 31.7-30L31.7-30Q35.45-25.2 35.45-18.5L35.45-18.5Q35.45-10.1 30.6-4.75 25.75 0.6 17.75 0.6ZM20-31.4L20-31.4Q13.8-31.4 10.45-27.35 7.1-23.3 7.1-16L7.1-16Q7.1-10.65 9.98-6.85 12.85-3.05 18-3.05L18-3.05Q24.2-3.05 27.53-7.1 30.85-11.15 30.85-18.45L30.85-18.45Q30.85-23.8 28-27.6 25.15-31.4 20-31.4ZM41.55 0L41.55-22.8 44.25-22.8 45.5-18.8 45.7-18.8Q48.45-22.35 53.25-23.1L53.25-23.1 53.7-19.15Q51.35-19 49.15-17.95 46.95-16.9 45.8-15.15L45.8-15.15 45.8 0 41.55 0ZM66.45-2.9L66.45-2.9Q70.05-2.9 73.65-5.05L73.65-5.05 75.1-2.05Q70.9 0.6 66.12 0.6 61.35 0.6 58.55-2.43 55.75-5.45 55.75-11.15 55.75-16.85 58.65-20.13 61.55-23.4 66.35-23.4L66.35-23.4Q70.7-23.4 73.2-20.7L73.2-20.7Q74.25-19.6 74.97-17.5 75.7-15.4 75.7-12.55L75.7-12.55 74.15-10.8 60-10.8Q60.15-2.9 66.45-2.9ZM71.5-13.95Q71.5-16.75 70.05-18.45 68.6-20.15 66.22-20.15 63.85-20.15 62.2-18.48 60.55-16.8 60.2-13.95L60.2-13.95 71.5-13.95Z" opacity="1" transform="matrix(1,0,0,1,0,0)" fill="#000000" class="wordmark-text-0" data-fill-palette-color="primary" id="text-0"></path></svg></g></svg></g><g transform="matrix(1,0,0,1,0,147.55946208094426)"><svg viewBox="0 0 244.43135999999998 48.76414355460385" height="48.76414355460385" width="244.43135999999998"><g transform="matrix(1,0,0,1,0,0)"><svg width="244.43135999999998" viewBox="2.32 -31.62 205.20000000000002 40.95" height="48.76414355460385" data-palette-color="#111111"><path d="M2.32 0L2.32 0 2.32-0.76Q4.64-0.81 5.74-1.1 6.84-1.39 7.15-2.14 7.47-2.88 7.47-4.22L7.47-4.22 7.47-24.34Q7.47-25.66 7.15-26.39 6.84-27.12 5.74-27.44 4.64-27.76 2.32-27.81L2.32-27.81 2.32-28.54Q3.59-28.54 5.35-28.52 7.1-28.49 9.5-28.49L9.5-28.49Q11.67-28.49 13.67-28.52 15.67-28.54 16.92-28.54L16.92-28.54Q26.46-28.54 31.13-25.04 35.79-21.53 35.79-14.82L35.79-14.82Q35.79-7.47 30.76-3.74 25.73 0 16.7 0L16.7 0Q15.43 0 13.67-0.06 11.91-0.12 9.59-0.12L9.59-0.12Q7.13-0.12 5.05-0.07 2.98-0.02 2.32 0ZM15.87-0.73L15.87-0.73Q24.27-0.73 28.02-4.05 31.76-7.37 31.76-14.38L31.76-14.38Q31.76-21.44 27.97-24.62 24.17-27.81 15.92-27.81L15.92-27.81 11.25-27.81 11.25-4.13Q11.25-2.64 11.58-1.92 11.91-1.2 12.9-0.96 13.89-0.73 15.87-0.73ZM50.36 0.56L50.36 0.56Q47.56 0.56 45.46-0.78 43.36-2.12 42.19-4.52 41.01-6.91 41.01-10.01L41.01-10.01Q41.01-15.11 43.59-18.23 46.16-21.34 50.68-21.34L50.68-21.34Q53.17-21.34 55.01-20.02 56.86-18.7 57.86-16.6 58.86-14.5 58.81-12.18L58.81-12.18 44.94-12.18Q44.92-11.91 44.92-11.43L44.92-11.43Q44.92-5.98 46.66-3.37 48.41-0.76 51.61-0.76L51.61-0.76Q53.66-0.76 55.39-1.73 57.13-2.71 58.13-4.93L58.13-4.93 58.79-4.13Q57.83-1.78 55.6-0.61 53.37 0.56 50.36 0.56ZM50.44-20.56L50.44-20.56Q49.12-20.56 47.96-19.45 46.8-18.33 46.01-16.59 45.21-14.84 44.99-12.99L44.99-12.99 54.95-12.99Q55.03-17.19 53.92-18.87 52.81-20.56 50.44-20.56ZM76.14-12.4L72.07 0.51 71.36 0.51 64.47-17.6Q63.64-19.82 61.32-19.97L61.32-19.97 61.32-20.75Q62.18-20.73 63.11-20.7 64.03-20.68 65.52-20.68L65.52-20.68Q67.5-20.68 68.55-20.68 69.6-20.68 70.75-20.75L70.75-20.75 70.75-19.97Q69.16-19.97 68.62-19.23 68.09-18.48 68.87-16.38L68.87-16.38 73.07-5.22 76.19-15.33Q76.66-16.8 76.9-17.8 77.14-18.8 76.61-19.35 76.07-19.9 74.19-19.97L74.19-19.97 74.19-20.75Q75.7-20.68 76.36-20.67 77.02-20.65 78-20.65L78-20.65Q79.05-20.65 79.9-20.65 80.76-20.65 81.39-20.75L81.39-20.75 81.39-19.97Q79.61-19.56 78.41-17.69 77.22-15.82 76.14-12.4L76.14-12.4ZM93.6 0.56L93.6 0.56Q90.79 0.56 88.69-0.78 86.59-2.12 85.42-4.52 84.25-6.91 84.25-10.01L84.25-10.01Q84.25-15.11 86.82-18.23 89.4-21.34 93.91-21.34L93.91-21.34Q96.4-21.34 98.25-20.02 100.09-18.7 101.09-16.6 102.09-14.5 102.04-12.18L102.04-12.18 88.18-12.18Q88.15-11.91 88.15-11.43L88.15-11.43Q88.15-5.98 89.9-3.37 91.64-0.76 94.84-0.76L94.84-0.76Q96.89-0.76 98.63-1.73 100.36-2.71 101.36-4.93L101.36-4.93 102.02-4.13Q101.07-1.78 98.83-0.61 96.6 0.56 93.6 0.56ZM93.67-20.56L93.67-20.56Q92.35-20.56 91.19-19.45 90.03-18.33 89.24-16.59 88.44-14.84 88.22-12.99L88.22-12.99 98.19-12.99Q98.26-17.19 97.15-18.87 96.04-20.56 93.67-20.56ZM105.19 0L105.19 0 105.19-0.76Q107.09-0.81 107.85-1.39 108.61-1.98 108.61-3.66L108.61-3.66 108.61-26.88Q108.61-28.39 107.84-29.31 107.07-30.22 105.19-30.42L105.19-30.42 105.19-31.18Q105.97-31.1 106.66-31.08 107.34-31.05 108.02-31.05L108.02-31.05Q109.22-31.05 110.28-31.19 111.34-31.32 112.25-31.62L112.25-31.62 112.25-3.66Q112.25-1.98 113-1.39 113.76-0.81 115.66-0.76L115.66-0.76 115.66 0Q114.91-0.05 113.42-0.11 111.93-0.17 110.44-0.17L110.44-0.17Q108.95-0.17 107.46-0.11 105.97-0.05 105.19 0ZM129.41 0.56L129.41 0.56Q126.45 0.56 124.11-0.84 121.76-2.25 120.41-4.71 119.05-7.18 119.05-10.35L119.05-10.35Q119.05-13.48 120.4-15.97 121.74-18.46 124.08-19.9 126.43-21.34 129.41-21.34L129.41-21.34Q132.38-21.34 134.73-19.9 137.07-18.46 138.43-15.97 139.78-13.48 139.78-10.35L139.78-10.35Q139.78-7.25 138.43-4.77 137.07-2.29 134.73-0.87 132.38 0.56 129.41 0.56ZM129.41-0.17L129.41-0.17Q131.29-0.17 132.74-1.54 134.19-2.91 135.02-5.21 135.85-7.52 135.85-10.35L135.85-10.35Q135.85-13.21 135.02-15.53 134.19-17.85 132.74-19.21 131.29-20.58 129.41-20.58L129.41-20.58Q127.55-20.58 126.1-19.21 124.65-17.85 123.82-15.53 122.99-13.21 122.99-10.35L122.99-10.35Q122.99-7.5 123.82-5.19 124.65-2.88 126.1-1.53 127.55-0.17 129.41-0.17ZM143.3 9.33L143.3 9.33 143.3 8.57Q145.57 8.52 146.43 7.92 147.3 7.32 147.3 5.66L147.3 5.66 147.3-16.48Q147.3-18.43 146.4-19.13 145.49-19.82 143.3-20.02L143.3-20.02 143.3-20.78Q143.98-20.7 144.75-20.68 145.52-20.65 146.3-20.65L146.3-20.65Q147.64-20.65 148.8-20.78 149.96-20.9 150.94-21.22L150.94-21.22 150.94-18.04Q151.96-19.63 153.68-20.48 155.4-21.34 157.43-21.34L157.43-21.34Q159.99-21.34 161.91-19.92 163.83-18.51 164.89-16.1 165.95-13.7 165.95-10.69L165.95-10.69Q165.95-7.5 164.77-4.94 163.58-2.39 161.45-0.92 159.31 0.56 156.48 0.56L156.48 0.56Q154.72 0.56 153.28-0.28 151.84-1.12 150.94-2.39L150.94-2.39 150.94 5.35Q150.94 7.06 152.12 7.79 153.31 8.52 156.14 8.57L156.14 8.57 156.14 9.33Q155.06 9.28 153.09 9.22 151.11 9.16 149.2 9.16L149.2 9.16Q147.35 9.16 145.75 9.22 144.15 9.28 143.3 9.33ZM155.97-20.07L155.97-20.07Q154.55-20.07 153.18-19.2 151.82-18.33 150.94-16.48L150.94-16.48 150.94-3.78Q151.69-2.37 152.89-1.45 154.09-0.54 155.48-0.54L155.48-0.54Q158.6-0.54 160.31-3.03 162.02-5.52 162.02-10.11L162.02-10.11Q162.02-14.55 160.42-17.31 158.82-20.07 155.97-20.07ZM180.3 0.56L180.3 0.56Q177.5 0.56 175.4-0.78 173.3-2.12 172.13-4.52 170.95-6.91 170.95-10.01L170.95-10.01Q170.95-15.11 173.53-18.23 176.11-21.34 180.62-21.34L180.62-21.34Q183.11-21.34 184.96-20.02 186.8-18.7 187.8-16.6 188.8-14.5 188.75-12.18L188.75-12.18 174.88-12.18Q174.86-11.91 174.86-11.43L174.86-11.43Q174.86-5.98 176.61-3.37 178.35-0.76 181.55-0.76L181.55-0.76Q183.6-0.76 185.33-1.73 187.07-2.71 188.07-4.93L188.07-4.93 188.73-4.13Q187.78-1.78 185.54-0.61 183.31 0.56 180.3 0.56ZM180.38-20.56L180.38-20.56Q179.06-20.56 177.9-19.45 176.74-18.33 175.95-16.59 175.15-14.84 174.93-12.99L174.93-12.99 184.89-12.99Q184.97-17.19 183.86-18.87 182.75-20.56 180.38-20.56ZM192.14 0L192.14 0 192.14-0.76Q194.02-0.81 194.69-1.39 195.37-1.98 195.37-3.66L195.37-3.66 195.37-16.48Q195.37-18.29 194.63-19.08 193.9-19.87 192.14-20.02L192.14-20.02 192.14-20.78Q193-20.68 193.67-20.67 194.34-20.65 194.98-20.65L194.98-20.65Q195.9-20.65 196.95-20.78 198-20.9 199-21.22L199-21.22 199-18.51Q199.76-19.95 201.26-20.64 202.76-21.34 204.2-21.34L204.2-21.34Q205.72-21.34 206.62-20.28 207.52-19.21 207.52-17.53L207.52-17.53Q207.52-16.04 207.01-15.08 206.5-14.11 205.64-14.11L205.64-14.11Q204.84-14.11 204.34-14.59 203.84-15.06 203.84-15.89L203.84-15.89Q203.84-17.04 204.18-17.75 204.52-18.46 204.52-19.31L204.52-19.31Q204.52-20.07 203.32-20.07L203.32-20.07Q202.1-20.07 200.75-19.34 199.39-18.6 199-16.6L199-16.6 199-3.96Q199-2.22 199.94-1.51 200.88-0.81 203.18-0.76L203.18-0.76 203.18 0Q202.27-0.05 200.6-0.11 198.93-0.17 197.27-0.17L197.27-0.17Q195.71-0.17 194.29-0.11 192.88-0.05 192.14 0Z" opacity="1" transform="matrix(1,0,0,1,0,0)" fill="#000000" class="slogan-text-1" data-fill-palette-color="secondary" id="text-1"></path></svg></g></svg></g></svg></g></svg></g><g></g></svg></g></svg></g></svg></g><path d="M0 41.215L0 1 190.205 1 190.205 41.215 181.827 41.215 181.827 9.377 8.377 9.377 8.377 41.215 0 41.215M0 205.985L0 246.2 190.205 246.2 190.205 205.985 181.827 205.985 181.827 237.823 8.377 237.823 8.377 205.985 0 205.985" fill="#000000" stroke="transparent" data-fill-palette-color="tertiary"></path></svg></g><defs></defs></svg><rect width="190.2047437126663" height="247.2" fill="none" stroke="none" visibility="hidden"></rect></g></svg></g></svg>