<svg xmlns="http://www.w3.org/2000/svg" width="134" height="112" viewBox="0 0 134 112">
  <g id="Layer_x0020_1" transform="translate(0 0)">
    <path id="Path_727" data-name="Path 727" d="M5.553,70.322c.131-.261.242-.571.366-.841s.245-.562.363-.847L8.5,63.512c.28-.574.462-1.108.732-1.692.49-1.062.166-.811,1.477-1.041,4.324-.755,8.578-1.378,12.9-2.072.723-.117,1.392-.227,2.137-.335,4.356-.617,8.938-1.271,13.282-1.707l10.658-.645c.478,0,.7-.077,1.239-.074a66.493,66.493,0,0,1,9.346.712A27.228,27.228,0,0,1,65.172,58l2.557,1.194c.379-.246.71-.516,1.086-.786a6.727,6.727,0,0,1,.583-.353c.232-.138.392-.239.646-.365,3.028-1.5,8.187-1.667,11.642-1.667,2.633,0,8.808.445,11.346.755,5.286.648,10.877,1.28,16.074,2.115,1.783.286,3.617.5,5.334.774.5.08,9.948,1.5,10.648,1.5l1.856,4.55c.156.4.322.734.471,1.1.258.629,1.372,3.23,1.4,3.512a76.189,76.189,0,0,1-8.617-.78c-.923-.1-1.837-.23-2.77-.359-3.382-.461-7.391-1.161-10.795-1.71-3.34-.537-7.645-1.314-10.839-1.664-.9-.1-1.856-.227-2.777-.353l-4.971-.491c-1.245-.006-2.36-.138-3.875-.138a49.229,49.229,0,0,0-6.671.261,28.586,28.586,0,0,0-5.592,1.231,18.648,18.648,0,0,0-3.84,1.793c-.258.166-.462.295-.7.451-.073-.018-3.038-1.375-4.063-1.719-.751-.252-1.5-.442-2.229-.669a42.1,42.1,0,0,0-8.171-1.28,4.989,4.989,0,0,0-.659-.068c-1.232-.009-2.888-.141-4.315-.141H46.468l-2.853.138c-.229.018-.5,0-.729,0-.376.006-.4.058-.726.074-5.929.3-10.416,1.044-16.189,1.864-3.321.47-6.961,1.213-10.253,1.741-1.7.273-3.34.632-5.05.906l-3.808.7c-.452.071-.888.126-1.306.218ZM32.661,54.047c-.137.083.162.077-.146.058-.156-.012-.067-.009-.146-.058Zm40.4-25.58H78.18V48.831H73.063V28.466Zm-7.964,0h5.117V48.831H65.1Zm-7.964,0h5.044V48.831H57.135Zm34.852,11.98h4.824v6.9H91.987Zm-5.77,0h4.821v6.9H86.217Zm-42.453,0h4.824v6.9H43.764Zm-5.77,0h4.821v6.9H37.995Zm53.992-8.314c0-.163.051-.212.22-.212h4.6V38.9H91.987Zm-5.77,0c0-.163.051-.212.22-.212h4.6V38.9H86.217ZM43.764,31.92h4.6c.169,0,.22.049.22.212V38.9H43.764V31.92Zm-5.77,0h4.6c.169,0,.22.049.22.212V38.9H37.995ZM73.063,19.449H78.18v7.89H73.063v-7.89Zm-7.964,0h5.117v7.89H65.1Zm-7.964,0h5.044v7.89H57.135Zm-24.474,34.6c.3-.184,3.726-.826,4.047-.887a69.285,69.285,0,0,1,13.778-1.228c1.6,0,3.213.172,4.751.212a67.166,67.166,0,0,1,8.709,1.323l2.98.721c.481.129.487.239.974.1a65.826,65.826,0,0,1,12.692-2.21c.783-.058,1.621-.055,2.347-.132.774-.086,1.732.009,2.484-.074.872-.092,3.706.132,4.811.129l1.7.126c.226.028.411.006.634.021a78.532,78.532,0,0,1,9.776,1.5,5.415,5.415,0,0,0,1.114.193c0-9.68-.293-19.277-.293-28.961-2.054-.952-6.391-1.409-8.623-1.409-1.073,0-2.184.129-3.213.212l-.073-5.428c0-1.087.252-1.213-.656-1.2-2.512.043-4.945.074-7.528.074,0-1.953-.146-3.8-.146-5.707A23.156,23.156,0,0,0,79,10.273,76.337,76.337,0,0,0,70.331,8.7c-.949-.135-.987.089-1.14-.593L67.933,2.7a22.812,22.812,0,0,1-.64-2.7h-.146a16.313,16.313,0,0,1-.494,2.272l-1.035,4.5A14.822,14.822,0,0,0,65.1,9.091c-1.223,0-2.726-.19-3.933-.061-1.15.126-2.461.181-3.611.4a25.81,25.81,0,0,0-5.461,1.566,5.657,5.657,0,0,1-.729.282c0,1.953.146,3.764.146,5.707l-2.038.083c-.917.1-2.1.058-3.025.181l-3.121.16c0,2.174.073,4.139.073,6.272l-1.493-.114a41.759,41.759,0,0,0-4.792.043,22.23,22.23,0,0,0-4.254.617c-.459.107-.872.273-1.3.368V52.214c0,1.854.261,1.993-.494,2.06-1.739.154-7.378,1.038-9.088,1.311L7.508,57.906c-.318.049-.29,0-.414.233L1.512,71.006C1.2,71.7.14,74.043,0,74.62c.751,0,19.851-3.454,20.962-3.669l4.245-.7c4.009-.639,7.871-1.161,11.915-1.612,1.114-.126,2.274-.172,3.388-.332.322-.043.866-.074,1.14-.1l9.629-.135c1.111.12,2.28.147,3.423.295,4.276.54,8.566,1.532,12.18,3.825.271.172.506.313.777.451.452-.295.834-.7,1.264-1.035a14.623,14.623,0,0,1,4.77-2.376,25.055,25.055,0,0,1,3.977-.814c5.572-.752,12.352-.055,17.9.7,2.178.295,6.241.878,8.26,1.265,1.357.261,2.742.421,4.127.672,3.872.7,13.625,2.232,17.861,2.435,1.118.052,2.3.212,3.429.215,1.6,0,3.086.068,4.751.068-.089-.181-.175-.445-.261-.663l-6.091-14.7c-.143-.279.01-.147-.264-.236a7.51,7.51,0,0,0-1.334-.193c-5.926-.8-11.737-1.741-17.641-2.576l-7.091-.986c-1.226-.172-2.42-.282-3.627-.448-2.436-.332-4.866-.531-7.372-.78-5.652-.568-13.09-1.047-18.774.445-.516.138-1.025.329-1.538.491a11.161,11.161,0,0,0-2.127.909c-.277.157-.331.3-.64.2-.513-.175-.917-.393-1.452-.577a34.776,34.776,0,0,0-8.365-1.732c-.863-.068-2-.209-2.84-.218-.331-.006-.7.018-1.025,0l-1.971-.071c-2.414,0-7.219.132-9.7.442-.538.068-1.3.123-1.86.178l-7.365.789Z" transform="translate(0 0)" fill="#000" fill-rule="evenodd"/>
    <path id="Path_728" data-name="Path 728" d="M7.8,239.849c0,.6.439,2.048.439,2.777.9,0,13.358-2.4,15.667-2.818,3.356-.608,7.177-1.322,10.549-1.8,2.516-.353,5.665-.866,8.2-1.076,1.554-.127,3.49-.373,4.961-.446l3.8-.143a58.822,58.822,0,0,1,8.754.376,32.765,32.765,0,0,1,9.072,2.328c.325.146.637.28.952.436l1.825,1.025a3.6,3.6,0,0,0,.952.509,19.5,19.5,0,0,1,2.773-2.044,15.075,15.075,0,0,1,3.452-1.446,32.97,32.97,0,0,1,9.483-1.111c1.923,0,3.063.175,4.748.217l4.525.446c.943.076,2.009.255,2.958.4,3.439.532,8.056,1.175,11.46,1.841.955.185,1.818.334,2.809.478,2.879.42,5.62.949,8.648,1.363.978.134,1.876.255,2.894.392,1.3.175,3.519.3,4.585.459a13.7,13.7,0,0,0,1.576.1c.363.01.366.067.729.076l3,.073c.169,0,.22-.051.22-.22v-2.63l-3.945-.146c-.331-.019-.4-.067-.806-.073-.468-.006-1.1-.1-1.538-.14-2.035-.172-3.952-.436-5.964-.685-3.359-.42-8.12-1.3-11.527-1.847-3.544-.57-8.1-1.487-11.511-1.86-1.579-.175-4.382-.666-5.916-.732-.484-.019-1.06-.137-1.535-.146-1.684-.041-3.012-.22-4.824-.22A35.732,35.732,0,0,0,78.981,234.6a15.341,15.341,0,0,0-2.573.863c-.274.108-.551.207-.828.341l-2.2,1.239c-.952.63-.446.592-1.675-.019a30.774,30.774,0,0,0-7.7-2.6l-3.764-.618c-.5-.064-.92-.051-1.423-.115-.3-.038-.993-.121-1.331-.127-1.43-.038-2.834-.143-4.315-.143-1.143,0-2.028.076-3.143.07l-3.047.169c-.911.124-2.012.089-2.984.229-1,.143-2.028.2-2.968.322-6.407.8-10.5,1.525-16.781,2.579-1.793.3-3.659.713-5.49,1.016-.914.15-1.761.369-2.694.519s-1.86.325-2.78.509c-1.678.334-3.952.659-5.486,1.016Z" transform="translate(-5.316 -161.046)" fill="#000" fill-rule="evenodd"/>
    <path id="Path_729" data-name="Path 729" d="M50.616,302.71l1.471-3.092a11.465,11.465,0,0,0-5.97-1.684c-3.6,0-5.97,1.771-5.97,4.563,0,5.286,7.868,3.751,7.868,6.289,0,.79-.726,1.216-1.876,1.216a9.546,9.546,0,0,1-5.416-2.261l-1.513,3.047a11.222,11.222,0,0,0,6.884,2.388c3.328,0,6.012-1.554,6.012-4.6,0-5.372-7.865-3.964-7.865-6.439,0-.681.618-1.022,1.554-1.022A11.636,11.636,0,0,1,50.616,302.71Zm10.916,3.006,2.748-1.6a5.678,5.678,0,0,0-5.159-2.729,5.623,5.623,0,0,0-5.97,5.948,5.551,5.551,0,0,0,5.929,5.84,5.546,5.546,0,0,0,5.244-2.77l-2.793-1.6a2.373,2.373,0,0,1-2.261,1.3c-1.363,0-2.3-1.108-2.3-2.793,0-1.662.939-2.793,2.3-2.793A2.64,2.64,0,0,1,61.532,305.716Zm12.259-4.35a4.243,4.243,0,0,0-3.818,2.025V297.23h-3.8v15.819h3.8v-5.693a2.321,2.321,0,0,1,2.261-2.6,1.891,1.891,0,0,1,1.962,2.111v6.184h3.8v-7.27C77.991,303.073,76.326,301.366,73.791,301.366Zm12.11.022c-3.8,0-6.289,2.344-6.289,5.885,0,3.56,2.493,5.9,6.289,5.9s6.311-2.344,6.311-5.9C92.212,303.732,89.7,301.389,85.9,301.389Zm0,3.07c1.493,0,2.493,1.149,2.493,2.856,0,1.726-1,2.879-2.493,2.879-1.471,0-2.474-1.153-2.474-2.879C83.427,305.608,84.43,304.458,85.9,304.458Zm13.6-3.07c-3.792,0-6.289,2.344-6.289,5.885,0,3.56,2.5,5.9,6.289,5.9s6.311-2.344,6.311-5.9C105.812,303.732,103.3,301.389,99.5,301.389Zm0,3.07a2.55,2.55,0,0,1,2.5,2.856c0,1.726-1,2.879-2.5,2.879-1.471,0-2.471-1.153-2.471-2.879C97.03,305.608,98.03,304.458,99.5,304.458Zm8.359-7.228v15.819h3.8V297.23Zm5.5.876v3.219h4.432v11.724h3.9V301.325h4.48v-3.219Zm17.845,5.327v-1.917h-3.8v11.533h3.8v-5.885c.191-1.6,1.6-2.538,3.71-2.325v-3.474A4.144,4.144,0,0,0,131.206,303.433Zm12.087,10.747,4.948-12.664h-3.777l-2.452,7.505-2.748-7.505h-3.9l4.776,11.256-.277.532a1.463,1.463,0,0,1-1.385.876,2.249,2.249,0,0,1-1.535-.64l-1.579,2.624a5.3,5.3,0,0,0,3.414,1.194A4.522,4.522,0,0,0,143.294,314.18Z" transform="translate(-26.725 -205.358)" fill="#444"/>
  </g>
</svg>
