<svg width="108" height="108" viewBox="0 0 108 108" fill="none" xmlns="http://www.w3.org/2000/svg">
<g clip-path="url(#clip0_328_14272)" filter="url(#filter0_d_328_14272)">
<path d="M34.4001 24.4C34.4719 24.4912 34.5281 24.5814 34.5796 24.6853C34.602 24.7303 34.602 24.7303 34.6248 24.7762C34.6408 24.8085 34.6567 24.8408 34.6731 24.8741C34.6899 24.9079 34.7068 24.9418 34.7241 24.9766C34.778 25.085 34.8318 25.1936 34.8855 25.3021C34.9556 25.4435 35.0257 25.5849 35.096 25.7262C35.1136 25.7614 35.1311 25.7967 35.1491 25.8329C35.249 26.033 35.351 26.2317 35.4562 26.4291C35.6123 26.7224 35.7611 27.0193 35.9094 27.3167C35.9218 27.3415 35.9342 27.3663 35.9469 27.3918C36.05 27.5984 36.1529 27.8051 36.2558 28.0118C36.3451 28.1913 36.4345 28.3707 36.524 28.55C36.5364 28.5749 36.5488 28.5997 36.5616 28.6254C36.7063 28.915 36.8528 29.2034 37.0053 29.489C37.142 29.7467 37.2719 30.0078 37.4021 30.2688C37.4142 30.2929 37.4262 30.317 37.4386 30.3418C37.5385 30.542 37.6382 30.7424 37.7379 30.9427C37.8245 31.1167 37.9112 31.2907 37.998 31.4646C38.01 31.4888 38.0221 31.5129 38.0345 31.5378C38.1645 31.7981 38.2953 32.0579 38.4324 32.3146C38.5855 32.6016 38.7309 32.8923 38.8761 33.1834C38.8885 33.2082 38.9009 33.233 38.9137 33.2586C39.0167 33.4652 39.1196 33.6718 39.2225 33.8785C39.3118 34.0579 39.4012 34.2373 39.4907 34.4167C39.5031 34.4416 39.5155 34.4664 39.5283 34.4921C39.6607 34.7573 39.7938 35.0219 39.9334 35.2834C40.0862 35.5696 40.2312 35.8597 40.3761 36.15C40.3885 36.1749 40.4009 36.1997 40.4137 36.2253C40.5167 36.4318 40.6196 36.6385 40.7225 36.8451C40.8118 37.0246 40.9012 37.204 40.9907 37.3834C41.0031 37.4082 41.0155 37.4331 41.0283 37.4587C41.1607 37.7239 41.2938 37.9885 41.4334 38.25C41.5862 38.5363 41.7312 38.8263 41.8761 39.1167C41.8885 39.1415 41.9009 39.1664 41.9137 39.1919C42.0167 39.3985 42.1196 39.6052 42.2225 39.8118C42.3118 39.9913 42.4012 40.1707 42.4907 40.35C42.5031 40.3749 42.5155 40.3998 42.5283 40.4254C42.6607 40.6906 42.7938 40.9552 42.9334 41.2167C43.0862 41.503 43.2312 41.793 43.3761 42.0834C43.3885 42.1082 43.4009 42.133 43.4137 42.1586C43.5167 42.3652 43.6196 42.5718 43.7225 42.7785C43.8118 42.9579 43.9012 43.1373 43.9907 43.3167C44.0031 43.3416 44.0155 43.3664 44.0283 43.3921C44.1607 43.6573 44.2938 43.9219 44.4334 44.1834C44.5862 44.4696 44.7312 44.7597 44.8761 45.05C44.8885 45.0749 44.9009 45.0997 44.9137 45.1253C45.0167 45.3318 45.1196 45.5385 45.2225 45.7451C45.3118 45.9246 45.4012 46.104 45.4907 46.2834C45.5031 46.3082 45.5155 46.3331 45.5283 46.3587C45.6607 46.6239 45.7938 46.8885 45.9334 47.15C46.0862 47.4363 46.2312 47.7263 46.3761 48.0167C46.3885 48.0415 46.4009 48.0664 46.4137 48.0919C46.5167 48.2985 46.6196 48.5052 46.7225 48.7118C46.8118 48.8913 46.9012 49.0707 46.9907 49.25C47.0031 49.2749 47.0155 49.2998 47.0283 49.3254C47.1607 49.5906 47.2938 49.8552 47.4334 50.1167C47.5862 50.403 47.7312 50.693 47.8761 50.9834C47.8885 51.0082 47.9009 51.033 47.9137 51.0586C48.0167 51.2652 48.1196 51.4718 48.2225 51.6785C48.3118 51.8579 48.4012 52.0373 48.4907 52.2167C48.5031 52.2416 48.5155 52.2664 48.5283 52.2921C48.6607 52.5573 48.7938 52.8219 48.9334 53.0834C49.0862 53.3696 49.2312 53.6597 49.3761 53.95C49.3885 53.9749 49.4009 53.9997 49.4137 54.0253C49.5167 54.2318 49.6196 54.4385 49.7225 54.6451C49.8118 54.8246 49.9012 55.004 49.9907 55.1834C50.0031 55.2082 50.0155 55.2331 50.0283 55.2587C50.1607 55.5239 50.2938 55.7885 50.4334 56.05C50.5862 56.3363 50.7312 56.6264 50.8761 56.9167C50.8885 56.9415 50.9009 56.9664 50.9137 56.9919C51.0167 57.1985 51.1196 57.4052 51.2225 57.6118C51.3118 57.7913 51.4012 57.9707 51.4907 58.15C51.5031 58.1749 51.5155 58.1998 51.5283 58.2254C51.6607 58.4906 51.7938 58.7552 51.9334 59.0167C52.0862 59.303 52.2312 59.593 52.3761 59.8834C52.3885 59.9082 52.4009 59.933 52.4137 59.9586C52.5167 60.1652 52.6196 60.3718 52.7225 60.5785C52.8118 60.7579 52.9012 60.9373 52.9907 61.1167C53.0031 61.1416 53.0155 61.1664 53.0283 61.1921C53.1607 61.4573 53.2938 61.7219 53.4334 61.9834C53.5862 62.2696 53.7312 62.5597 53.8761 62.85C53.8885 62.8749 53.9009 62.8997 53.9137 62.9253C54.0167 63.1318 54.1196 63.3385 54.2225 63.5451C54.3118 63.7246 54.4012 63.904 54.4907 64.0834C54.5031 64.1082 54.5155 64.1331 54.5283 64.1587C54.6729 64.4484 54.8195 64.7367 54.9719 65.0224C55.1087 65.28 55.2386 65.5411 55.3688 65.8021C55.3808 65.8262 55.3929 65.8503 55.4053 65.8751C55.5051 66.0754 55.6049 66.2757 55.7046 66.476C55.7912 66.6501 55.8779 66.824 55.9646 66.9979C55.9825 67.0337 55.9825 67.0337 56.0007 67.0703C56.1747 67.4186 56.3524 67.7646 56.5356 68.1081C56.6048 68.2385 56.6715 68.3701 56.7376 68.5021C56.7504 68.5273 56.7632 68.5525 56.7764 68.5785C56.8667 68.7587 56.8667 68.7587 56.8667 68.8334C52.8187 68.8334 48.7707 68.8334 44.6001 68.8334C44.4054 68.4634 44.2116 68.0945 44.0256 67.7203C43.9892 67.6469 43.9526 67.5736 43.916 67.5004C43.8254 67.3186 43.7349 67.1367 43.6443 66.9549C43.5673 66.8001 43.4901 66.6453 43.4129 66.4905C43.3776 66.4197 43.3424 66.3488 43.3072 66.278C43.1862 66.0352 43.0625 65.7943 42.9357 65.5546C42.7846 65.269 42.6386 64.9812 42.4947 64.6919C42.4527 64.6073 42.4105 64.5228 42.3684 64.4383C42.2638 64.2288 42.1594 64.0191 42.0549 63.8094C41.9661 63.6311 41.8772 63.4528 41.7883 63.2746C41.7474 63.1927 41.7067 63.1107 41.6659 63.0288C41.5359 62.7679 41.4036 62.5085 41.2672 62.2509C41.1145 61.9626 40.9672 61.6717 40.8219 61.3796C40.7787 61.2928 40.7355 61.206 40.6922 61.1193C40.5848 60.9041 40.4776 60.6889 40.3704 60.4737C40.2792 60.2907 40.188 60.1077 40.0967 59.9248C40.0547 59.8406 40.0129 59.7565 39.971 59.6723C39.8391 59.4077 39.7051 59.1446 39.5667 58.8834C39.4142 58.5953 39.2671 58.3047 39.1219 58.0129C39.0787 57.9261 39.0355 57.8394 38.9922 57.7526C38.8848 57.5375 38.7776 57.3222 38.6704 57.107C38.5792 56.924 38.488 56.741 38.3967 56.5581C38.3547 56.474 38.3129 56.3898 38.271 56.3056C38.1256 56.0139 37.9768 55.7244 37.8242 55.4364C37.6883 55.179 37.5577 54.9192 37.4281 54.6586C37.386 54.574 37.3439 54.4895 37.3017 54.405C37.1971 54.1954 37.0927 53.9858 36.9883 53.7761C36.8995 53.5978 36.8106 53.4195 36.7216 53.2413C36.6808 53.1594 36.64 53.0774 36.5992 52.9954C36.4692 52.7346 36.3369 52.4752 36.2005 52.2176C36.0478 51.9292 35.9006 51.6384 35.7552 51.3462C35.7121 51.2594 35.6688 51.1727 35.6255 51.0859C35.5182 50.8708 35.4109 50.6556 35.3037 50.4403C35.2126 50.2573 35.1213 50.0744 35.03 49.8914C34.9881 49.8073 34.9462 49.7231 34.9043 49.6389C34.7725 49.3744 34.6384 49.1113 34.5001 48.85C34.3475 48.562 34.2004 48.2714 34.0552 47.9796C34.0121 47.8928 33.9688 47.806 33.9255 47.7193C33.8182 47.5041 33.7109 47.2889 33.6037 47.0737C33.5126 46.8907 33.4213 46.7077 33.33 46.5248C33.2881 46.4406 33.2462 46.3564 33.2043 46.2723C33.0589 45.9806 32.9101 45.6911 32.7576 45.4031C32.6216 45.1457 32.491 44.8858 32.3614 44.6252C32.3194 44.5407 32.2772 44.4562 32.235 44.3717C32.1305 44.1621 32.026 43.9524 31.9216 43.7428C31.8328 43.5645 31.7439 43.3862 31.655 43.2079C31.6141 43.126 31.5733 43.0441 31.5326 42.9621C31.4026 42.7012 31.2703 42.4419 31.1339 42.1843C30.9812 41.8959 30.8339 41.605 30.6886 41.3129C30.6454 41.2261 30.6021 41.1393 30.5588 41.0526C30.4515 40.8375 30.3443 40.6222 30.2371 40.407C30.1459 40.224 30.0547 40.041 29.9634 39.8581C29.9214 39.774 29.8795 39.6898 29.8377 39.6056C29.6775 39.2843 29.5128 38.9657 29.345 38.6483C29.1793 38.3349 29.0192 38.0186 28.8595 37.7021C28.8041 37.5923 28.7484 37.4825 28.6922 37.373C28.6369 37.2651 28.5821 37.1569 28.5277 37.0486C28.5071 37.0078 28.4863 36.9671 28.4654 36.9265C28.4363 36.8702 28.408 36.8135 28.3797 36.7568C28.3635 36.7248 28.3472 36.6928 28.3305 36.6599C28.2741 36.4872 28.3328 36.3511 28.4115 36.1949C28.4277 36.1623 28.444 36.1296 28.4608 36.096C28.4785 36.0611 28.4962 36.0262 28.5145 35.9903C28.5329 35.9536 28.5513 35.9169 28.5703 35.8791C28.6293 35.7616 28.6886 35.6444 28.748 35.5271C28.7868 35.4499 28.8256 35.3726 28.8643 35.2954C29.0259 34.974 29.1884 34.6533 29.3575 34.3358C29.5157 34.0383 29.6663 33.737 29.8167 33.4354C29.8359 33.3971 29.8359 33.3971 29.8554 33.3581C29.9481 33.1721 30.0408 32.9861 30.1334 32.8C30.2389 32.5882 30.3444 32.3764 30.4501 32.1646C30.4628 32.139 30.4756 32.1134 30.4888 32.087C30.635 31.7942 30.783 31.5026 30.9372 31.2139C31.0795 30.9457 31.2145 30.6738 31.3501 30.4021C31.3628 30.3765 31.3756 30.351 31.3887 30.3246C31.4815 30.1387 31.5741 29.9527 31.6667 29.7667C31.7722 29.5548 31.8777 29.343 31.9834 29.1313C31.9962 29.1057 32.009 29.0801 32.0221 29.0537C32.1684 28.7608 32.3163 28.4693 32.4705 28.1805C32.6129 27.9123 32.7478 27.6404 32.8834 27.3688C32.8962 27.3432 32.9089 27.3176 32.9221 27.2913C33.0148 27.1054 33.1075 26.9194 33.2001 26.7334C33.8485 25.431 33.8485 25.431 34.0994 24.9635C34.1381 24.8913 34.1766 24.819 34.215 24.7467C34.2766 24.6311 34.3383 24.5155 34.4001 24.4Z" fill="#020202"/>
<path d="M51.9001 21.9C51.9719 21.9912 52.0281 22.0814 52.0796 22.1853C52.102 22.2303 52.102 22.2303 52.1248 22.2762C52.1408 22.3085 52.1567 22.3408 52.1731 22.3741C52.1899 22.4079 52.2068 22.4418 52.2241 22.4766C52.278 22.585 52.3318 22.6936 52.3855 22.8021C52.4556 22.9435 52.5257 23.0849 52.596 23.2262C52.6136 23.2614 52.6311 23.2967 52.6491 23.3329C52.749 23.533 52.851 23.7317 52.9562 23.9291C53.1123 24.2224 53.2611 24.5193 53.4094 24.8167C53.4218 24.8415 53.4342 24.8663 53.4469 24.8918C53.55 25.0984 53.6529 25.3051 53.7558 25.5118C53.8451 25.6913 53.9345 25.8707 54.024 26.05C54.0364 26.0749 54.0488 26.0997 54.0616 26.1254C54.2063 26.415 54.3528 26.7034 54.5053 26.989C54.642 27.2467 54.7719 27.5078 54.9021 27.7688C54.9142 27.7929 54.9262 27.817 54.9386 27.8418C55.0385 28.042 55.1382 28.2424 55.2379 28.4427C55.3245 28.6167 55.4112 28.7907 55.498 28.9646C55.51 28.9888 55.5221 29.0129 55.5345 29.0378C55.6645 29.2981 55.7953 29.5579 55.9324 29.8146C56.0855 30.1016 56.2309 30.3923 56.3761 30.6834C56.3885 30.7082 56.4009 30.733 56.4137 30.7586C56.5167 30.9652 56.6196 31.1718 56.7225 31.3785C56.8118 31.5579 56.9012 31.7373 56.9907 31.9167C57.0031 31.9416 57.0155 31.9664 57.0283 31.9921C57.1607 32.2573 57.2938 32.5219 57.4334 32.7834C57.5862 33.0696 57.7312 33.3597 57.8761 33.65C57.8885 33.6749 57.9009 33.6997 57.9137 33.7253C58.0167 33.9318 58.1196 34.1385 58.2225 34.3451C58.3118 34.5246 58.4012 34.704 58.4907 34.8834C58.5031 34.9082 58.5155 34.9331 58.5283 34.9587C58.6607 35.2239 58.7938 35.4885 58.9334 35.75C59.0862 36.0363 59.2312 36.3263 59.3761 36.6167C59.3885 36.6415 59.4009 36.6664 59.4137 36.6919C59.5167 36.8985 59.6196 37.1052 59.7225 37.3118C59.8118 37.4913 59.9012 37.6707 59.9907 37.85C60.0031 37.8749 60.0155 37.8998 60.0283 37.9254C60.1607 38.1906 60.2938 38.4552 60.4334 38.7167C60.5862 39.003 60.7312 39.293 60.8761 39.5834C60.8885 39.6082 60.9009 39.633 60.9137 39.6586C61.0167 39.8652 61.1196 40.0718 61.2225 40.2785C61.3118 40.4579 61.4012 40.6373 61.4907 40.8167C61.5031 40.8416 61.5155 40.8664 61.5283 40.8921C61.6607 41.1573 61.7938 41.4219 61.9334 41.6834C62.0862 41.9696 62.2312 42.2597 62.3761 42.55C62.3885 42.5749 62.4009 42.5997 62.4137 42.6253C62.5167 42.8318 62.6196 43.0385 62.7225 43.2451C62.8118 43.4246 62.9012 43.604 62.9907 43.7834C63.0031 43.8082 63.0155 43.8331 63.0283 43.8587C63.1607 44.1239 63.2938 44.3885 63.4334 44.65C63.5862 44.9363 63.7312 45.2263 63.8761 45.5167C63.8885 45.5415 63.9009 45.5664 63.9137 45.5919C64.0167 45.7985 64.1196 46.0052 64.2225 46.2118C64.3118 46.3913 64.4012 46.5707 64.4907 46.75C64.5031 46.7749 64.5155 46.7998 64.5283 46.8254C64.6607 47.0906 64.7938 47.3552 64.9334 47.6167C65.0862 47.903 65.2312 48.193 65.3761 48.4834C65.3885 48.5082 65.4009 48.533 65.4137 48.5586C65.5167 48.7652 65.6196 48.9718 65.7225 49.1785C65.8118 49.3579 65.9012 49.5373 65.9907 49.7167C66.0031 49.7416 66.0155 49.7664 66.0283 49.7921C66.1607 50.0573 66.2938 50.3219 66.4334 50.5834C66.5862 50.8696 66.7312 51.1597 66.8761 51.45C66.8885 51.4749 66.9009 51.4997 66.9137 51.5253C67.0167 51.7318 67.1196 51.9385 67.2225 52.1451C67.3118 52.3246 67.4012 52.504 67.4907 52.6834C67.5031 52.7082 67.5155 52.7331 67.5283 52.7587C67.6607 53.0239 67.7938 53.2885 67.9334 53.55C68.0862 53.8363 68.2312 54.1264 68.3761 54.4167C68.3885 54.4415 68.4009 54.4664 68.4137 54.4919C68.5167 54.6985 68.6196 54.9052 68.7225 55.1118C68.8118 55.2913 68.9012 55.4707 68.9907 55.65C69.0031 55.6749 69.0155 55.6998 69.0283 55.7254C69.1607 55.9906 69.2938 56.2552 69.4334 56.5167C69.5862 56.803 69.7312 57.093 69.8761 57.3834C69.8885 57.4082 69.9009 57.433 69.9137 57.4586C70.0167 57.6652 70.1196 57.8718 70.2225 58.0785C70.3118 58.2579 70.4012 58.4373 70.4907 58.6167C70.5031 58.6416 70.5155 58.6664 70.5283 58.6921C70.6607 58.9573 70.7938 59.2219 70.9334 59.4834C71.0862 59.7696 71.2312 60.0597 71.3761 60.35C71.3885 60.3749 71.4009 60.3997 71.4137 60.4253C71.5167 60.6318 71.6196 60.8385 71.7225 61.0451C71.8118 61.2246 71.9012 61.404 71.9907 61.5834C72.0031 61.6082 72.0155 61.6331 72.0283 61.6587C72.1729 61.9484 72.3195 62.2367 72.4719 62.5224C72.6087 62.78 72.7386 63.0411 72.8688 63.3021C72.8808 63.3262 72.8929 63.3503 72.9053 63.3751C73.0051 63.5754 73.1049 63.7757 73.2046 63.976C73.2912 64.1501 73.3779 64.324 73.4646 64.4979C73.4825 64.5337 73.4825 64.5337 73.5007 64.5703C73.6747 64.9186 73.8524 65.2646 74.0356 65.6081C74.1048 65.7385 74.1715 65.8701 74.2376 66.0021C74.2504 66.0273 74.2632 66.0525 74.2764 66.0785C74.3667 66.2587 74.3667 66.2587 74.3667 66.3334C70.3187 66.3334 66.2707 66.3334 62.1001 66.3334C61.9054 65.9634 61.7116 65.5945 61.5256 65.2203C61.4892 65.1469 61.4526 65.0736 61.416 65.0004C61.3254 64.8186 61.2349 64.6367 61.1443 64.4549C61.0673 64.3001 60.9901 64.1453 60.9129 63.9905C60.8776 63.9197 60.8424 63.8488 60.8072 63.778C60.6862 63.5352 60.5625 63.2943 60.4357 63.0546C60.2846 62.769 60.1386 62.4812 59.9947 62.1919C59.9527 62.1073 59.9105 62.0228 59.8684 61.9383C59.7638 61.7288 59.6594 61.5191 59.5549 61.3094C59.4661 61.1311 59.3772 60.9528 59.2883 60.7746C59.2474 60.6927 59.2067 60.6107 59.1659 60.5288C59.0359 60.2679 58.9036 60.0085 58.7672 59.7509C58.6145 59.4626 58.4672 59.1717 58.3219 58.8796C58.2787 58.7928 58.2355 58.706 58.1922 58.6193C58.0848 58.4041 57.9776 58.1889 57.8704 57.9737C57.7792 57.7907 57.688 57.6077 57.5967 57.4248C57.5547 57.3406 57.5129 57.2565 57.471 57.1723C57.3391 56.9077 57.2051 56.6446 57.0667 56.3834C56.9142 56.0953 56.7671 55.8047 56.6219 55.5129C56.5787 55.4261 56.5355 55.3394 56.4922 55.2526C56.3848 55.0375 56.2776 54.8222 56.1704 54.607C56.0792 54.424 55.988 54.241 55.8967 54.0581C55.8547 53.974 55.8129 53.8898 55.771 53.8056C55.6256 53.5139 55.4768 53.2244 55.3242 52.9364C55.1883 52.679 55.0577 52.4192 54.9281 52.1586C54.886 52.074 54.8439 51.9895 54.8017 51.905C54.6971 51.6954 54.5927 51.4858 54.4883 51.2761C54.3995 51.0978 54.3106 50.9195 54.2216 50.7413C54.1808 50.6594 54.14 50.5774 54.0992 50.4954C53.9692 50.2346 53.8369 49.9752 53.7005 49.7176C53.5478 49.4292 53.4006 49.1384 53.2552 48.8462C53.2121 48.7594 53.1688 48.6727 53.1255 48.5859C53.0182 48.3708 52.9109 48.1556 52.8037 47.9403C52.7126 47.7573 52.6213 47.5744 52.53 47.3914C52.4881 47.3073 52.4462 47.2231 52.4043 47.1389C52.2725 46.8744 52.1384 46.6113 52.0001 46.35C51.8475 46.062 51.7004 45.7714 51.5552 45.4796C51.5121 45.3928 51.4688 45.306 51.4255 45.2193C51.3182 45.0041 51.2109 44.7889 51.1037 44.5737C51.0126 44.3907 50.9213 44.2077 50.83 44.0248C50.7881 43.9406 50.7462 43.8564 50.7043 43.7723C50.5589 43.4806 50.4101 43.1911 50.2576 42.9031C50.1216 42.6457 49.991 42.3858 49.8614 42.1252C49.8194 42.0407 49.7772 41.9562 49.735 41.8717C49.6305 41.6621 49.526 41.4524 49.4216 41.2428C49.3328 41.0645 49.2439 40.8862 49.155 40.7079C49.1141 40.626 49.0733 40.5441 49.0326 40.4621C48.9026 40.2012 48.7703 39.9419 48.6339 39.6843C48.4812 39.3959 48.3339 39.105 48.1886 38.8129C48.1454 38.7261 48.1021 38.6393 48.0588 38.5526C47.9515 38.3375 47.8443 38.1222 47.7371 37.907C47.6459 37.724 47.5547 37.541 47.4634 37.3581C47.4214 37.274 47.3795 37.1898 47.3377 37.1056C47.1775 36.7843 47.0128 36.4657 46.845 36.1483C46.6793 35.8349 46.5192 35.5186 46.3595 35.2021C46.3041 35.0923 46.2484 34.9825 46.1922 34.873C46.1369 34.7651 46.0821 34.6569 46.0277 34.5486C46.0071 34.5078 45.9863 34.4671 45.9654 34.4265C45.9363 34.3702 45.908 34.3135 45.8797 34.2568C45.8635 34.2248 45.8472 34.1928 45.8305 34.1599C45.7741 33.9872 45.8328 33.8511 45.9115 33.6949C45.9277 33.6623 45.944 33.6296 45.9608 33.596C45.9785 33.5611 45.9962 33.5262 46.0145 33.4903C46.0329 33.4536 46.0513 33.4169 46.0703 33.3791C46.1293 33.2616 46.1886 33.1444 46.248 33.0271C46.2868 32.9499 46.3256 32.8726 46.3643 32.7954C46.5259 32.474 46.6884 32.1533 46.8575 31.8358C47.0157 31.5383 47.1663 31.237 47.3167 30.9354C47.3359 30.8971 47.3359 30.8971 47.3554 30.8581C47.4481 30.6721 47.5408 30.4861 47.6334 30.3C47.7389 30.0882 47.8444 29.8764 47.9501 29.6646C47.9628 29.639 47.9756 29.6134 47.9888 29.587C48.135 29.2942 48.283 29.0026 48.4372 28.7139C48.5795 28.4457 48.7145 28.1738 48.8501 27.9021C48.8628 27.8765 48.8756 27.851 48.8887 27.8246C48.9815 27.6387 49.0741 27.4527 49.1667 27.2667C49.2722 27.0548 49.3777 26.843 49.4834 26.6313C49.4962 26.6057 49.509 26.5801 49.5221 26.5537C49.6684 26.2608 49.8163 25.9693 49.9705 25.6805C50.1129 25.4123 50.2478 25.1404 50.3834 24.8688C50.3962 24.8432 50.4089 24.8176 50.4221 24.7913C50.5148 24.6054 50.6075 24.4194 50.7001 24.2334C51.3485 22.931 51.3485 22.931 51.5994 22.4635C51.6381 22.3913 51.6766 22.319 51.715 22.2467C51.7766 22.1311 51.8383 22.0155 51.9001 21.9Z" fill="#020202"/>
<path d="M63.8333 24.3334C67.4413 24.3334 71.0493 24.3334 74.7666 24.3334C74.7666 37.8744 74.7666 51.4154 74.7666 65.3667C74.7446 65.3667 74.7226 65.3667 74.7 65.3667C74.7 65.3227 74.7 65.2787 74.7 65.2334C74.678 65.2334 74.656 65.2334 74.6333 65.2334C74.6223 65.1784 74.6113 65.1234 74.6 65.0667C74.589 65.0667 74.578 65.0667 74.5666 65.0667C74.5666 65.0117 74.5666 64.9567 74.5666 64.9C74.5226 64.889 74.4786 64.878 74.4333 64.8667C74.4333 64.8117 74.4333 64.7567 74.4333 64.7C74.4113 64.7 74.3893 64.7 74.3666 64.7C74.3065 64.5724 74.2934 64.474 74.3 64.3334C74.256 64.3334 74.212 64.3334 74.1666 64.3334C74.1666 64.2894 74.1666 64.2454 74.1666 64.2C74.1446 64.189 74.1226 64.178 74.1 64.1667C74.1 64.1117 74.1 64.0567 74.1 64C74.078 64 74.056 64 74.0333 64C74.0333 63.934 74.0333 63.868 74.0333 63.8C74.0003 63.8 73.9673 63.8 73.9333 63.8C73.9333 63.767 73.9333 63.734 73.9333 63.7C73.9003 63.689 73.8673 63.678 73.8333 63.6667C73.8333 63.6007 73.8333 63.5347 73.8333 63.4667C73.8113 63.4667 73.7893 63.4667 73.7666 63.4667C73.7556 63.4007 73.7446 63.3347 73.7333 63.2667C73.7113 63.2667 73.6893 63.2667 73.6666 63.2667C73.6666 63.2337 73.6666 63.2007 73.6666 63.1667C73.6336 63.1557 73.6006 63.1447 73.5666 63.1334C73.5666 63.0674 73.5666 63.0014 73.5666 62.9334C73.5446 62.9334 73.5226 62.9334 73.5 62.9334C73.5 62.8894 73.5 62.8454 73.5 62.8C73.478 62.8 73.456 62.8 73.4333 62.8C73.4299 62.7739 73.4264 62.7478 73.4229 62.7209C73.4074 62.6224 73.4074 62.6224 73.3 62.5667C73.2596 62.4793 73.2304 62.3914 73.2 62.3C73.211 62.278 73.222 62.256 73.2333 62.2334C73.2003 62.2334 73.1673 62.2334 73.1333 62.2334C73.1285 62.2072 73.1237 62.1811 73.1187 62.1542C73.104 62.0679 73.104 62.0679 73.0666 62C73.0446 61.989 73.0226 61.978 73 61.9667C73.011 61.9557 73.022 61.9447 73.0333 61.9334C73.0003 61.9114 72.9673 61.8894 72.9333 61.8667C72.9333 61.8227 72.9333 61.7787 72.9333 61.7334C72.9113 61.7224 72.8893 61.7114 72.8666 61.7C72.8666 61.656 72.8666 61.612 72.8666 61.5667C72.8446 61.5667 72.8226 61.5667 72.8 61.5667C72.8 61.5007 72.8 61.4347 72.8 61.3667C72.756 61.3667 72.712 61.3667 72.6666 61.3667C72.6666 61.3007 72.6666 61.2347 72.6666 61.1667C72.6446 61.1667 72.6226 61.1667 72.6 61.1667C72.6 61.1227 72.6 61.0787 72.6 61.0334C72.578 61.0334 72.556 61.0334 72.5333 61.0334C72.5299 61.0072 72.5264 60.9811 72.5229 60.9542C72.5074 60.8557 72.5074 60.8557 72.4 60.8C72.341 60.6853 72.326 60.5949 72.3333 60.4667C72.3113 60.4667 72.2893 60.4667 72.2666 60.4667C72.2666 60.4227 72.2666 60.3787 72.2666 60.3334C72.2336 60.3224 72.2006 60.3114 72.1666 60.3C72.1556 60.245 72.1446 60.19 72.1333 60.1334C72.1113 60.1334 72.0893 60.1334 72.0666 60.1334C72.0227 60.0127 72 59.9302 72 59.8C71.967 59.8 71.934 59.8 71.9 59.8C71.889 59.734 71.878 59.668 71.8666 59.6C71.8446 59.6 71.8226 59.6 71.8 59.6C71.8 59.556 71.8 59.512 71.8 59.4667C71.778 59.4667 71.756 59.4667 71.7333 59.4667C71.7004 59.3877 71.6693 59.3132 71.652 59.2292C71.6377 59.1627 71.6377 59.1627 71.5812 59.1167C71.5333 59.0667 71.5333 59.0667 71.5333 58.9334C71.5113 58.9334 71.4893 58.9334 71.4666 58.9334C71.4666 58.8894 71.4666 58.8454 71.4666 58.8C71.4446 58.8 71.4226 58.8 71.4 58.8C71.389 58.734 71.378 58.668 71.3666 58.6C71.3336 58.589 71.3006 58.578 71.2666 58.5667C71.2479 58.5063 71.2479 58.5063 71.2333 58.4334C71.1957 58.3482 71.1666 58.3 71.1 58.2334C71.0875 58.1781 71.0764 58.1225 71.0666 58.0667C71.0388 57.9945 71.0388 57.9945 70.9666 57.9667C70.9886 57.9667 71.0106 57.9667 71.0333 57.9667C71.0333 57.9447 71.0333 57.9227 71.0333 57.9C70.9893 57.9 70.9453 57.9 70.9 57.9C70.9 57.834 70.9 57.768 70.9 57.7C70.878 57.7 70.856 57.7 70.8333 57.7C70.8333 57.656 70.8333 57.612 70.8333 57.5667C70.8113 57.5667 70.7893 57.5667 70.7666 57.5667C70.7666 57.5007 70.7666 57.4347 70.7666 57.3667C70.7226 57.3667 70.6786 57.3667 70.6333 57.3667C70.6333 57.3007 70.6333 57.2347 70.6333 57.1667C70.6113 57.1667 70.5893 57.1667 70.5666 57.1667C70.5666 57.1227 70.5666 57.0787 70.5666 57.0334C70.5446 57.0334 70.5226 57.0334 70.5 57.0334C70.5 56.9674 70.5 56.9014 70.5 56.8334C70.4791 56.831 70.4583 56.8286 70.4368 56.8261C70.3666 56.8 70.3666 56.8 70.3329 56.7323C70.3255 56.7052 70.318 56.678 70.3104 56.65C70.2877 56.5494 70.2877 56.5494 70.2333 56.4667C70.2319 56.4112 70.2319 56.3556 70.2333 56.3C70.1893 56.289 70.1453 56.278 70.1 56.2667C70.111 56.2227 70.122 56.1787 70.1333 56.1334C70.1003 56.1334 70.0673 56.1334 70.0333 56.1334C70.0333 56.0674 70.0333 56.0014 70.0333 55.9334C70.0113 55.9334 69.9893 55.9334 69.9666 55.9334C69.9666 55.8894 69.9666 55.8454 69.9666 55.8C69.9336 55.789 69.9006 55.778 69.8666 55.7667C69.8666 55.7227 69.8666 55.6787 69.8666 55.6334C69.8336 55.6224 69.8006 55.6114 69.7666 55.6C69.7666 55.534 69.7666 55.468 69.7666 55.4C69.7446 55.4 69.7226 55.4 69.7 55.4C69.7 55.356 69.7 55.312 69.7 55.2667C69.678 55.2667 69.656 55.2667 69.6333 55.2667C69.6223 55.2007 69.6113 55.1347 69.6 55.0667C69.567 55.0667 69.534 55.0667 69.5 55.0667C69.4561 54.946 69.4333 54.8635 69.4333 54.7334C69.4113 54.7334 69.3893 54.7334 69.3666 54.7334C69.3666 54.6894 69.3666 54.6454 69.3666 54.6C69.3446 54.6 69.3226 54.6 69.3 54.6C69.1843 54.5075 69.1749 54.4177 69.152 54.2771C69.1428 54.239 69.1428 54.239 69.1333 54.2C69.1113 54.189 69.0893 54.178 69.0666 54.1667C69.0666 54.1227 69.0666 54.0787 69.0666 54.0334C69.0446 54.0334 69.0226 54.0334 69 54.0334C68.978 53.9894 68.956 53.9454 68.9333 53.9C68.9443 53.889 68.9553 53.878 68.9666 53.8667C68.9336 53.8557 68.9006 53.8447 68.8666 53.8334C68.8556 53.7784 68.8446 53.7234 68.8333 53.6667C68.8223 53.6667 68.8113 53.6667 68.8 53.6667C68.8 53.6117 68.8 53.5567 68.8 53.5C68.778 53.5 68.756 53.5 68.7333 53.5C68.7333 53.456 68.7333 53.412 68.7333 53.3667C68.7113 53.3667 68.6893 53.3667 68.6666 53.3667C68.6666 53.3447 68.6666 53.3227 68.6666 53.3C68.6446 53.3 68.6226 53.3 68.6 53.3C68.6 53.256 68.6 53.212 68.6 53.1667C68.578 53.1667 68.556 53.1667 68.5333 53.1667C68.5333 53.1007 68.5333 53.0347 68.5333 52.9667C68.5113 52.9667 68.4893 52.9667 68.4666 52.9667C68.4666 52.9227 68.4666 52.8787 68.4666 52.8334C68.446 52.8258 68.4254 52.8182 68.4041 52.8105C68.3102 52.7524 68.296 52.7052 68.2666 52.6C68.2625 52.5063 68.2625 52.5063 68.2666 52.4334C68.2446 52.4334 68.2226 52.4334 68.2 52.4334C68.2 52.3894 68.2 52.3454 68.2 52.3C68.167 52.3 68.134 52.3 68.1 52.3C68 52.0834 68 52.0834 68 51.9334C67.978 51.9334 67.956 51.9334 67.9333 51.9334C67.9292 51.9127 67.925 51.8921 67.9208 51.8709C67.9042 51.7937 67.9042 51.7937 67.8333 51.7334C67.8333 51.6894 67.8333 51.6454 67.8333 51.6C67.8003 51.589 67.7673 51.578 67.7333 51.5667C67.6764 51.456 67.6666 51.3939 67.6666 51.2667C67.6446 51.2667 67.6226 51.2667 67.6 51.2667C67.5835 51.1677 67.5835 51.1677 67.5666 51.0667C67.5336 51.0667 67.5006 51.0667 67.4666 51.0667C67.4227 50.946 67.4 50.8635 67.4 50.7334C67.378 50.7334 67.356 50.7334 67.3333 50.7334C67.3333 50.6894 67.3333 50.6454 67.3333 50.6C67.3127 50.5925 67.292 50.5849 67.2708 50.5771C67.1774 50.5195 67.1668 50.4697 67.1333 50.3667C67.1216 50.3385 67.1099 50.3103 67.0979 50.2813C67.0666 50.2 67.0666 50.2 67.05 50.125C67.0445 50.1058 67.039 50.0865 67.0333 50.0667C67.0113 50.0557 66.9893 50.0447 66.9666 50.0334C66.9666 49.9674 66.9666 49.9014 66.9666 49.8334C66.9226 49.8334 66.8786 49.8334 66.8333 49.8334C66.8333 49.7784 66.8333 49.7234 66.8333 49.6667C66.8113 49.6667 66.7893 49.6667 66.7666 49.6667C66.7666 49.6117 66.7666 49.5567 66.7666 49.5C66.7446 49.5 66.7226 49.5 66.7 49.5C66.667 49.401 66.667 49.401 66.6333 49.3C66.6113 49.3 66.5893 49.3 66.5666 49.3C66.5666 49.267 66.5666 49.234 66.5666 49.2C66.5446 49.189 66.5226 49.178 66.5 49.1667C66.5 49.1007 66.5 49.0347 66.5 48.9667C66.478 48.9667 66.456 48.9667 66.4333 48.9667C66.4333 48.9227 66.4333 48.8787 66.4333 48.8334C66.4113 48.8334 66.3893 48.8334 66.3666 48.8334C66.3666 48.8114 66.3666 48.7894 66.3666 48.7667C66.3446 48.7667 66.3226 48.7667 66.3 48.7667C66.2965 48.7495 66.2931 48.7323 66.2895 48.7146C66.2666 48.6257 66.2666 48.6257 66.2145 48.5167C66.1666 48.4 66.1666 48.4 66.1666 48.2667C66.1336 48.2557 66.1006 48.2447 66.0666 48.2334C66.0542 48.1893 66.0431 48.1448 66.0333 48.1C66.0113 48.089 65.9893 48.078 65.9666 48.0667C65.9091 47.9516 65.8926 47.8614 65.9 47.7334C65.878 47.7334 65.856 47.7334 65.8333 47.7334C65.8237 47.7066 65.814 47.6797 65.8041 47.6521C65.7755 47.5623 65.7755 47.5623 65.7 47.5334C65.7 47.4894 65.7 47.4454 65.7 47.4C65.678 47.4 65.656 47.4 65.6333 47.4C65.6333 47.334 65.6333 47.268 65.6333 47.2C65.6003 47.211 65.5673 47.222 65.5333 47.2334C65.5498 47.1509 65.5498 47.1509 65.5666 47.0667C65.5336 47.0667 65.5006 47.0667 65.4666 47.0667C65.4501 46.9677 65.4501 46.9677 65.4333 46.8667C65.4113 46.8667 65.3893 46.8667 65.3666 46.8667C65.3227 46.746 65.3 46.6635 65.3 46.5334C65.267 46.5224 65.234 46.5114 65.2 46.5C65.1766 46.445 65.1543 46.3894 65.1333 46.3334C65.1113 46.3224 65.0893 46.3114 65.0666 46.3C65.0666 46.245 65.0666 46.19 65.0666 46.1334C65.0446 46.1334 65.0226 46.1334 65 46.1334C64.984 46.091 64.968 46.0487 64.952 46.0063C64.9431 45.9827 64.9343 45.9591 64.9251 45.9348C64.9045 45.8791 64.8854 45.823 64.8666 45.7667C64.8446 45.7667 64.8226 45.7667 64.8 45.7667C64.8 45.7227 64.8 45.6787 64.8 45.6334C64.778 45.6334 64.756 45.6334 64.7333 45.6334C64.6635 45.52 64.6606 45.4316 64.6666 45.3C64.6226 45.289 64.5786 45.278 64.5333 45.2667C64.5333 45.2117 64.5333 45.1567 64.5333 45.1C64.5113 45.1 64.4893 45.1 64.4666 45.1C64.4666 45.056 64.4666 45.012 64.4666 44.9667C64.4446 44.9667 64.4226 44.9667 64.4 44.9667C64.3965 44.9413 64.3931 44.9158 64.3895 44.8896C64.3749 44.8002 64.3749 44.8002 64.3197 44.7537C64.2577 44.691 64.2292 44.6327 64.1937 44.5521C64.1822 44.5267 64.1708 44.5013 64.1589 44.4752C64.1333 44.4 64.1333 44.4 64.1333 44.2667C64.1003 44.2667 64.0673 44.2667 64.0333 44.2667C64.0292 44.2399 64.025 44.2131 64.0208 44.1855C64.0139 44.1573 64.007 44.1291 64 44.1C63.978 44.089 63.956 44.078 63.9333 44.0667C63.8371 43.8462 63.8189 43.6267 63.821 43.3894C63.8208 43.3397 63.8208 43.3397 63.8206 43.289C63.8204 43.1782 63.8208 43.0675 63.8213 42.9568C63.8212 42.8765 63.8211 42.7962 63.821 42.7159C63.8208 42.5414 63.821 42.367 63.8214 42.1926C63.822 41.9332 63.822 41.6738 63.8219 41.4144C63.8218 40.9781 63.8221 40.5417 63.8227 40.1053C63.8233 39.6734 63.8237 39.2414 63.8238 38.8094C63.8238 38.7825 63.8238 38.7557 63.8238 38.728C63.8239 38.5915 63.8239 38.455 63.8239 38.3186C63.8241 37.3523 63.8248 36.386 63.8257 35.4197C63.8267 34.481 63.8274 33.5423 63.8278 32.6036C63.8278 32.5446 63.8279 32.4856 63.8279 32.4265C63.8281 31.9468 63.8283 31.467 63.8285 30.9873C63.8294 28.7693 63.8314 26.5513 63.8333 24.3334Z" fill="#020202"/>
<path d="M23.0793 55.0208C23.1068 55.0208 23.1343 55.0208 23.1627 55.0209C25.0144 55.0273 26.6331 55.7783 27.9668 57.0333C27.9887 57.0538 28.0107 57.0744 28.0333 57.0955C28.205 57.2612 28.3533 57.4456 28.5001 57.6333C28.5144 57.6515 28.5287 57.6697 28.5434 57.6885C29.6748 59.1451 30.1202 60.9768 29.9134 62.7978C29.7667 63.9266 29.3418 65.0165 28.6668 65.9333C28.6517 65.9539 28.6366 65.9745 28.6211 65.9958C28.0576 66.7595 27.3551 67.3989 26.5279 67.8655C26.4877 67.8882 26.4476 67.9111 26.4076 67.9343C25.4118 68.5116 24.2521 68.774 23.1084 68.7749C23.0721 68.775 23.0721 68.775 23.0349 68.775C22.6167 68.7744 22.2114 68.7478 21.8001 68.6666C21.7711 68.6609 21.7421 68.6552 21.7123 68.6493C20.4899 68.399 19.3921 67.8471 18.4745 67.0014C18.4059 66.9386 18.3358 66.8786 18.2647 66.8187C17.0909 65.7876 16.3802 64.1324 16.2334 62.5999C16.2281 62.4989 16.2265 62.3981 16.2255 62.2969C16.2252 62.2685 16.2248 62.24 16.2245 62.2107C16.2188 61.5849 16.2204 60.9788 16.3668 60.3666C16.3739 60.3365 16.3811 60.3064 16.3884 60.2753C16.8245 58.5006 17.9402 56.9783 19.4876 56.0145C20.5848 55.3503 21.7998 55.0174 23.0793 55.0208Z" fill="#020202"/>
<path d="M77.2666 24.3334C81.7216 24.3334 86.1766 24.3334 90.7666 24.3334C90.7666 28.0514 90.7666 31.7694 90.7666 35.6C90.6489 35.5412 90.5688 35.4853 90.4687 35.4021C90.4364 35.3754 90.4041 35.3486 90.3709 35.321C90.245 35.2155 90.1197 35.1093 89.9945 35.003C89.8806 34.9063 89.7658 34.811 89.6499 34.7167C89.4965 34.5918 89.3453 34.4644 89.1945 34.3362C89.0806 34.2396 88.9658 34.1443 88.8499 34.05C88.6965 33.9251 88.5453 33.7977 88.3945 33.6696C88.2806 33.573 88.1658 33.4777 88.0499 33.3834C87.8964 33.2584 87.7452 33.131 87.5944 33.0028C87.4813 32.9069 87.3672 32.8123 87.252 32.7188C87.0899 32.5869 86.9314 32.4512 86.7731 32.3148C86.6259 32.1883 86.4765 32.0649 86.3258 31.9426C86.2218 31.8573 86.1191 31.7705 86.0166 31.6834C85.8843 31.5709 85.7513 31.4596 85.6166 31.35C85.4631 31.2251 85.3119 31.0977 85.1611 30.9696C85.0472 30.873 84.9324 30.7777 84.8166 30.6834C84.6631 30.5584 84.5119 30.431 84.3611 30.3029C84.2472 30.2063 84.1324 30.111 84.0166 30.0167C83.8631 29.8918 83.7119 29.7643 83.5611 29.6362C83.448 29.5402 83.3338 29.4456 83.2187 29.3521C83.0566 29.2202 82.898 29.0846 82.7397 28.9482C82.5926 28.8217 82.4432 28.6983 82.2925 28.576C82.1885 28.4906 82.0858 28.4038 81.9833 28.3167C81.851 28.2043 81.7179 28.093 81.5833 27.9834C81.4298 27.8584 81.2786 27.731 81.1278 27.6029C81.0139 27.5063 80.8991 27.411 80.7833 27.3167C80.6298 27.1918 80.4786 27.0644 80.3278 26.9362C80.2139 26.8396 80.0991 26.7443 79.9833 26.65C79.8298 26.5251 79.6785 26.3977 79.5277 26.2695C79.4146 26.1735 79.3005 26.079 79.1854 25.9855C79.0233 25.8536 78.8647 25.7179 78.7064 25.5815C78.5593 25.455 78.4098 25.3316 78.2592 25.2093C78.1551 25.124 78.0525 25.0372 77.9499 24.95C77.6185 24.6616 77.6185 24.6616 77.2666 24.4C77.2666 24.378 77.2666 24.356 77.2666 24.3334Z" fill="#020202"/>
<path d="M20.2739 85L19.9026 83.9019H17.6274L17.2561 85H16.1185L18.1093 79.47H19.4207L21.4115 85H20.2739ZM17.9513 82.946H19.5787L18.765 80.5523L17.9513 82.946ZM28.706 79.47H29.8515V85H28.7771V81.3344L27.126 84.0125H26.7705L25.1115 81.3344V85H24.045V79.47H25.1826L26.9443 82.314L28.706 79.47ZM36.6408 85L36.2695 83.9019H33.9943L33.623 85H32.4854L34.4762 79.47H35.7876L37.7784 85H36.6408ZM34.3182 82.946H35.9456L35.1319 80.5523L34.3182 82.946ZM41.5574 84.0046H44.2197V85H40.1749V84.1468L42.8372 80.4654H40.3171V79.47H44.1486V80.3232L41.5574 84.0046ZM47.01 79.47H48.0765V85H47.01V79.47ZM54.5214 79.47H55.5958V85H54.6241L52.1751 81.3423V85H51.1007V79.47H52.0724L54.5214 83.1277V79.47Z" fill="#020202"/>
<path d="M66.1685 79.47V80.4654H64.8413V85H63.7669V80.4654H62.4397V79.47H66.1685ZM73.3192 85H72.0947L70.9571 83.0092C70.9334 83.0092 70.9018 83.0092 70.8702 83.0092H70.0249V85H68.9584V79.47H70.8702C72.1105 79.47 72.9321 80.2284 72.9321 81.2791C72.9321 81.9743 72.5608 82.5115 71.9604 82.788L73.3192 85ZM70.0249 80.4654V82.0849H70.8702C71.4232 82.0849 71.834 81.8321 71.834 81.2791C71.834 80.7814 71.4706 80.4654 70.8702 80.4654H70.0249ZM75.9499 79.47H77.0164V85H75.9499V79.47ZM81.8892 79.47C83.2085 79.47 84.0143 80.2363 84.0143 81.3818C84.0143 82.5273 83.2085 83.2857 81.8892 83.2857H81.115V85H80.0406V79.47H81.8892ZM81.8892 82.2903C82.5449 82.2903 82.9241 81.9585 82.9241 81.3818C82.9241 80.7972 82.5449 80.4654 81.8892 80.4654H81.115V82.2903H81.8892ZM88.9119 81.8242C90.2233 82.1244 90.6973 82.5036 90.6973 83.3963C90.6973 84.2574 90.0811 85.1027 88.6354 85.1027C87.6005 85.1027 86.6762 84.6761 86.4076 83.7597L87.4425 83.4358C87.5215 83.7518 87.8533 84.1626 88.6275 84.1626C89.1805 84.1626 89.6229 83.9493 89.6229 83.4753C89.6229 82.9223 88.9988 82.8828 88.1219 82.6695C87.008 82.393 86.6367 81.8321 86.6367 81.0658C86.6367 80.023 87.4346 79.3752 88.588 79.3752C89.5123 79.3752 90.2391 79.8334 90.4761 80.6787L89.4333 80.9315C89.3701 80.6392 89.0857 80.3153 88.5327 80.3153C88.0745 80.3153 87.6953 80.5523 87.6953 80.9947C87.6953 81.6188 88.3984 81.7057 88.9119 81.8242Z" fill="black"/>
<path d="M34.4001 24.4C34.4719 24.4912 34.5281 24.5814 34.5796 24.6853C34.602 24.7303 34.602 24.7303 34.6248 24.7762C34.6408 24.8085 34.6567 24.8408 34.6731 24.8741C34.6899 24.9079 34.7068 24.9418 34.7241 24.9766C34.778 25.085 34.8318 25.1936 34.8855 25.3021C34.9556 25.4435 35.0257 25.5849 35.096 25.7262C35.1136 25.7614 35.1311 25.7967 35.1491 25.8329C35.249 26.033 35.351 26.2317 35.4562 26.4291C35.6123 26.7224 35.7611 27.0193 35.9094 27.3167C35.9218 27.3415 35.9342 27.3663 35.9469 27.3918C36.05 27.5984 36.1529 27.8051 36.2558 28.0118C36.3451 28.1913 36.4345 28.3707 36.524 28.55C36.5364 28.5749 36.5488 28.5997 36.5616 28.6254C36.7063 28.915 36.8528 29.2034 37.0053 29.489C37.142 29.7467 37.2719 30.0078 37.4021 30.2688C37.4142 30.2929 37.4262 30.317 37.4386 30.3418C37.5385 30.542 37.6382 30.7424 37.7379 30.9427C37.8245 31.1167 37.9112 31.2907 37.998 31.4646C38.01 31.4888 38.0221 31.5129 38.0345 31.5378C38.1645 31.7981 38.2953 32.0579 38.4324 32.3146C38.5855 32.6016 38.7309 32.8923 38.8761 33.1834C38.8885 33.2082 38.9009 33.233 38.9137 33.2586C39.0167 33.4652 39.1196 33.6718 39.2225 33.8785C39.3118 34.0579 39.4012 34.2373 39.4907 34.4167C39.5031 34.4416 39.5155 34.4664 39.5283 34.4921C39.6607 34.7573 39.7938 35.0219 39.9334 35.2834C40.0862 35.5696 40.2312 35.8597 40.3761 36.15C40.3885 36.1749 40.4009 36.1997 40.4137 36.2253C40.5167 36.4318 40.6196 36.6385 40.7225 36.8451C40.8118 37.0246 40.9012 37.204 40.9907 37.3834C41.0031 37.4082 41.0155 37.4331 41.0283 37.4587C41.1607 37.7239 41.2938 37.9885 41.4334 38.25C41.5862 38.5363 41.7312 38.8263 41.8761 39.1167C41.8885 39.1415 41.9009 39.1664 41.9137 39.1919C42.0167 39.3985 42.1196 39.6052 42.2225 39.8118C42.3118 39.9913 42.4012 40.1707 42.4907 40.35C42.5031 40.3749 42.5155 40.3998 42.5283 40.4254C42.6607 40.6906 42.7938 40.9552 42.9334 41.2167C43.0862 41.503 43.2312 41.793 43.3761 42.0834C43.3885 42.1082 43.4009 42.133 43.4137 42.1586C43.5167 42.3652 43.6196 42.5718 43.7225 42.7785C43.8118 42.9579 43.9012 43.1373 43.9907 43.3167C44.0031 43.3416 44.0155 43.3664 44.0283 43.3921C44.1607 43.6573 44.2938 43.9219 44.4334 44.1834C44.5862 44.4696 44.7312 44.7597 44.8761 45.05C44.8885 45.0749 44.9009 45.0997 44.9137 45.1253C45.0167 45.3318 45.1196 45.5385 45.2225 45.7451C45.3118 45.9246 45.4012 46.104 45.4907 46.2834C45.5031 46.3082 45.5155 46.3331 45.5283 46.3587C45.6607 46.6239 45.7938 46.8885 45.9334 47.15C46.0862 47.4363 46.2312 47.7263 46.3761 48.0167C46.3885 48.0415 46.4009 48.0664 46.4137 48.0919C46.5167 48.2985 46.6196 48.5052 46.7225 48.7118C46.8118 48.8913 46.9012 49.0707 46.9907 49.25C47.0031 49.2749 47.0155 49.2998 47.0283 49.3254C47.1607 49.5906 47.2938 49.8552 47.4334 50.1167C47.5862 50.403 47.7312 50.693 47.8761 50.9834C47.8885 51.0082 47.9009 51.033 47.9137 51.0586C48.0167 51.2652 48.1196 51.4718 48.2225 51.6785C48.3118 51.8579 48.4012 52.0373 48.4907 52.2167C48.5031 52.2416 48.5155 52.2664 48.5283 52.2921C48.6607 52.5573 48.7938 52.8219 48.9334 53.0834C49.0862 53.3696 49.2312 53.6597 49.3761 53.95C49.3885 53.9749 49.4009 53.9997 49.4137 54.0253C49.5167 54.2318 49.6196 54.4385 49.7225 54.6451C49.8118 54.8246 49.9012 55.004 49.9907 55.1834C50.0031 55.2082 50.0155 55.2331 50.0283 55.2587C50.1607 55.5239 50.2938 55.7885 50.4334 56.05C50.5862 56.3363 50.7312 56.6264 50.8761 56.9167C50.8885 56.9415 50.9009 56.9664 50.9137 56.9919C51.0167 57.1985 51.1196 57.4052 51.2225 57.6118C51.3118 57.7913 51.4012 57.9707 51.4907 58.15C51.5031 58.1749 51.5155 58.1998 51.5283 58.2254C51.6607 58.4906 51.7938 58.7552 51.9334 59.0167C52.0862 59.303 52.2312 59.593 52.3761 59.8834C52.3885 59.9082 52.4009 59.933 52.4137 59.9586C52.5167 60.1652 52.6196 60.3718 52.7225 60.5785C52.8118 60.7579 52.9012 60.9373 52.9907 61.1167C53.0031 61.1416 53.0155 61.1664 53.0283 61.1921C53.1607 61.4573 53.2938 61.7219 53.4334 61.9834C53.5862 62.2696 53.7312 62.5597 53.8761 62.85C53.8885 62.8749 53.9009 62.8997 53.9137 62.9253C54.0167 63.1318 54.1196 63.3385 54.2225 63.5451C54.3118 63.7246 54.4012 63.904 54.4907 64.0834C54.5031 64.1082 54.5155 64.1331 54.5283 64.1587C54.6729 64.4484 54.8195 64.7367 54.9719 65.0224C55.1087 65.28 55.2386 65.5411 55.3688 65.8021C55.3808 65.8262 55.3929 65.8503 55.4053 65.8751C55.5051 66.0754 55.6049 66.2757 55.7046 66.476C55.7912 66.6501 55.8779 66.824 55.9646 66.9979C55.9825 67.0337 55.9825 67.0337 56.0007 67.0703C56.1747 67.4186 56.3524 67.7646 56.5356 68.1081C56.6048 68.2385 56.6715 68.3701 56.7376 68.5021C56.7504 68.5273 56.7632 68.5525 56.7764 68.5785C56.8667 68.7587 56.8667 68.7587 56.8667 68.8334C52.8187 68.8334 48.7707 68.8334 44.6001 68.8334C44.4054 68.4634 44.2116 68.0945 44.0256 67.7203C43.9892 67.6469 43.9526 67.5736 43.916 67.5004C43.8254 67.3186 43.7349 67.1367 43.6443 66.9549C43.5673 66.8001 43.4901 66.6453 43.4129 66.4905C43.3776 66.4197 43.3424 66.3488 43.3072 66.278C43.1862 66.0352 43.0625 65.7943 42.9357 65.5546C42.7846 65.269 42.6386 64.9812 42.4947 64.6919C42.4527 64.6073 42.4105 64.5228 42.3684 64.4383C42.2638 64.2288 42.1594 64.0191 42.0549 63.8094C41.9661 63.6311 41.8772 63.4528 41.7883 63.2746C41.7474 63.1927 41.7067 63.1107 41.6659 63.0288C41.5359 62.7679 41.4036 62.5085 41.2672 62.2509C41.1145 61.9626 40.9672 61.6717 40.8219 61.3796C40.7787 61.2928 40.7355 61.206 40.6922 61.1193C40.5848 60.9041 40.4776 60.6889 40.3704 60.4737C40.2792 60.2907 40.188 60.1077 40.0967 59.9248C40.0547 59.8406 40.0129 59.7565 39.971 59.6723C39.8391 59.4077 39.7051 59.1446 39.5667 58.8834C39.4142 58.5953 39.2671 58.3047 39.1219 58.0129C39.0787 57.9261 39.0355 57.8394 38.9922 57.7526C38.8848 57.5375 38.7776 57.3222 38.6704 57.107C38.5792 56.924 38.488 56.741 38.3967 56.5581C38.3547 56.474 38.3129 56.3898 38.271 56.3056C38.1256 56.0139 37.9768 55.7244 37.8242 55.4364C37.6883 55.179 37.5577 54.9192 37.4281 54.6586C37.386 54.574 37.3439 54.4895 37.3017 54.405C37.1971 54.1954 37.0927 53.9858 36.9883 53.7761C36.8995 53.5978 36.8106 53.4195 36.7216 53.2413C36.6808 53.1594 36.64 53.0774 36.5992 52.9954C36.4692 52.7346 36.3369 52.4752 36.2005 52.2176C36.0478 51.9292 35.9006 51.6384 35.7552 51.3462C35.7121 51.2594 35.6688 51.1727 35.6255 51.0859C35.5182 50.8708 35.4109 50.6556 35.3037 50.4403C35.2126 50.2573 35.1213 50.0744 35.03 49.8914C34.9881 49.8073 34.9462 49.7231 34.9043 49.6389C34.7725 49.3744 34.6384 49.1113 34.5001 48.85C34.3475 48.562 34.2004 48.2714 34.0552 47.9796C34.0121 47.8928 33.9688 47.806 33.9255 47.7193C33.8182 47.5041 33.7109 47.2889 33.6037 47.0737C33.5126 46.8907 33.4213 46.7077 33.33 46.5248C33.2881 46.4406 33.2462 46.3564 33.2043 46.2723C33.0589 45.9806 32.9101 45.6911 32.7576 45.4031C32.6216 45.1457 32.491 44.8858 32.3614 44.6252C32.3194 44.5407 32.2772 44.4562 32.235 44.3717C32.1305 44.1621 32.026 43.9524 31.9216 43.7428C31.8328 43.5645 31.7439 43.3862 31.655 43.2079C31.6141 43.126 31.5733 43.0441 31.5326 42.9621C31.4026 42.7012 31.2703 42.4419 31.1339 42.1843C30.9812 41.8959 30.8339 41.605 30.6886 41.3129C30.6454 41.2261 30.6021 41.1393 30.5588 41.0526C30.4515 40.8375 30.3443 40.6222 30.2371 40.407C30.1459 40.224 30.0547 40.041 29.9634 39.8581C29.9214 39.774 29.8795 39.6898 29.8377 39.6056C29.6775 39.2843 29.5128 38.9657 29.345 38.6483C29.1793 38.3349 29.0192 38.0186 28.8595 37.7021C28.8041 37.5923 28.7484 37.4825 28.6922 37.373C28.6369 37.2651 28.5821 37.1569 28.5277 37.0486C28.5071 37.0078 28.4863 36.9671 28.4654 36.9265C28.4363 36.8702 28.408 36.8135 28.3797 36.7568C28.3635 36.7248 28.3472 36.6928 28.3305 36.6599C28.2741 36.4872 28.3328 36.3511 28.4115 36.1949C28.4277 36.1623 28.444 36.1296 28.4608 36.096C28.4785 36.0611 28.4962 36.0262 28.5145 35.9903C28.5329 35.9536 28.5513 35.9169 28.5703 35.8791C28.6293 35.7616 28.6886 35.6444 28.748 35.5271C28.7868 35.4499 28.8256 35.3726 28.8643 35.2954C29.0259 34.974 29.1884 34.6533 29.3575 34.3358C29.5157 34.0383 29.6663 33.737 29.8167 33.4354C29.8359 33.3971 29.8359 33.3971 29.8554 33.3581C29.9481 33.1721 30.0408 32.9861 30.1334 32.8C30.2389 32.5882 30.3444 32.3764 30.4501 32.1646C30.4628 32.139 30.4756 32.1134 30.4888 32.087C30.635 31.7942 30.783 31.5026 30.9372 31.2139C31.0795 30.9457 31.2145 30.6738 31.3501 30.4021C31.3628 30.3765 31.3756 30.351 31.3887 30.3246C31.4815 30.1387 31.5741 29.9527 31.6667 29.7667C31.7722 29.5548 31.8777 29.343 31.9834 29.1313C31.9962 29.1057 32.009 29.0801 32.0221 29.0537C32.1684 28.7608 32.3163 28.4693 32.4705 28.1805C32.6129 27.9123 32.7478 27.6404 32.8834 27.3688C32.8962 27.3432 32.9089 27.3176 32.9221 27.2913C33.0148 27.1054 33.1075 26.9194 33.2001 26.7334C33.8485 25.431 33.8485 25.431 34.0994 24.9635C34.1381 24.8913 34.1766 24.819 34.215 24.7467C34.2766 24.6311 34.3383 24.5155 34.4001 24.4Z" fill="#020202"/>
<path d="M51.9001 21.9C51.9719 21.9912 52.0281 22.0814 52.0796 22.1853C52.102 22.2303 52.102 22.2303 52.1248 22.2762C52.1408 22.3085 52.1567 22.3408 52.1731 22.3741C52.1899 22.4079 52.2068 22.4418 52.2241 22.4766C52.278 22.585 52.3318 22.6936 52.3855 22.8021C52.4556 22.9435 52.5257 23.0849 52.596 23.2262C52.6136 23.2614 52.6311 23.2967 52.6491 23.3329C52.749 23.533 52.851 23.7317 52.9562 23.9291C53.1123 24.2224 53.2611 24.5193 53.4094 24.8167C53.4218 24.8415 53.4342 24.8663 53.4469 24.8918C53.55 25.0984 53.6529 25.3051 53.7558 25.5118C53.8451 25.6913 53.9345 25.8707 54.024 26.05C54.0364 26.0749 54.0488 26.0997 54.0616 26.1254C54.2063 26.415 54.3528 26.7034 54.5053 26.989C54.642 27.2467 54.7719 27.5078 54.9021 27.7688C54.9142 27.7929 54.9262 27.817 54.9386 27.8418C55.0385 28.042 55.1382 28.2424 55.2379 28.4427C55.3245 28.6167 55.4112 28.7907 55.498 28.9646C55.51 28.9888 55.5221 29.0129 55.5345 29.0378C55.6645 29.2981 55.7953 29.5579 55.9324 29.8146C56.0855 30.1016 56.2309 30.3923 56.3761 30.6834C56.3885 30.7082 56.4009 30.733 56.4137 30.7586C56.5167 30.9652 56.6196 31.1718 56.7225 31.3785C56.8118 31.5579 56.9012 31.7373 56.9907 31.9167C57.0031 31.9416 57.0155 31.9664 57.0283 31.9921C57.1607 32.2573 57.2938 32.5219 57.4334 32.7834C57.5862 33.0696 57.7312 33.3597 57.8761 33.65C57.8885 33.6749 57.9009 33.6997 57.9137 33.7253C58.0167 33.9318 58.1196 34.1385 58.2225 34.3451C58.3118 34.5246 58.4012 34.704 58.4907 34.8834C58.5031 34.9082 58.5155 34.9331 58.5283 34.9587C58.6607 35.2239 58.7938 35.4885 58.9334 35.75C59.0862 36.0363 59.2312 36.3263 59.3761 36.6167C59.3885 36.6415 59.4009 36.6664 59.4137 36.6919C59.5167 36.8985 59.6196 37.1052 59.7225 37.3118C59.8118 37.4913 59.9012 37.6707 59.9907 37.85C60.0031 37.8749 60.0155 37.8998 60.0283 37.9254C60.1607 38.1906 60.2938 38.4552 60.4334 38.7167C60.5862 39.003 60.7312 39.293 60.8761 39.5834C60.8885 39.6082 60.9009 39.633 60.9137 39.6586C61.0167 39.8652 61.1196 40.0718 61.2225 40.2785C61.3118 40.4579 61.4012 40.6373 61.4907 40.8167C61.5031 40.8416 61.5155 40.8664 61.5283 40.8921C61.6607 41.1573 61.7938 41.4219 61.9334 41.6834C62.0862 41.9696 62.2312 42.2597 62.3761 42.55C62.3885 42.5749 62.4009 42.5997 62.4137 42.6253C62.5167 42.8318 62.6196 43.0385 62.7225 43.2451C62.8118 43.4246 62.9012 43.604 62.9907 43.7834C63.0031 43.8082 63.0155 43.8331 63.0283 43.8587C63.1607 44.1239 63.2938 44.3885 63.4334 44.65C63.5862 44.9363 63.7312 45.2263 63.8761 45.5167C63.8885 45.5415 63.9009 45.5664 63.9137 45.5919C64.0167 45.7985 64.1196 46.0052 64.2225 46.2118C64.3118 46.3913 64.4012 46.5707 64.4907 46.75C64.5031 46.7749 64.5155 46.7998 64.5283 46.8254C64.6607 47.0906 64.7938 47.3552 64.9334 47.6167C65.0862 47.903 65.2312 48.193 65.3761 48.4834C65.3885 48.5082 65.4009 48.533 65.4137 48.5586C65.5167 48.7652 65.6196 48.9718 65.7225 49.1785C65.8118 49.3579 65.9012 49.5373 65.9907 49.7167C66.0031 49.7416 66.0155 49.7664 66.0283 49.7921C66.1607 50.0573 66.2938 50.3219 66.4334 50.5834C66.5862 50.8696 66.7312 51.1597 66.8761 51.45C66.8885 51.4749 66.9009 51.4997 66.9137 51.5253C67.0167 51.7318 67.1196 51.9385 67.2225 52.1451C67.3118 52.3246 67.4012 52.504 67.4907 52.6834C67.5031 52.7082 67.5155 52.7331 67.5283 52.7587C67.6607 53.0239 67.7938 53.2885 67.9334 53.55C68.0862 53.8363 68.2312 54.1264 68.3761 54.4167C68.3885 54.4415 68.4009 54.4664 68.4137 54.4919C68.5167 54.6985 68.6196 54.9052 68.7225 55.1118C68.8118 55.2913 68.9012 55.4707 68.9907 55.65C69.0031 55.6749 69.0155 55.6998 69.0283 55.7254C69.1607 55.9906 69.2938 56.2552 69.4334 56.5167C69.5862 56.803 69.7312 57.093 69.8761 57.3834C69.8885 57.4082 69.9009 57.433 69.9137 57.4586C70.0167 57.6652 70.1196 57.8718 70.2225 58.0785C70.3118 58.2579 70.4012 58.4373 70.4907 58.6167C70.5031 58.6416 70.5155 58.6664 70.5283 58.6921C70.6607 58.9573 70.7938 59.2219 70.9334 59.4834C71.0862 59.7696 71.2312 60.0597 71.3761 60.35C71.3885 60.3749 71.4009 60.3997 71.4137 60.4253C71.5167 60.6318 71.6196 60.8385 71.7225 61.0451C71.8118 61.2246 71.9012 61.404 71.9907 61.5834C72.0031 61.6082 72.0155 61.6331 72.0283 61.6587C72.1729 61.9484 72.3195 62.2367 72.4719 62.5224C72.6087 62.78 72.7386 63.0411 72.8688 63.3021C72.8808 63.3262 72.8929 63.3503 72.9053 63.3751C73.0051 63.5754 73.1049 63.7757 73.2046 63.976C73.2912 64.1501 73.3779 64.324 73.4646 64.4979C73.4825 64.5337 73.4825 64.5337 73.5007 64.5703C73.6747 64.9186 73.8524 65.2646 74.0356 65.6081C74.1048 65.7385 74.1715 65.8701 74.2376 66.0021C74.2504 66.0273 74.2632 66.0525 74.2764 66.0785C74.3667 66.2587 74.3667 66.2587 74.3667 66.3334C70.3187 66.3334 66.2707 66.3334 62.1001 66.3334C61.9054 65.9634 61.7116 65.5945 61.5256 65.2203C61.4892 65.1469 61.4526 65.0736 61.416 65.0004C61.3254 64.8186 61.2349 64.6367 61.1443 64.4549C61.0673 64.3001 60.9901 64.1453 60.9129 63.9905C60.8776 63.9197 60.8424 63.8488 60.8072 63.778C60.6862 63.5352 60.5625 63.2943 60.4357 63.0546C60.2846 62.769 60.1386 62.4812 59.9947 62.1919C59.9527 62.1073 59.9105 62.0228 59.8684 61.9383C59.7638 61.7288 59.6594 61.5191 59.5549 61.3094C59.4661 61.1311 59.3772 60.9528 59.2883 60.7746C59.2474 60.6927 59.2067 60.6107 59.1659 60.5288C59.0359 60.2679 58.9036 60.0085 58.7672 59.7509C58.6145 59.4626 58.4672 59.1717 58.3219 58.8796C58.2787 58.7928 58.2355 58.706 58.1922 58.6193C58.0848 58.4041 57.9776 58.1889 57.8704 57.9737C57.7792 57.7907 57.688 57.6077 57.5967 57.4248C57.5547 57.3406 57.5129 57.2565 57.471 57.1723C57.3391 56.9077 57.2051 56.6446 57.0667 56.3834C56.9142 56.0953 56.7671 55.8047 56.6219 55.5129C56.5787 55.4261 56.5355 55.3394 56.4922 55.2526C56.3848 55.0375 56.2776 54.8222 56.1704 54.607C56.0792 54.424 55.988 54.241 55.8967 54.0581C55.8547 53.974 55.8129 53.8898 55.771 53.8056C55.6256 53.5139 55.4768 53.2244 55.3242 52.9364C55.1883 52.679 55.0577 52.4192 54.9281 52.1586C54.886 52.074 54.8439 51.9895 54.8017 51.905C54.6971 51.6954 54.5927 51.4858 54.4883 51.2761C54.3995 51.0978 54.3106 50.9195 54.2216 50.7413C54.1808 50.6594 54.14 50.5774 54.0992 50.4954C53.9692 50.2346 53.8369 49.9752 53.7005 49.7176C53.5478 49.4292 53.4006 49.1384 53.2552 48.8462C53.2121 48.7594 53.1688 48.6727 53.1255 48.5859C53.0182 48.3708 52.9109 48.1556 52.8037 47.9403C52.7126 47.7573 52.6213 47.5744 52.53 47.3914C52.4881 47.3073 52.4462 47.2231 52.4043 47.1389C52.2725 46.8744 52.1384 46.6113 52.0001 46.35C51.8475 46.062 51.7004 45.7714 51.5552 45.4796C51.5121 45.3928 51.4688 45.306 51.4255 45.2193C51.3182 45.0041 51.2109 44.7889 51.1037 44.5737C51.0126 44.3907 50.9213 44.2077 50.83 44.0248C50.7881 43.9406 50.7462 43.8564 50.7043 43.7723C50.5589 43.4806 50.4101 43.1911 50.2576 42.9031C50.1216 42.6457 49.991 42.3858 49.8614 42.1252C49.8194 42.0407 49.7772 41.9562 49.735 41.8717C49.6305 41.6621 49.526 41.4524 49.4216 41.2428C49.3328 41.0645 49.2439 40.8862 49.155 40.7079C49.1141 40.626 49.0733 40.5441 49.0326 40.4621C48.9026 40.2012 48.7703 39.9419 48.6339 39.6843C48.4812 39.3959 48.3339 39.105 48.1886 38.8129C48.1454 38.7261 48.1021 38.6393 48.0588 38.5526C47.9515 38.3375 47.8443 38.1222 47.7371 37.907C47.6459 37.724 47.5547 37.541 47.4634 37.3581C47.4214 37.274 47.3795 37.1898 47.3377 37.1056C47.1775 36.7843 47.0128 36.4657 46.845 36.1483C46.6793 35.8349 46.5192 35.5186 46.3595 35.2021C46.3041 35.0923 46.2484 34.9825 46.1922 34.873C46.1369 34.7651 46.0821 34.6569 46.0277 34.5486C46.0071 34.5078 45.9863 34.4671 45.9654 34.4265C45.9363 34.3702 45.908 34.3135 45.8797 34.2568C45.8635 34.2248 45.8472 34.1928 45.8305 34.1599C45.7741 33.9872 45.8328 33.8511 45.9115 33.6949C45.9277 33.6623 45.944 33.6296 45.9608 33.596C45.9785 33.5611 45.9962 33.5262 46.0145 33.4903C46.0329 33.4536 46.0513 33.4169 46.0703 33.3791C46.1293 33.2616 46.1886 33.1444 46.248 33.0271C46.2868 32.9499 46.3256 32.8726 46.3643 32.7954C46.5259 32.474 46.6884 32.1533 46.8575 31.8358C47.0157 31.5383 47.1663 31.237 47.3167 30.9354C47.3359 30.8971 47.3359 30.8971 47.3554 30.8581C47.4481 30.6721 47.5408 30.4861 47.6334 30.3C47.7389 30.0882 47.8444 29.8764 47.9501 29.6646C47.9628 29.639 47.9756 29.6134 47.9888 29.587C48.135 29.2942 48.283 29.0026 48.4372 28.7139C48.5795 28.4457 48.7145 28.1738 48.8501 27.9021C48.8628 27.8765 48.8756 27.851 48.8887 27.8246C48.9815 27.6387 49.0741 27.4527 49.1667 27.2667C49.2722 27.0548 49.3777 26.843 49.4834 26.6313C49.4962 26.6057 49.509 26.5801 49.5221 26.5537C49.6684 26.2608 49.8163 25.9693 49.9705 25.6805C50.1129 25.4123 50.2478 25.1404 50.3834 24.8688C50.3962 24.8432 50.4089 24.8176 50.4221 24.7913C50.5148 24.6054 50.6075 24.4194 50.7001 24.2334C51.3485 22.931 51.3485 22.931 51.5994 22.4635C51.6381 22.3913 51.6766 22.319 51.715 22.2467C51.7766 22.1311 51.8383 22.0155 51.9001 21.9Z" fill="#020202"/>
<path d="M63.8333 24.3334C67.4413 24.3334 71.0493 24.3334 74.7666 24.3334C74.7666 37.8744 74.7666 51.4154 74.7666 65.3667C74.7446 65.3667 74.7226 65.3667 74.7 65.3667C74.7 65.3227 74.7 65.2787 74.7 65.2334C74.678 65.2334 74.656 65.2334 74.6333 65.2334C74.6223 65.1784 74.6113 65.1234 74.6 65.0667C74.589 65.0667 74.578 65.0667 74.5666 65.0667C74.5666 65.0117 74.5666 64.9567 74.5666 64.9C74.5226 64.889 74.4786 64.878 74.4333 64.8667C74.4333 64.8117 74.4333 64.7567 74.4333 64.7C74.4113 64.7 74.3893 64.7 74.3666 64.7C74.3065 64.5724 74.2934 64.474 74.3 64.3334C74.256 64.3334 74.212 64.3334 74.1666 64.3334C74.1666 64.2894 74.1666 64.2454 74.1666 64.2C74.1446 64.189 74.1226 64.178 74.1 64.1667C74.1 64.1117 74.1 64.0567 74.1 64C74.078 64 74.056 64 74.0333 64C74.0333 63.934 74.0333 63.868 74.0333 63.8C74.0003 63.8 73.9673 63.8 73.9333 63.8C73.9333 63.767 73.9333 63.734 73.9333 63.7C73.9003 63.689 73.8673 63.678 73.8333 63.6667C73.8333 63.6007 73.8333 63.5347 73.8333 63.4667C73.8113 63.4667 73.7893 63.4667 73.7666 63.4667C73.7556 63.4007 73.7446 63.3347 73.7333 63.2667C73.7113 63.2667 73.6893 63.2667 73.6666 63.2667C73.6666 63.2337 73.6666 63.2007 73.6666 63.1667C73.6336 63.1557 73.6006 63.1447 73.5666 63.1334C73.5666 63.0674 73.5666 63.0014 73.5666 62.9334C73.5446 62.9334 73.5226 62.9334 73.5 62.9334C73.5 62.8894 73.5 62.8454 73.5 62.8C73.478 62.8 73.456 62.8 73.4333 62.8C73.4299 62.7739 73.4264 62.7478 73.4229 62.7209C73.4074 62.6224 73.4074 62.6224 73.3 62.5667C73.2596 62.4793 73.2304 62.3914 73.2 62.3C73.211 62.278 73.222 62.256 73.2333 62.2334C73.2003 62.2334 73.1673 62.2334 73.1333 62.2334C73.1285 62.2072 73.1237 62.1811 73.1187 62.1542C73.104 62.0679 73.104 62.0679 73.0666 62C73.0446 61.989 73.0226 61.978 73 61.9667C73.011 61.9557 73.022 61.9447 73.0333 61.9334C73.0003 61.9114 72.9673 61.8894 72.9333 61.8667C72.9333 61.8227 72.9333 61.7787 72.9333 61.7334C72.9113 61.7224 72.8893 61.7114 72.8666 61.7C72.8666 61.656 72.8666 61.612 72.8666 61.5667C72.8446 61.5667 72.8226 61.5667 72.8 61.5667C72.8 61.5007 72.8 61.4347 72.8 61.3667C72.756 61.3667 72.712 61.3667 72.6666 61.3667C72.6666 61.3007 72.6666 61.2347 72.6666 61.1667C72.6446 61.1667 72.6226 61.1667 72.6 61.1667C72.6 61.1227 72.6 61.0787 72.6 61.0334C72.578 61.0334 72.556 61.0334 72.5333 61.0334C72.5299 61.0072 72.5264 60.9811 72.5229 60.9542C72.5074 60.8557 72.5074 60.8557 72.4 60.8C72.341 60.6853 72.326 60.5949 72.3333 60.4667C72.3113 60.4667 72.2893 60.4667 72.2666 60.4667C72.2666 60.4227 72.2666 60.3787 72.2666 60.3334C72.2336 60.3224 72.2006 60.3114 72.1666 60.3C72.1556 60.245 72.1446 60.19 72.1333 60.1334C72.1113 60.1334 72.0893 60.1334 72.0666 60.1334C72.0227 60.0127 72 59.9302 72 59.8C71.967 59.8 71.934 59.8 71.9 59.8C71.889 59.734 71.878 59.668 71.8666 59.6C71.8446 59.6 71.8226 59.6 71.8 59.6C71.8 59.556 71.8 59.512 71.8 59.4667C71.778 59.4667 71.756 59.4667 71.7333 59.4667C71.7004 59.3877 71.6693 59.3132 71.652 59.2292C71.6377 59.1627 71.6377 59.1627 71.5812 59.1167C71.5333 59.0667 71.5333 59.0667 71.5333 58.9334C71.5113 58.9334 71.4893 58.9334 71.4666 58.9334C71.4666 58.8894 71.4666 58.8454 71.4666 58.8C71.4446 58.8 71.4226 58.8 71.4 58.8C71.389 58.734 71.378 58.668 71.3666 58.6C71.3336 58.589 71.3006 58.578 71.2666 58.5667C71.2479 58.5063 71.2479 58.5063 71.2333 58.4334C71.1957 58.3482 71.1666 58.3 71.1 58.2334C71.0875 58.1781 71.0764 58.1225 71.0666 58.0667C71.0388 57.9945 71.0388 57.9945 70.9666 57.9667C70.9886 57.9667 71.0106 57.9667 71.0333 57.9667C71.0333 57.9447 71.0333 57.9227 71.0333 57.9C70.9893 57.9 70.9453 57.9 70.9 57.9C70.9 57.834 70.9 57.768 70.9 57.7C70.878 57.7 70.856 57.7 70.8333 57.7C70.8333 57.656 70.8333 57.612 70.8333 57.5667C70.8113 57.5667 70.7893 57.5667 70.7666 57.5667C70.7666 57.5007 70.7666 57.4347 70.7666 57.3667C70.7226 57.3667 70.6786 57.3667 70.6333 57.3667C70.6333 57.3007 70.6333 57.2347 70.6333 57.1667C70.6113 57.1667 70.5893 57.1667 70.5666 57.1667C70.5666 57.1227 70.5666 57.0787 70.5666 57.0334C70.5446 57.0334 70.5226 57.0334 70.5 57.0334C70.5 56.9674 70.5 56.9014 70.5 56.8334C70.4791 56.831 70.4583 56.8286 70.4368 56.8261C70.3666 56.8 70.3666 56.8 70.3329 56.7323C70.3255 56.7052 70.318 56.678 70.3104 56.65C70.2877 56.5494 70.2877 56.5494 70.2333 56.4667C70.2319 56.4112 70.2319 56.3556 70.2333 56.3C70.1893 56.289 70.1453 56.278 70.1 56.2667C70.111 56.2227 70.122 56.1787 70.1333 56.1334C70.1003 56.1334 70.0673 56.1334 70.0333 56.1334C70.0333 56.0674 70.0333 56.0014 70.0333 55.9334C70.0113 55.9334 69.9893 55.9334 69.9666 55.9334C69.9666 55.8894 69.9666 55.8454 69.9666 55.8C69.9336 55.789 69.9006 55.778 69.8666 55.7667C69.8666 55.7227 69.8666 55.6787 69.8666 55.6334C69.8336 55.6224 69.8006 55.6114 69.7666 55.6C69.7666 55.534 69.7666 55.468 69.7666 55.4C69.7446 55.4 69.7226 55.4 69.7 55.4C69.7 55.356 69.7 55.312 69.7 55.2667C69.678 55.2667 69.656 55.2667 69.6333 55.2667C69.6223 55.2007 69.6113 55.1347 69.6 55.0667C69.567 55.0667 69.534 55.0667 69.5 55.0667C69.4561 54.946 69.4333 54.8635 69.4333 54.7334C69.4113 54.7334 69.3893 54.7334 69.3666 54.7334C69.3666 54.6894 69.3666 54.6454 69.3666 54.6C69.3446 54.6 69.3226 54.6 69.3 54.6C69.1843 54.5075 69.1749 54.4177 69.152 54.2771C69.1428 54.239 69.1428 54.239 69.1333 54.2C69.1113 54.189 69.0893 54.178 69.0666 54.1667C69.0666 54.1227 69.0666 54.0787 69.0666 54.0334C69.0446 54.0334 69.0226 54.0334 69 54.0334C68.978 53.9894 68.956 53.9454 68.9333 53.9C68.9443 53.889 68.9553 53.878 68.9666 53.8667C68.9336 53.8557 68.9006 53.8447 68.8666 53.8334C68.8556 53.7784 68.8446 53.7234 68.8333 53.6667C68.8223 53.6667 68.8113 53.6667 68.8 53.6667C68.8 53.6117 68.8 53.5567 68.8 53.5C68.778 53.5 68.756 53.5 68.7333 53.5C68.7333 53.456 68.7333 53.412 68.7333 53.3667C68.7113 53.3667 68.6893 53.3667 68.6666 53.3667C68.6666 53.3447 68.6666 53.3227 68.6666 53.3C68.6446 53.3 68.6226 53.3 68.6 53.3C68.6 53.256 68.6 53.212 68.6 53.1667C68.578 53.1667 68.556 53.1667 68.5333 53.1667C68.5333 53.1007 68.5333 53.0347 68.5333 52.9667C68.5113 52.9667 68.4893 52.9667 68.4666 52.9667C68.4666 52.9227 68.4666 52.8787 68.4666 52.8334C68.446 52.8258 68.4254 52.8182 68.4041 52.8105C68.3102 52.7524 68.296 52.7052 68.2666 52.6C68.2625 52.5063 68.2625 52.5063 68.2666 52.4334C68.2446 52.4334 68.2226 52.4334 68.2 52.4334C68.2 52.3894 68.2 52.3454 68.2 52.3C68.167 52.3 68.134 52.3 68.1 52.3C68 52.0834 68 52.0834 68 51.9334C67.978 51.9334 67.956 51.9334 67.9333 51.9334C67.9292 51.9127 67.925 51.8921 67.9208 51.8709C67.9042 51.7937 67.9042 51.7937 67.8333 51.7334C67.8333 51.6894 67.8333 51.6454 67.8333 51.6C67.8003 51.589 67.7673 51.578 67.7333 51.5667C67.6764 51.456 67.6666 51.3939 67.6666 51.2667C67.6446 51.2667 67.6226 51.2667 67.6 51.2667C67.5835 51.1677 67.5835 51.1677 67.5666 51.0667C67.5336 51.0667 67.5006 51.0667 67.4666 51.0667C67.4227 50.946 67.4 50.8635 67.4 50.7334C67.378 50.7334 67.356 50.7334 67.3333 50.7334C67.3333 50.6894 67.3333 50.6454 67.3333 50.6C67.3127 50.5925 67.292 50.5849 67.2708 50.5771C67.1774 50.5195 67.1668 50.4697 67.1333 50.3667C67.1216 50.3385 67.1099 50.3103 67.0979 50.2813C67.0666 50.2 67.0666 50.2 67.05 50.125C67.0445 50.1058 67.039 50.0865 67.0333 50.0667C67.0113 50.0557 66.9893 50.0447 66.9666 50.0334C66.9666 49.9674 66.9666 49.9014 66.9666 49.8334C66.9226 49.8334 66.8786 49.8334 66.8333 49.8334C66.8333 49.7784 66.8333 49.7234 66.8333 49.6667C66.8113 49.6667 66.7893 49.6667 66.7666 49.6667C66.7666 49.6117 66.7666 49.5567 66.7666 49.5C66.7446 49.5 66.7226 49.5 66.7 49.5C66.667 49.401 66.667 49.401 66.6333 49.3C66.6113 49.3 66.5893 49.3 66.5666 49.3C66.5666 49.267 66.5666 49.234 66.5666 49.2C66.5446 49.189 66.5226 49.178 66.5 49.1667C66.5 49.1007 66.5 49.0347 66.5 48.9667C66.478 48.9667 66.456 48.9667 66.4333 48.9667C66.4333 48.9227 66.4333 48.8787 66.4333 48.8334C66.4113 48.8334 66.3893 48.8334 66.3666 48.8334C66.3666 48.8114 66.3666 48.7894 66.3666 48.7667C66.3446 48.7667 66.3226 48.7667 66.3 48.7667C66.2965 48.7495 66.2931 48.7323 66.2895 48.7146C66.2666 48.6257 66.2666 48.6257 66.2145 48.5167C66.1666 48.4 66.1666 48.4 66.1666 48.2667C66.1336 48.2557 66.1006 48.2447 66.0666 48.2334C66.0542 48.1893 66.0431 48.1448 66.0333 48.1C66.0113 48.089 65.9893 48.078 65.9666 48.0667C65.9091 47.9516 65.8926 47.8614 65.9 47.7334C65.878 47.7334 65.856 47.7334 65.8333 47.7334C65.8237 47.7066 65.814 47.6797 65.8041 47.6521C65.7755 47.5623 65.7755 47.5623 65.7 47.5334C65.7 47.4894 65.7 47.4454 65.7 47.4C65.678 47.4 65.656 47.4 65.6333 47.4C65.6333 47.334 65.6333 47.268 65.6333 47.2C65.6003 47.211 65.5673 47.222 65.5333 47.2334C65.5498 47.1509 65.5498 47.1509 65.5666 47.0667C65.5336 47.0667 65.5006 47.0667 65.4666 47.0667C65.4501 46.9677 65.4501 46.9677 65.4333 46.8667C65.4113 46.8667 65.3893 46.8667 65.3666 46.8667C65.3227 46.746 65.3 46.6635 65.3 46.5334C65.267 46.5224 65.234 46.5114 65.2 46.5C65.1766 46.445 65.1543 46.3894 65.1333 46.3334C65.1113 46.3224 65.0893 46.3114 65.0666 46.3C65.0666 46.245 65.0666 46.19 65.0666 46.1334C65.0446 46.1334 65.0226 46.1334 65 46.1334C64.984 46.091 64.968 46.0487 64.952 46.0063C64.9431 45.9827 64.9343 45.9591 64.9251 45.9348C64.9045 45.8791 64.8854 45.823 64.8666 45.7667C64.8446 45.7667 64.8226 45.7667 64.8 45.7667C64.8 45.7227 64.8 45.6787 64.8 45.6334C64.778 45.6334 64.756 45.6334 64.7333 45.6334C64.6635 45.52 64.6606 45.4316 64.6666 45.3C64.6226 45.289 64.5786 45.278 64.5333 45.2667C64.5333 45.2117 64.5333 45.1567 64.5333 45.1C64.5113 45.1 64.4893 45.1 64.4666 45.1C64.4666 45.056 64.4666 45.012 64.4666 44.9667C64.4446 44.9667 64.4226 44.9667 64.4 44.9667C64.3965 44.9413 64.3931 44.9158 64.3895 44.8896C64.3749 44.8002 64.3749 44.8002 64.3197 44.7537C64.2577 44.691 64.2292 44.6327 64.1937 44.5521C64.1822 44.5267 64.1708 44.5013 64.1589 44.4752C64.1333 44.4 64.1333 44.4 64.1333 44.2667C64.1003 44.2667 64.0673 44.2667 64.0333 44.2667C64.0292 44.2399 64.025 44.2131 64.0208 44.1855C64.0139 44.1573 64.007 44.1291 64 44.1C63.978 44.089 63.956 44.078 63.9333 44.0667C63.8371 43.8462 63.8189 43.6267 63.821 43.3894C63.8208 43.3397 63.8208 43.3397 63.8206 43.289C63.8204 43.1782 63.8208 43.0675 63.8213 42.9568C63.8212 42.8765 63.8211 42.7962 63.821 42.7159C63.8208 42.5414 63.821 42.367 63.8214 42.1926C63.822 41.9332 63.822 41.6738 63.8219 41.4144C63.8218 40.9781 63.8221 40.5417 63.8227 40.1053C63.8233 39.6734 63.8237 39.2414 63.8238 38.8094C63.8238 38.7825 63.8238 38.7557 63.8238 38.728C63.8239 38.5915 63.8239 38.455 63.8239 38.3186C63.8241 37.3523 63.8248 36.386 63.8257 35.4197C63.8267 34.481 63.8274 33.5423 63.8278 32.6036C63.8278 32.5446 63.8279 32.4856 63.8279 32.4265C63.8281 31.9468 63.8283 31.467 63.8285 30.9873C63.8294 28.7693 63.8314 26.5513 63.8333 24.3334Z" fill="#020202"/>
<path d="M23.0793 55.0208C23.1068 55.0208 23.1343 55.0208 23.1627 55.0209C25.0144 55.0273 26.6331 55.7783 27.9668 57.0333C27.9887 57.0538 28.0107 57.0744 28.0333 57.0955C28.205 57.2612 28.3533 57.4456 28.5001 57.6333C28.5144 57.6515 28.5287 57.6697 28.5434 57.6885C29.6748 59.1451 30.1202 60.9768 29.9134 62.7978C29.7667 63.9266 29.3418 65.0165 28.6668 65.9333C28.6517 65.9539 28.6366 65.9745 28.6211 65.9958C28.0576 66.7595 27.3551 67.3989 26.5279 67.8655C26.4877 67.8882 26.4476 67.9111 26.4076 67.9343C25.4118 68.5116 24.2521 68.774 23.1084 68.7749C23.0721 68.775 23.0721 68.775 23.0349 68.775C22.6167 68.7744 22.2114 68.7478 21.8001 68.6666C21.7711 68.6609 21.7421 68.6552 21.7123 68.6493C20.4899 68.399 19.3921 67.8471 18.4745 67.0014C18.4059 66.9386 18.3358 66.8786 18.2647 66.8187C17.0909 65.7876 16.3802 64.1324 16.2334 62.5999C16.2281 62.4989 16.2265 62.3981 16.2255 62.2969C16.2252 62.2685 16.2248 62.24 16.2245 62.2107C16.2188 61.5849 16.2204 60.9788 16.3668 60.3666C16.3739 60.3365 16.3811 60.3064 16.3884 60.2753C16.8245 58.5006 17.9402 56.9783 19.4876 56.0145C20.5848 55.3503 21.7998 55.0174 23.0793 55.0208Z" fill="#020202"/>
<path d="M77.2666 24.3334C81.7216 24.3334 86.1766 24.3334 90.7666 24.3334C90.7666 28.0514 90.7666 31.7694 90.7666 35.6C90.6489 35.5412 90.5688 35.4853 90.4687 35.4021C90.4364 35.3754 90.4041 35.3486 90.3709 35.321C90.245 35.2155 90.1197 35.1093 89.9945 35.003C89.8806 34.9063 89.7658 34.811 89.6499 34.7167C89.4965 34.5918 89.3453 34.4644 89.1945 34.3362C89.0806 34.2396 88.9658 34.1443 88.8499 34.05C88.6965 33.9251 88.5453 33.7977 88.3945 33.6696C88.2806 33.573 88.1658 33.4777 88.0499 33.3834C87.8964 33.2584 87.7452 33.131 87.5944 33.0028C87.4813 32.9069 87.3672 32.8123 87.252 32.7188C87.0899 32.5869 86.9314 32.4512 86.7731 32.3148C86.6259 32.1883 86.4765 32.0649 86.3258 31.9426C86.2218 31.8573 86.1191 31.7705 86.0166 31.6834C85.8843 31.5709 85.7513 31.4596 85.6166 31.35C85.4631 31.2251 85.3119 31.0977 85.1611 30.9696C85.0472 30.873 84.9324 30.7777 84.8166 30.6834C84.6631 30.5584 84.5119 30.431 84.3611 30.3029C84.2472 30.2063 84.1324 30.111 84.0166 30.0167C83.8631 29.8918 83.7119 29.7643 83.5611 29.6362C83.448 29.5402 83.3338 29.4456 83.2187 29.3521C83.0566 29.2202 82.898 29.0846 82.7397 28.9482C82.5926 28.8217 82.4432 28.6983 82.2925 28.576C82.1885 28.4906 82.0858 28.4038 81.9833 28.3167C81.851 28.2043 81.7179 28.093 81.5833 27.9834C81.4298 27.8584 81.2786 27.731 81.1278 27.6029C81.0139 27.5063 80.8991 27.411 80.7833 27.3167C80.6298 27.1918 80.4786 27.0644 80.3278 26.9362C80.2139 26.8396 80.0991 26.7443 79.9833 26.65C79.8298 26.5251 79.6785 26.3977 79.5277 26.2695C79.4146 26.1735 79.3005 26.079 79.1854 25.9855C79.0233 25.8536 78.8647 25.7179 78.7064 25.5815C78.5593 25.455 78.4098 25.3316 78.2592 25.2093C78.1551 25.124 78.0525 25.0372 77.9499 24.95C77.6185 24.6616 77.6185 24.6616 77.2666 24.4C77.2666 24.378 77.2666 24.356 77.2666 24.3334Z" fill="#020202"/>
<path d="M20.2739 85L19.9026 83.9019H17.6274L17.2561 85H16.1185L18.1093 79.47H19.4207L21.4115 85H20.2739ZM17.9513 82.946H19.5787L18.765 80.5523L17.9513 82.946ZM28.706 79.47H29.8515V85H28.7771V81.3344L27.126 84.0125H26.7705L25.1115 81.3344V85H24.045V79.47H25.1826L26.9443 82.314L28.706 79.47ZM36.6408 85L36.2695 83.9019H33.9943L33.623 85H32.4854L34.4762 79.47H35.7876L37.7784 85H36.6408ZM34.3182 82.946H35.9456L35.1319 80.5523L34.3182 82.946ZM41.5574 84.0046H44.2197V85H40.1749V84.1468L42.8372 80.4654H40.3171V79.47H44.1486V80.3232L41.5574 84.0046ZM47.01 79.47H48.0765V85H47.01V79.47ZM54.5214 79.47H55.5958V85H54.6241L52.1751 81.3423V85H51.1007V79.47H52.0724L54.5214 83.1277V79.47Z" fill="#020202"/>
<path d="M66.1685 79.47V80.4654H64.8413V85H63.7669V80.4654H62.4397V79.47H66.1685ZM73.3192 85H72.0947L70.9571 83.0092C70.9334 83.0092 70.9018 83.0092 70.8702 83.0092H70.0249V85H68.9584V79.47H70.8702C72.1105 79.47 72.9321 80.2284 72.9321 81.2791C72.9321 81.9743 72.5608 82.5115 71.9604 82.788L73.3192 85ZM70.0249 80.4654V82.0849H70.8702C71.4232 82.0849 71.834 81.8321 71.834 81.2791C71.834 80.7814 71.4706 80.4654 70.8702 80.4654H70.0249ZM75.9499 79.47H77.0164V85H75.9499V79.47ZM81.8892 79.47C83.2085 79.47 84.0143 80.2363 84.0143 81.3818C84.0143 82.5273 83.2085 83.2857 81.8892 83.2857H81.115V85H80.0406V79.47H81.8892ZM81.8892 82.2903C82.5449 82.2903 82.9241 81.9585 82.9241 81.3818C82.9241 80.7972 82.5449 80.4654 81.8892 80.4654H81.115V82.2903H81.8892ZM88.9119 81.8242C90.2233 82.1244 90.6973 82.5036 90.6973 83.3963C90.6973 84.2574 90.0811 85.1027 88.6354 85.1027C87.6005 85.1027 86.6762 84.6761 86.4076 83.7597L87.4425 83.4358C87.5215 83.7518 87.8533 84.1626 88.6275 84.1626C89.1805 84.1626 89.6229 83.9493 89.6229 83.4753C89.6229 82.9223 88.9988 82.8828 88.1219 82.6695C87.008 82.393 86.6367 81.8321 86.6367 81.0658C86.6367 80.023 87.4346 79.3752 88.588 79.3752C89.5123 79.3752 90.2391 79.8334 90.4761 80.6787L89.4333 80.9315C89.3701 80.6392 89.0857 80.3153 88.5327 80.3153C88.0745 80.3153 87.6953 80.5523 87.6953 80.9947C87.6953 81.6188 88.3984 81.7057 88.9119 81.8242Z" fill="black"/>
</g>
<defs>
<filter id="filter0_d_328_14272" x="0" y="0" width="108" height="108" filterUnits="userSpaceOnUse" color-interpolation-filters="sRGB">
<feFlood flood-opacity="0" result="BackgroundImageFix"/>
<feColorMatrix in="SourceAlpha" type="matrix" values="0 0 0 0 0 0 0 0 0 0 0 0 0 0 0 0 0 0 127 0" result="hardAlpha"/>
<feOffset dy="4"/>
<feGaussianBlur stdDeviation="2"/>
<feComposite in2="hardAlpha" operator="out"/>
<feColorMatrix type="matrix" values="0 0 0 0 0 0 0 0 0 0 0 0 0 0 0 0 0 0 0.25 0"/>
<feBlend mode="normal" in2="BackgroundImageFix" result="effect1_dropShadow_328_14272"/>
<feBlend mode="normal" in="SourceGraphic" in2="effect1_dropShadow_328_14272" result="shape"/>
</filter>
<clipPath id="clip0_328_14272">
<rect width="100" height="100" fill="white" transform="translate(4)"/>
</clipPath>
</defs>
</svg>
