<svg xmlns="http://www.w3.org/2000/svg" viewBox="0 0 49.61 49.61">
    <defs>
        <style>.cls-1,.cls-2{fill:#000;}.cls-2{fill-rule:evenodd;}</style>
    </defs>
    <g id="Layer_2" data-name="Layer 2">
        <g id="Layer_1-2" data-name="Layer 1">
            <path class="cls-2"
                  d="M24.13,0a24.13,24.13,0,0,0-21,36s.41,7.3-2.65,11.74A1.2,1.2,0,0,0,1.52,49.6a50.08,50.08,0,0,0,13.87-3h0A24.13,24.13,0,1,0,24.13,0Zm11.1,37.63a17.37,17.37,0,1,1-3.08-29,17.67,17.67,0,0,1,6,5,2.43,2.43,0,0,1-.23,3.19l-.11.11-.4.4L36,18.71,31.74,23l-6.19,6.18a2.41,2.41,0,0,1-3.41,0l-3.92-3.92a2.41,2.41,0,0,1,3.41-3.41L23.85,24l9-9a12.55,12.55,0,1,0-8.59,21.69,12.36,12.36,0,0,0,7.88-2.79,12.61,12.61,0,0,0,4.36-7A2.41,2.41,0,1,1,41.25,28,17.39,17.39,0,0,1,35.23,37.63Z"/>
        </g>
    </g>
</svg>
