<svg width="96" height="41" viewBox="0 0 96 41" fill="none" xmlns="http://www.w3.org/2000/svg">
<path d="M11.8854 0.708262L3.12881 7.02221C2.74597 7.29827 2.70603 7.82043 3.03724 8.14825C7.07798 12.152 14.6139 13.0492 19.0102 9.94808C19.4973 9.60392 19.4359 8.89651 18.8885 8.64406C16.1463 7.38182 14.4766 4.44869 13.3505 1.13052C13.1547 0.553886 12.3987 0.33777 11.8854 0.708262Z" fill="#15C463"/>
<path d="M29.5894 3.983C28.8598 5.39145 25.7269 11.1851 19.0404 13.3418C18.1014 13.6451 18.1618 14.9019 19.1281 15.1189C24.3446 16.2922 35.7489 16.6363 37.6494 11.3839C37.7527 11.0979 37.9271 10.8318 37.7059 10.6175L29.9274 3.9267C29.8261 3.82772 29.6547 3.85587 29.5894 3.98391V3.983Z" fill="#15C463"/>
<path d="M22.0986 34.4236C26.8798 34.2719 30.6066 30.0669 30.4227 25.0314C30.2388 19.996 26.2138 16.037 21.4326 16.1888C16.6515 16.3405 12.9247 20.5455 13.1086 25.581C13.2925 30.6163 17.3174 34.5753 22.0986 34.4236Z" fill="#A9E00B"/>
<path d="M38.8632 9.31337L27.756 0.394118C27.3556 0.0653888 26.7702 0.0399621 26.3328 0.331459C26.1662 0.443154 26.0318 0.606601 25.9441 0.803657C25.7522 1.23863 25.4999 1.80982 25.4385 1.95421C25.4142 2.00688 25.3869 2.06227 25.3528 2.12947C25.3158 2.20302 25.2797 2.27567 25.2534 2.33379C24.0202 4.90005 21.8995 7.09127 19.2819 8.50517C18.6819 8.8339 18.0555 9.12086 17.3697 9.37966C15.6718 10.0062 13.8832 10.3232 12.0548 10.3232C9.54442 10.3232 7.08666 9.71111 4.92407 8.55239L11.3349 4.29345C12.0801 5.67375 13.0328 6.95325 14.1687 8.10107C14.497 8.43343 15.0434 8.4861 15.439 8.22366L16.604 7.45179C16.7102 7.38186 16.7911 7.30558 16.8505 7.22022C17.0999 6.86334 17.058 6.40022 16.7462 6.0951C15.5188 4.89097 14.5486 3.50159 13.8638 1.96874C13.74 1.68087 13.4673 1.06337 13.2569 0.58844C13.1682 0.389577 13.027 0.231569 12.8468 0.132587C12.5 -0.0572038 12.084 -0.0426742 11.7606 0.172543L10.2146 1.19958V1.21775L1.63829 6.92328L0.513156 7.65974C0.274492 7.81593 0.105964 8.03478 0.0387483 8.27542C-0.0742521 8.68043 0.0640771 9.09906 0.399182 9.36876C0.779097 9.67388 1.17265 9.96266 1.56718 10.2251C4.61916 12.3255 8.24589 13.4352 12.0558 13.4352C14.8184 13.4352 17.4788 12.8522 19.9638 11.7044C20.6467 11.3947 21.3335 11.0206 22.066 10.5584C24.5374 8.98918 26.551 6.86153 27.906 4.39334L34.4912 10.0843C32.2974 11.2857 29.7978 11.9196 27.2407 11.9196C25.2106 11.9196 23.2525 12.2302 21.427 12.8404C17.9152 13.9619 14.795 16.1567 12.6383 19.0236C12.6383 19.0236 12.5662 19.1207 12.4591 19.2733C12.3704 19.3968 12.2837 19.5221 12.1999 19.6447C11.8288 20.1887 11.5638 20.6236 11.4128 20.9387C11.3407 21.0568 11.294 21.1667 11.2511 21.2657C10.6773 22.6423 10.3861 24.0989 10.3861 25.5963C10.3861 27.2763 10.7436 28.8673 11.4489 30.3257V30.3447L11.5161 30.48C13.2929 34.0488 16.7726 36.2655 20.598 36.2655C26.2285 36.2655 30.809 31.4789 30.809 25.5963C30.809 24.3214 30.5917 23.0591 30.1631 21.8405C29.8553 20.9987 29.4568 20.2114 28.9776 19.5012C28.8841 19.3623 28.7594 19.2561 28.6171 19.1934C28.3454 19.0735 28.0336 19.0908 27.7833 19.2406L26.4166 20.0597C26.0249 20.294 25.9042 20.7844 26.1477 21.1521C26.5003 21.6852 26.7858 22.2528 26.9952 22.8394C27.3098 23.703 27.4696 24.631 27.4696 25.5963C27.4696 29.7627 24.3874 33.1526 20.598 33.1526C16.8086 33.1526 13.7264 29.7627 13.7264 25.5963C13.7264 24.4431 13.967 23.2998 14.421 22.2891C14.4434 22.2537 14.4619 22.2155 14.4765 22.1765C14.4833 22.1656 14.4901 22.1538 14.496 22.1438C17.0589 17.7577 21.9423 15.0334 27.2416 15.0334C29.2727 15.0334 31.2288 14.7238 33.0524 14.1135C34.6451 13.6132 36.1132 12.9067 37.5364 11.955H37.552L37.74 11.8297C38.1511 11.5564 38.5427 11.2667 38.905 10.9706C39.169 10.7545 39.3181 10.453 39.3142 10.1443C39.3103 9.81373 39.1466 9.51043 38.8651 9.31065L38.8632 9.31337Z" fill="#0C2039"/>
<path d="M37.1291 17.8674V34.5708C37.1291 34.9876 36.7667 35.3255 36.3196 35.3255H34.4853C34.0382 35.3255 33.6758 34.9876 33.6758 34.5708V17.8674C33.6758 17.4506 34.0382 17.1128 34.4853 17.1128H36.3196C36.7667 17.1128 37.1291 17.4506 37.1291 17.8674Z" fill="#0C2039"/>
<path d="M41.7905 40.4212C41.32 40.4212 40.8856 40.3867 40.4881 40.3186C40.456 40.3132 40.4238 40.3077 40.3917 40.3014C39.9221 40.2151 39.6357 39.7719 39.7721 39.3451L40.1248 38.2463C40.2417 37.8831 40.6284 37.6624 41.0307 37.7178C41.4856 37.7805 41.887 37.7669 42.2328 37.677C42.7442 37.5435 43.166 37.1003 43.4963 36.3475L43.6891 35.8672C43.7554 35.701 43.7573 35.5175 43.694 35.3505L38.8632 22.6726C38.6762 22.1813 39.0668 21.6655 39.626 21.6655H41.5441C41.8996 21.6655 42.2143 21.8826 42.3185 22.1995L45.5205 31.9805H45.6735L48.8842 22.2022C48.9885 21.8835 49.3051 21.6664 49.6626 21.6683L51.6089 21.6773C52.1671 21.6801 52.5548 22.1968 52.3668 22.6862L46.8668 36.9777C46.5931 37.6888 46.2307 38.3027 45.7796 38.8184C45.3276 39.3342 44.7763 39.7302 44.1246 40.0053C43.4729 40.2805 42.6955 40.4185 41.7925 40.4185L41.7905 40.4212Z" fill="#0C2039"/>
<path d="M67.3956 22.674L62.7538 34.8242C62.6388 35.1248 62.3339 35.3255 61.991 35.3255H59.317C58.9751 35.3255 58.6692 35.1248 58.5543 34.8242L53.9125 22.674C53.7245 22.1827 54.1151 21.6669 54.6752 21.6669H56.6138C56.9684 21.6669 57.282 21.8821 57.3872 22.1982L60.5785 31.813H60.7315L63.9315 22.1972C64.0367 21.8812 64.3494 21.666 64.704 21.666H66.6328C67.192 21.666 67.5826 22.1836 67.3956 22.674Z" fill="#0C2039"/>
<path d="M75.2601 35.5918C73.7911 35.5918 72.5238 35.3058 71.459 34.7337C70.3943 34.1616 69.5751 33.3498 69.0023 32.2973C68.4304 31.2448 68.144 30.0044 68.144 28.5759C68.144 27.1475 68.4314 25.9361 69.0071 24.8718C69.5828 23.8075 70.3885 22.9775 71.425 22.3818C72.4614 21.7861 73.6791 21.4883 75.078 21.4883C75.981 21.4883 76.8346 21.6227 77.6392 21.8924C78.4438 22.1621 79.1559 22.5789 79.7755 23.1419C80.395 23.7049 80.8831 24.4214 81.2396 25.2895C81.5961 26.1586 81.7734 27.1911 81.7734 28.3889V28.6213C81.7734 29.0381 81.4111 29.376 80.9639 29.376H70.5726C70.1254 29.376 69.7631 29.0381 69.7631 28.6213V27.9602C69.7631 27.5434 70.1254 27.2056 70.5726 27.2056H77.5486C78.0727 27.2056 78.4682 26.7461 78.3357 26.273C78.2646 26.0197 78.1643 25.7808 78.0337 25.5565C77.7541 25.0734 77.3645 24.692 76.8647 24.4141C76.3648 24.1354 75.7852 23.9964 75.1238 23.9964C74.4175 23.9964 73.798 24.1553 73.2632 24.4723C72.7293 24.7892 72.3143 25.2042 72.0182 25.7173C71.7221 26.2303 71.5711 26.7915 71.5652 27.4027V29.2969C71.5652 30.0915 71.7211 30.7717 72.0328 31.3374C72.3445 31.9041 72.78 32.3363 73.3401 32.636C73.8993 32.9357 74.5549 33.0855 75.305 33.0855C75.8076 33.0855 76.2616 33.0192 76.6689 32.8857C77.0761 32.7522 77.4288 32.5552 77.7278 32.2946C77.9119 32.1338 78.0678 31.9495 78.1964 31.7424C78.3532 31.4882 78.665 31.3529 78.9777 31.3856L80.624 31.5581C81.1812 31.6162 81.5017 32.1701 81.2601 32.6424C81.0555 33.041 80.7925 33.407 80.471 33.7402C79.9021 34.3305 79.1754 34.7864 78.2909 35.1096C77.4064 35.4329 76.396 35.5946 75.2572 35.5946L75.2601 35.5918Z" fill="#0C2039"/>
<path d="M94.7271 25.3741L93.1403 25.5358C92.8168 25.5685 92.4973 25.4223 92.3463 25.1535C92.2703 25.0191 92.1798 24.8883 92.0736 24.7612C91.8544 24.5006 91.5602 24.2899 91.191 24.1301C90.8218 23.9702 90.3708 23.8903 89.836 23.8903C89.1171 23.8903 88.515 24.0356 88.028 24.3262C87.5419 24.6168 87.3013 24.9927 87.3081 25.4559C87.3013 25.8527 87.4591 26.176 87.7805 26.4248C88.102 26.6736 88.6339 26.8779 89.3781 27.0387L91.8778 27.5363C93.264 27.8151 94.2956 28.2564 94.9736 28.8612C95.6506 29.466 95.9925 30.2569 95.9994 31.2359C95.9925 32.0958 95.7247 32.8532 95.1928 33.5079C94.6609 34.1626 93.9254 34.6739 92.9844 35.0417C92.0434 35.4094 90.9621 35.5929 89.7415 35.5929C87.9481 35.5929 86.5044 35.2414 85.4105 34.5395C84.6 34.0192 84.033 33.3472 83.7077 32.5226C83.5255 32.0613 83.8674 31.5637 84.3925 31.5165L86.1839 31.3557C86.5297 31.3249 86.858 31.5037 86.9993 31.7998C87.1785 32.1739 87.4435 32.4718 87.7942 32.6943C88.29 33.0085 88.9359 33.1656 89.7308 33.1656C90.5257 33.1656 91.2105 33.0085 91.7102 32.6943C92.209 32.3801 92.4593 31.9914 92.4593 31.5292C92.4593 31.1378 92.2986 30.8145 91.9781 30.5602C91.6566 30.3051 91.1589 30.1098 90.4848 29.9736L87.9851 29.4842C86.5794 29.2117 85.54 28.7504 84.8659 28.1011C84.1918 27.4518 83.8577 26.6291 83.8645 25.6339C83.8577 24.7921 84.1041 24.061 84.6039 23.4417C85.1036 22.8224 85.7991 22.342 86.6934 22.0015C87.5867 21.661 88.6183 21.4902 89.7892 21.4902C91.5066 21.4902 92.8587 21.8308 93.8485 22.5127C94.5547 22.9995 95.0691 23.6097 95.3905 24.3416C95.5941 24.8048 95.2619 25.3215 94.7271 25.376V25.3741Z" fill="#0C2039"/>
</svg>
