<svg xmlns="http://www.w3.org/2000/svg" viewBox="0 0 509.51 427.69"><defs><style>.cls-1{fill:#fff;}</style></defs><title>Playhour WHite Icon</title><g id="Layer_2" data-name="Layer 2"><g id="Layer_1-2" data-name="Layer 1"><path class="cls-1" d="M366,171.4v85.54a9.9,9.9,0,0,1-16.92,7C295.74,210,241.3,207.48,182.66,249.42a9.9,9.9,0,0,1-15.7-8V185.3a9.91,9.91,0,0,1,15.9-7.89C242.28,222.18,296.44,216,349.2,164.29A9.9,9.9,0,0,1,366,171.4Z"/><path class="cls-1" d="M470.39,73.9,55.56.73A47.35,47.35,0,0,0,0,47.36v333A47.34,47.34,0,0,0,55.56,427l414.83-73.17a47.37,47.37,0,0,0,39.12-46.62V120.52A47.36,47.36,0,0,0,470.39,73.9Zm-50.5,202.62c.8,32.42-17.08,49.35-46.2,40.94-31-9-62.52-22.59-88.41-41.54a49,49,0,0,0-63.38,4.68c-25.44,25-57.21,38.28-94.2,38.31-23.94,0-37.63-11.39-37.86-35.81q-.6-68.81-.07-137.61c.17-26.65,16.77-42.37,40.39-35.59,33.35,9.62,68.05,22.41,95.32,43,24.39,18.38,35.63,18.08,58.92-.77,23.91-19.38,54.54-34.21,84.53-41.47,36.81-8.91,49.91,5.68,50.78,43.14.46,18.61.08,37.21.08,55.82C419.79,231.9,419.31,254.23,419.89,276.52Z"/></g></g></svg>