<?xml version="1.0" encoding="UTF-8" standalone="no"?>
<svg
        xmlns:dc="http://purl.org/dc/elements/1.1/"
        xmlns:cc="http://creativecommons.org/ns#"
        xmlns:rdf="http://www.w3.org/1999/02/22-rdf-syntax-ns#"
        xmlns="http://www.w3.org/2000/svg"
        xmlns:sodipodi="http://sodipodi.sourceforge.net/DTD/sodipodi-0.dtd"
        xmlns:inkscape="http://www.inkscape.org/namespaces/inkscape"
        version="1.1"
        id="svg2"
        xml:space="preserve"
        width="87.920792"
        height="87.920792"
        viewBox="0 0 87.920792 87.920792"
        sodipodi:docname="new-logo.svg"
        inkscape:version="1.0.2-2 (e86c870879, 2021-01-15)"><metadata
     id="metadata8"><rdf:RDF><cc:Work
         rdf:about=""><dc:format>image/svg+xml</dc:format><dc:type
        rdf:resource="http://purl.org/dc/dcmitype/StillImage"/><dc:title></dc:title></cc:Work></rdf:RDF></metadata>
    <defs
            id="defs6"><linearGradient
       x1="0"
       y1="0"
       x2="1"
       y2="0"
       gradientUnits="userSpaceOnUse"
       gradientTransform="matrix(34.376118,0,0,-34.376118,76.158165,538.0061)"
       spreadMethod="pad"
       id="linearGradient28"><stop
         style="stop-opacity:1;stop-color:#f6cb3f"
         offset="0"
         id="stop24" /><stop
            style="stop-opacity:1;stop-color:#f7c842"
            offset="1"
            id="stop26"/></linearGradient>
        <clipPath
                clipPathUnits="userSpaceOnUse"
                id="clipPath42"><path
         d="M 0,680.31 H 510.24 V 0 H 0 Z"
         id="path40" /></clipPath>
        <clipPath
                clipPathUnits="userSpaceOnUse"
                id="clipPath50"><path
         d="m 76.5962,551.847 h 18.7143 v -31.07 H 76.5962 Z"
         id="path48" /></clipPath>
        <linearGradient
                x1="0"
                y1="0"
                x2="1"
                y2="0"
                gradientUnits="userSpaceOnUse"
                gradientTransform="matrix(34.376118,0,0,-34.376118,85.765884,508.20404)"
                spreadMethod="pad"
                id="linearGradient74"><stop
         style="stop-opacity:1;stop-color:#f6cb3f"
         offset="0"
         id="stop70" />
            <stop
                    style="stop-opacity:1;stop-color:#f7c842"
                    offset="1"
                    id="stop72"/></linearGradient>
        <clipPath
                clipPathUnits="userSpaceOnUse"
                id="clipPath88"><path
         d="M 0,680.31 H 510.24 V 0 H 0 Z"
         id="path86" /></clipPath>
        <clipPath
                clipPathUnits="userSpaceOnUse"
                id="clipPath96"><path
         d="m 86.2039,522.045 h 18.7141 v -31.07 H 86.2039 Z"
         id="path94" /></clipPath>
        <clipPath
                clipPathUnits="userSpaceOnUse"
                id="clipPath116"><path
         d="M 0,680.31 H 510.24 V 0 H 0 Z"
         id="path114" /></clipPath>
        <linearGradient
                x1="0"
                y1="0"
                x2="1"
                y2="0"
                gradientUnits="userSpaceOnUse"
                gradientTransform="matrix(34.376118,0,0,-34.376118,106.74265,531.39709)"
                spreadMethod="pad"
                id="linearGradient152"><stop
         style="stop-opacity:1;stop-color:#f6cb3f"
         offset="0"
         id="stop148" />
            <stop
                    style="stop-opacity:1;stop-color:#f7c842"
                    offset="1"
                    id="stop150"/></linearGradient>
        <clipPath
                clipPathUnits="userSpaceOnUse"
                id="clipPath162"><path
         d="M 0,680.31 H 510.24 V 0 H 0 Z"
         id="path160" /></clipPath>
        <clipPath
                clipPathUnits="userSpaceOnUse"
                id="clipPath174"><path
         d="m 107.181,545.238 h 18.714 v -31.07 h -18.714 z"
         id="path172" /></clipPath></defs>
    <sodipodi:namedview
            pagecolor="#ffffff"
            bordercolor="#666666"
            borderopacity="1"
            objecttolerance="10"
            gridtolerance="10"
            guidetolerance="10"
            inkscape:pageopacity="0"
            inkscape:pageshadow="2"
            inkscape:window-width="1366"
            inkscape:window-height="715"
            id="namedview4"
            inkscape:document-rotation="0"
            showgrid="false"
            fit-margin-top="0"
            fit-margin-left="0"
            fit-margin-right="0"
            fit-margin-bottom="0"
            inkscape:zoom="1.6007173"
            inkscape:cx="239.16543"
            inkscape:cy="-15.606213"
            inkscape:window-x="-8"
            inkscape:window-y="-8"
            inkscape:window-maximized="1"
            inkscape:current-layer="g106"/>
    <g
            id="g10"
            inkscape:groupmode="layer"
            inkscape:label="logga_color (1)"
            transform="matrix(1.3333333,0,0,-1.3333333,-100.99457,741.43378)"><g
       id="g12"><g
         id="g14"><g
           id="g20"><g
             id="g22"><path
               d="m 106.721,525.881 -17.188,-5.52 -13.375,12.125 3.813,17.645 17.188,5.521 13.375,-12.125 z"
               style="fill:url(#linearGradient28);stroke:none"
               id="path30" /></g></g></g></g>
        <g
                id="g32"
                transform="translate(106.7212,525.8811)"><path
         d="M 0,0 -17.188,-5.521 -30.563,6.604 -26.75,24.25 -9.562,29.771 3.813,17.646 Z"
         style="fill:none;stroke:#caab6e;stroke-width:0.75;stroke-linecap:butt;stroke-linejoin:miter;stroke-miterlimit:10;stroke-dasharray:none;stroke-opacity:1"
         id="path34" /></g>
        <g
                id="g36"><g
         id="g38"
         clip-path="url(#clipPath42)"><g
           id="g44"><g
             id="g46" /><g
                id="g58"><g
               clip-path="url(#clipPath50)"
               opacity="0.440002"
               id="g56"><g
                 transform="translate(95.3105,522.6203)"
                 id="g54"><path
                   d="m 0,0 c -3.862,2.259 -9.796,6.438 -11.673,12.011 -2.094,6.218 1.131,13.75 2.902,17.216 l -6.256,-2.008 -3.687,-17.208 13.041,-11.854 z"
                   style="fill:#ffffff;fill-opacity:1;fill-rule:nonzero;stroke:none"
                   id="path52" /></g></g></g></g></g></g>
        <g
                id="g60"><g
         id="g62"><g
           id="g68"><path
             d="m 116.329,496.079 -17.188,-5.521 -13.375,12.125 3.813,17.646 17.188,5.521 13.375,-12.125 z"
             style="fill:url(#linearGradient74);stroke:none"
             id="path76" /></g></g></g>
        <g
                id="g78"
                transform="translate(116.3289,496.079)"><path
         d="M 0,0 -17.188,-5.521 -30.563,6.604 -26.75,24.25 -9.562,29.771 3.813,17.646 Z"
         style="fill:none;stroke:#caab6e;stroke-width:0.75;stroke-linecap:butt;stroke-linejoin:miter;stroke-miterlimit:10;stroke-dasharray:none;stroke-opacity:1"
         id="path80" /></g>
        <g
                id="g82"><g
         id="g84"
         clip-path="url(#clipPath88)"><g
           id="g90"><g
             id="g92" /><g
                id="g104"><g
               clip-path="url(#clipPath96)"
               opacity="0.440002"
               id="g102"><g
                 transform="translate(104.9183,492.8182)"
                 id="g100"><path
                   d="m 0,0 c -3.862,2.259 -9.796,6.438 -11.673,12.011 -2.094,6.218 1.131,13.75 2.902,17.216 l -6.256,-2.008 -3.687,-17.208 13.041,-11.854 z"
                   style="fill:#ffffff;fill-opacity:1;fill-rule:nonzero;stroke:none"
                   id="path98" /></g></g></g></g></g></g>
        <g
                id="g106"
                transform="translate(197.4619,540.3464)"><path
         d="m 0,0 h -16.458 v -43.844 h -6.618 V 0 H -39.399 V 5.905 H 0 Z"
         style="fill:#ffffff;fill-opacity:1;fill-rule:nonzero;stroke:none;stroke-opacity:1"
         id="path108" /></g>
        <g
                id="g110"><g
         id="g112"
         clip-path="url(#clipPath116)"><g
           id="g118"
           transform="translate(211.1382,524.363)"><path
             d="m 0,0 h 14.117 c 2.851,0 5.108,0.243 6.77,0.729 1.663,0.487 2.992,1.431 3.988,2.834 0.995,1.402 1.492,2.975 1.492,4.717 0,2.262 -0.825,4.185 -2.476,5.769 -1.652,1.583 -4.378,2.376 -8.179,2.376 H 0 Z M 37.261,-27.861 H 28.98 c -4.954,7.827 -8.031,12.635 -9.23,14.423 -1.199,1.786 -2.46,3.319 -3.783,4.598 -1.324,1.278 -2.568,2.087 -3.733,2.426 -1.166,0.339 -2.71,0.509 -4.632,0.509 H 0 v -21.956 h -6.583 v 49.749 h 22.024 c 3.008,0 5.531,-0.192 7.567,-0.576 2.036,-0.386 3.823,-1.194 5.362,-2.427 1.538,-1.234 2.72,-2.789 3.546,-4.666 0.826,-1.878 1.238,-3.858 1.238,-5.939 0,-3.756 -1.187,-6.776 -3.562,-9.061 -2.376,-2.285 -5.837,-3.733 -10.384,-4.344 V -5.26 c 3.325,-1.471 6.447,-4.491 9.365,-9.061 z"
             style="fill:#ffffff;fill-opacity:1;fill-rule:nonzero;stroke:none"
             id="path120" /></g><path
                d="m 262.176,496.502 h -6.617 v 49.749 h 6.617 z"
                style="fill:#ffffff;fill-opacity:1;fill-rule:nonzero;stroke:none"
                id="path122"/><g
                id="g124"
                transform="translate(314.3697,546.2512)"><path
             d="m 0,0 -19.479,-49.749 h -6.719 L -45.474,0 h 7.093 l 12.93,-36.141 c 0.972,-2.307 1.832,-5.011 2.578,-8.111 h 0.137 c 0.677,2.648 1.538,5.351 2.578,8.111 L -6.686,0 Z"
             style="fill:#ffffff;fill-opacity:1;fill-rule:nonzero;stroke:none"
             id="path126" /></g></g></g>
        <g
                id="g136"><g
         id="g138"><g
           id="g144"><g
             id="g146"><path
               d="m 110.556,543.522 -3.813,-17.646 13.375,-12.125 17.188,5.521 3.813,17.645 -13.375,12.125 z"
               style="fill:url(#linearGradient152);stroke:none"
               id="path154" /></g></g></g></g>
        <g
                id="g156"><g
         id="g158"
         clip-path="url(#clipPath162)"><g
           id="g164"
           transform="translate(137.3057,519.2721)"><path
             d="M 0,0 -17.188,-5.521 -30.563,6.604 -26.75,24.25 -9.562,29.771 3.813,17.646 Z"
             style="fill:none;stroke:#caab6e;stroke-width:0.75;stroke-linecap:butt;stroke-linejoin:miter;stroke-miterlimit:10;stroke-dasharray:none;stroke-opacity:1"
             id="path166" /></g><g
                id="g168"><g
             id="g170" />
            <g
                    id="g182"><g
               clip-path="url(#clipPath174)"
               opacity="0.350006"
               id="g180"><g
                 transform="translate(125.895,516.0112)"
                 id="g178"><path
                   d="m 0,0 c -3.862,2.259 -9.796,6.438 -11.673,12.011 -2.094,6.218 1.131,13.75 2.902,17.216 l -6.256,-2.008 -3.687,-17.208 13.041,-11.854 z"
                   style="fill:#ffffff;fill-opacity:1;fill-rule:nonzero;stroke:none"
                   id="path176" /></g></g></g></g></g></g></g></svg>
