<svg width="74" height="37" viewBox="0 0 74 37" fill="none" xmlns="http://www.w3.org/2000/svg">
<path fill-rule="evenodd" clip-rule="evenodd" d="M37 0C16.5656 0 0 8.2828 0 18.5C0 28.7172 16.5656 37 37 37C57.4344 37 74 28.7172 74 18.5C74 8.2828 57.4344 0 37 0ZM37 34.0793C18.1786 34.0793 2.92069 27.1042 2.92069 18.5C2.92069 9.89577 18.1786 2.92069 37 2.92069C55.8214 2.92069 71.0793 9.89577 71.0793 18.5C71.0793 27.1042 55.8214 34.0793 37 34.0793ZM32.334 12.3331V15.2544H36.0923V24.6669H39.0142V15.2544H42.772V12.3331H32.334ZM55.3717 24.6669H52.451L47.1536 17.3247V24.6669H44.2329V12.3331H47.1536L52.451 19.6753V12.3331H55.3717V24.6669ZM18.5416 12.3331V24.6669H21.4623V17.6906L23.6777 21.0958H25.737L27.9523 17.6906V24.6669H30.8719V12.3331H27.9523L24.7073 17.3247L21.4623 12.3331H18.5416Z" fill="black"/>
</svg>
