<svg width="208" height="208" viewBox="0 0 208 208" fill="none" xmlns="http://www.w3.org/2000/svg">
<g filter="url(#filter0_d_328_13956)">
<path d="M64.7999 48.8C64.9435 48.9824 65.056 49.1628 65.1589 49.3706C65.2037 49.4606 65.2037 49.4606 65.2494 49.5523C65.2813 49.617 65.3131 49.6816 65.346 49.7482C65.3796 49.8159 65.4133 49.8835 65.448 49.9532C65.5558 50.1701 65.6633 50.3871 65.7707 50.6042C65.9109 50.887 66.0513 51.1698 66.1918 51.4524C66.2269 51.5228 66.2619 51.5933 66.298 51.6659C66.4977 52.0661 66.7017 52.4635 66.9121 52.8581C67.2244 53.4448 67.5219 54.0387 67.8186 54.6334C67.8434 54.683 67.8681 54.7326 67.8936 54.7837C68.0998 55.1969 68.3056 55.6102 68.5113 56.0236C68.69 56.3825 68.8688 56.7413 69.0478 57.1C69.0726 57.1498 69.0974 57.1995 69.123 57.2507C69.4123 57.8301 69.7054 58.4067 70.0103 58.978C70.2838 59.4934 70.5436 60.0155 70.8041 60.5375C70.8281 60.5857 70.8522 60.6339 70.8769 60.6836C71.0767 61.0841 71.2761 61.4848 71.4756 61.8854C71.6488 62.2334 71.8221 62.5814 71.9957 62.9292C72.0198 62.9775 72.0439 63.0258 72.0687 63.0756C72.3287 63.5963 72.5904 64.1157 72.8645 64.6292C73.1707 65.2032 73.4615 65.7846 73.752 66.3667C73.7768 66.4164 73.8015 66.466 73.8271 66.5172C74.0332 66.9303 74.2389 67.3436 74.4447 67.757C74.6233 68.1158 74.8021 68.4747 74.9811 68.8334C75.006 68.8831 75.0308 68.9329 75.0564 68.9841C75.3212 69.5145 75.5874 70.0437 75.8666 70.5667C76.1722 71.1393 76.4622 71.7194 76.752 72.3001C76.7768 72.3497 76.8015 72.3994 76.8271 72.4505C77.0332 72.8637 77.2389 73.277 77.4447 73.6903C77.6233 74.0492 77.8021 74.408 77.9811 74.7667C78.006 74.8165 78.0308 74.8662 78.0564 74.9175C78.3212 75.4478 78.5874 75.977 78.8666 76.5C79.1722 77.0726 79.4622 77.6527 79.752 78.2334C79.7768 78.283 79.8015 78.3327 79.8271 78.3839C80.0332 78.797 80.2389 79.2103 80.4447 79.6236C80.6233 79.9825 80.8021 80.3413 80.9811 80.7001C81.006 80.7498 81.0308 80.7995 81.0564 80.8508C81.3212 81.3812 81.5874 81.9104 81.8666 82.4334C82.1722 83.0059 82.4622 83.586 82.752 84.1667C82.7768 84.2164 82.8015 84.266 82.8271 84.3172C83.0332 84.7303 83.2389 85.1436 83.4447 85.557C83.6233 85.9158 83.8021 86.2747 83.9811 86.6334C84.006 86.6831 84.0308 86.7329 84.0564 86.7841C84.3212 87.3145 84.5874 87.8437 84.8666 88.3667C85.1722 88.9393 85.4622 89.5194 85.752 90.1001C85.7768 90.1497 85.8015 90.1994 85.8271 90.2505C86.0332 90.6637 86.2389 91.077 86.4447 91.4903C86.6233 91.8492 86.8021 92.208 86.9811 92.5667C87.006 92.6165 87.0308 92.6662 87.0564 92.7175C87.3212 93.2478 87.5874 93.777 87.8666 94.3001C88.1722 94.8726 88.4622 95.4527 88.752 96.0334C88.7768 96.083 88.8015 96.1327 88.8271 96.1839C89.0332 96.597 89.2389 97.0103 89.4447 97.4236C89.6233 97.7825 89.8021 98.1413 89.9811 98.5C90.006 98.5498 90.0308 98.5995 90.0564 98.6508C90.3212 99.1812 90.5874 99.7104 90.8666 100.233C91.1722 100.806 91.4622 101.386 91.752 101.967C91.7768 102.016 91.8015 102.066 91.8271 102.117C92.0332 102.53 92.2389 102.944 92.4447 103.357C92.6233 103.716 92.8021 104.075 92.9811 104.433C93.006 104.483 93.0308 104.533 93.0564 104.584C93.3212 105.115 93.5874 105.644 93.8666 106.167C94.1722 106.739 94.4622 107.319 94.752 107.9C94.7768 107.95 94.8015 107.999 94.8271 108.051C95.0332 108.464 95.2389 108.877 95.4447 109.29C95.6233 109.649 95.8021 110.008 95.9811 110.367C96.006 110.416 96.0308 110.466 96.0564 110.517C96.3212 111.048 96.5874 111.577 96.8666 112.1C97.1722 112.673 97.4622 113.253 97.752 113.833C97.7768 113.883 97.8015 113.933 97.8271 113.984C98.0332 114.397 98.2389 114.81 98.4447 115.224C98.6233 115.583 98.8021 115.941 98.9811 116.3C99.006 116.35 99.0308 116.4 99.0564 116.451C99.3212 116.981 99.5874 117.51 99.8666 118.033C100.172 118.606 100.462 119.186 100.752 119.767C100.777 119.816 100.802 119.866 100.827 119.917C101.033 120.33 101.239 120.744 101.445 121.157C101.623 121.516 101.802 121.875 101.981 122.233C102.006 122.283 102.031 122.333 102.056 122.384C102.321 122.915 102.587 123.444 102.867 123.967C103.172 124.539 103.462 125.119 103.752 125.7C103.777 125.75 103.802 125.799 103.827 125.851C104.033 126.264 104.239 126.677 104.445 127.09C104.623 127.449 104.802 127.808 104.981 128.167C105.006 128.216 105.031 128.266 105.056 128.317C105.346 128.897 105.639 129.473 105.944 130.045C106.217 130.56 106.477 131.082 106.737 131.604C106.761 131.652 106.785 131.701 106.81 131.75C107.01 132.151 107.209 132.551 107.409 132.952C107.582 133.3 107.755 133.648 107.929 133.996C107.965 134.067 107.965 134.067 108.001 134.141C108.349 134.837 108.705 135.529 109.071 136.216C109.209 136.477 109.343 136.74 109.475 137.004C109.501 137.055 109.526 137.105 109.552 137.157C109.733 137.517 109.733 137.517 109.733 137.667C101.637 137.667 93.5412 137.667 85.1999 137.667C84.8105 136.927 84.4229 136.189 84.051 135.441C83.9781 135.294 83.905 135.147 83.8318 135.001C83.6505 134.637 83.4695 134.273 83.2885 133.91C83.1343 133.6 82.98 133.291 82.8256 132.981C82.755 132.839 82.6845 132.698 82.6141 132.556C82.3723 132.07 82.1248 131.589 81.8711 131.109C81.5689 130.538 81.277 129.962 80.9893 129.384C80.9051 129.215 80.8208 129.046 80.7365 128.877C80.5274 128.458 80.3185 128.038 80.1096 127.619C79.932 127.262 79.7542 126.906 79.5763 126.549C79.4946 126.385 79.4131 126.221 79.3316 126.058C79.0715 125.536 78.8069 125.017 78.5341 124.502C78.2287 123.925 77.9342 123.343 77.6436 122.759C77.5572 122.586 77.4707 122.412 77.3841 122.239C77.1694 121.808 76.955 121.378 76.7405 120.947C76.5582 120.581 76.3757 120.215 76.1931 119.85C76.1092 119.681 76.0255 119.513 75.9417 119.345C75.678 118.815 75.4099 118.289 75.1332 117.767C74.8281 117.191 74.5339 116.609 74.2436 116.026C74.1572 115.852 74.0707 115.679 73.9841 115.505C73.7694 115.075 73.555 114.644 73.3405 114.214C73.1582 113.848 72.9757 113.482 72.7931 113.116C72.7092 112.948 72.6255 112.78 72.5417 112.611C72.251 112.028 71.9533 111.449 71.6482 110.873C71.3763 110.358 71.1151 109.838 70.8559 109.317C70.7718 109.148 70.6875 108.979 70.6032 108.81C70.394 108.391 70.1852 107.972 69.9763 107.552C69.7987 107.196 69.6209 106.839 69.443 106.483C69.3613 106.319 69.2798 106.155 69.1982 105.991C68.9382 105.469 68.6736 104.95 68.4008 104.435C68.0954 103.858 67.8009 103.277 67.5102 102.692C67.4239 102.519 67.3374 102.345 67.2508 102.172C67.0361 101.742 66.8216 101.311 66.6072 100.881C66.4249 100.515 66.2424 100.149 66.0598 99.7828C65.9759 99.6146 65.8921 99.4462 65.8084 99.2779C65.5447 98.7488 65.2766 98.2225 64.9999 97.7001C64.6948 97.1239 64.4006 96.5428 64.1102 95.9591C64.0239 95.7855 63.9374 95.612 63.8508 95.4386C63.6361 95.0082 63.4216 94.5778 63.2072 94.1473C63.0249 93.7813 62.8424 93.4154 62.6598 93.0495C62.5759 92.8812 62.4921 92.7129 62.4084 92.5445C62.1176 91.9612 61.8199 91.3821 61.5149 90.8061C61.243 90.2914 60.9818 89.7716 60.7226 89.2505C60.6385 89.0814 60.5542 88.9124 60.4698 88.7434C60.2607 88.3242 60.0518 87.9049 59.843 87.4855C59.6653 87.1289 59.4876 86.7724 59.3097 86.4159C59.228 86.252 59.1464 86.0881 59.0649 85.9242C58.8049 85.4025 58.5403 84.8837 58.2675 84.3685C57.9621 83.7918 57.6676 83.2101 57.3769 82.6258C57.2906 82.4522 57.204 82.2787 57.1174 82.1052C56.9027 81.6749 56.6883 81.2445 56.4739 80.814C56.2915 80.448 56.1091 80.082 55.9265 79.7162C55.8426 79.5479 55.7588 79.3796 55.6751 79.2112C55.3548 78.5686 55.0254 77.9314 54.6897 77.2967C54.3584 76.6699 54.0382 76.0372 53.7188 75.4043C53.6079 75.1845 53.4965 74.965 53.3842 74.746C53.2736 74.5302 53.164 74.3138 53.0552 74.0971C53.014 74.0156 52.9724 73.9342 52.9305 73.8531C52.8724 73.7404 52.8158 73.627 52.7592 73.5136C52.7267 73.4497 52.6942 73.3857 52.6608 73.3198C52.5479 72.9743 52.6654 72.7022 52.8227 72.3898C52.8552 72.3246 52.8878 72.2593 52.9213 72.192C52.9568 72.1222 52.9922 72.0524 53.0288 71.9805C53.0656 71.9071 53.1024 71.8338 53.1403 71.7582C53.2583 71.5233 53.377 71.2887 53.4957 71.0542C53.5733 70.8998 53.6509 70.7453 53.7284 70.5908C54.0515 69.9481 54.3766 69.3066 54.7147 68.6717C55.0311 68.0765 55.3323 67.4739 55.6332 66.8709C55.6715 66.7943 55.6715 66.7943 55.7105 66.7161C55.896 66.3442 56.0813 65.9721 56.2666 65.6C56.4775 65.1764 56.6885 64.7527 56.8999 64.3292C56.9254 64.278 56.951 64.2268 56.9773 64.174C57.2698 63.5883 57.5657 63.0052 57.8741 62.4278C58.1588 61.8913 58.4288 61.3476 58.6999 60.8042C58.7254 60.7531 58.7509 60.702 58.7772 60.6493C58.9627 60.2774 59.148 59.9054 59.3332 59.5334C59.5442 59.1097 59.7552 58.686 59.9666 58.2625C59.9921 58.2113 60.0177 58.1601 60.044 58.1073C60.3365 57.5217 60.6324 56.9385 60.9408 56.3611C61.2255 55.8247 61.4954 55.2809 61.7666 54.7375C61.7921 54.6864 61.8176 54.6353 61.8439 54.5826C62.0294 54.2107 62.2147 53.8387 62.3999 53.4667C63.6967 50.862 63.6967 50.862 64.1985 49.927C64.2759 49.7826 64.3529 49.638 64.4298 49.4934C64.5529 49.2621 64.6763 49.031 64.7999 48.8Z" fill="#DB504B"/>
<path d="M99.7999 43.8C99.9435 43.9824 100.056 44.1628 100.159 44.3706C100.204 44.4606 100.204 44.4606 100.249 44.5523C100.281 44.617 100.313 44.6816 100.346 44.7482C100.38 44.8159 100.413 44.8835 100.448 44.9532C100.556 45.1701 100.663 45.3871 100.771 45.6042C100.911 45.887 101.051 46.1698 101.192 46.4524C101.227 46.5228 101.262 46.5933 101.298 46.6659C101.498 47.0661 101.702 47.4635 101.912 47.8581C102.224 48.4448 102.522 49.0387 102.819 49.6334C102.843 49.683 102.868 49.7326 102.894 49.7837C103.1 50.1969 103.306 50.6102 103.511 51.0236C103.69 51.3825 103.869 51.7413 104.048 52.1C104.073 52.1498 104.097 52.1995 104.123 52.2507C104.412 52.8301 104.705 53.4067 105.01 53.978C105.284 54.4934 105.544 55.0155 105.804 55.5375C105.828 55.5857 105.852 55.6339 105.877 55.6836C106.077 56.0841 106.276 56.4848 106.476 56.8854C106.649 57.2334 106.822 57.5814 106.996 57.9292C107.02 57.9775 107.044 58.0258 107.069 58.0756C107.329 58.5963 107.59 59.1157 107.864 59.6292C108.171 60.2032 108.462 60.7846 108.752 61.3667C108.777 61.4164 108.802 61.466 108.827 61.5172C109.033 61.9303 109.239 62.3436 109.445 62.757C109.623 63.1158 109.802 63.4747 109.981 63.8334C110.006 63.8831 110.031 63.9329 110.056 63.9841C110.321 64.5145 110.587 65.0437 110.867 65.5667C111.172 66.1393 111.462 66.7194 111.752 67.3001C111.777 67.3497 111.802 67.3994 111.827 67.4505C112.033 67.8637 112.239 68.277 112.445 68.6903C112.623 69.0492 112.802 69.408 112.981 69.7667C113.006 69.8165 113.031 69.8662 113.056 69.9175C113.321 70.4478 113.587 70.977 113.867 71.5C114.172 72.0726 114.462 72.6527 114.752 73.2334C114.777 73.283 114.802 73.3327 114.827 73.3839C115.033 73.797 115.239 74.2103 115.445 74.6236C115.623 74.9825 115.802 75.3413 115.981 75.7001C116.006 75.7498 116.031 75.7995 116.056 75.8508C116.321 76.3812 116.587 76.9104 116.867 77.4334C117.172 78.0059 117.462 78.586 117.752 79.1667C117.777 79.2164 117.802 79.266 117.827 79.3172C118.033 79.7303 118.239 80.1436 118.445 80.557C118.623 80.9158 118.802 81.2747 118.981 81.6334C119.006 81.6831 119.031 81.7329 119.056 81.7841C119.321 82.3145 119.587 82.8437 119.867 83.3667C120.172 83.9393 120.462 84.5194 120.752 85.1001C120.777 85.1497 120.802 85.1994 120.827 85.2505C121.033 85.6637 121.239 86.077 121.445 86.4903C121.623 86.8492 121.802 87.208 121.981 87.5667C122.006 87.6165 122.031 87.6662 122.056 87.7175C122.321 88.2478 122.587 88.777 122.867 89.3001C123.172 89.8726 123.462 90.4527 123.752 91.0334C123.777 91.083 123.802 91.1327 123.827 91.1839C124.033 91.597 124.239 92.0103 124.445 92.4236C124.623 92.7825 124.802 93.1413 124.981 93.5C125.006 93.5498 125.031 93.5995 125.056 93.6508C125.321 94.1812 125.587 94.7104 125.867 95.2334C126.172 95.8059 126.462 96.386 126.752 96.9667C126.777 97.0164 126.802 97.066 126.827 97.1172C127.033 97.5303 127.239 97.9436 127.445 98.357C127.623 98.7158 127.802 99.0747 127.981 99.4334C128.006 99.4831 128.031 99.5329 128.056 99.5841C128.321 100.115 128.587 100.644 128.867 101.167C129.172 101.739 129.462 102.319 129.752 102.9C129.777 102.95 129.802 102.999 129.827 103.051C130.033 103.464 130.239 103.877 130.445 104.29C130.623 104.649 130.802 105.008 130.981 105.367C131.006 105.416 131.031 105.466 131.056 105.517C131.321 106.048 131.587 106.577 131.867 107.1C132.172 107.673 132.462 108.253 132.752 108.833C132.777 108.883 132.802 108.933 132.827 108.984C133.033 109.397 133.239 109.81 133.445 110.224C133.623 110.583 133.802 110.941 133.981 111.3C134.006 111.35 134.031 111.4 134.056 111.451C134.321 111.981 134.587 112.51 134.867 113.033C135.172 113.606 135.462 114.186 135.752 114.767C135.777 114.816 135.802 114.866 135.827 114.917C136.033 115.33 136.239 115.744 136.445 116.157C136.623 116.516 136.802 116.875 136.981 117.233C137.006 117.283 137.031 117.333 137.056 117.384C137.321 117.915 137.587 118.444 137.867 118.967C138.172 119.539 138.462 120.119 138.752 120.7C138.777 120.75 138.802 120.799 138.827 120.851C139.033 121.264 139.239 121.677 139.445 122.09C139.623 122.449 139.802 122.808 139.981 123.167C140.006 123.216 140.031 123.266 140.056 123.317C140.346 123.897 140.639 124.473 140.944 125.045C141.217 125.56 141.477 126.082 141.737 126.604C141.761 126.652 141.785 126.701 141.81 126.75C142.01 127.151 142.209 127.551 142.409 127.952C142.582 128.3 142.755 128.648 142.929 128.996C142.965 129.067 142.965 129.067 143.001 129.141C143.349 129.837 143.705 130.529 144.071 131.216C144.209 131.477 144.343 131.74 144.475 132.004C144.5 132.055 144.526 132.105 144.552 132.157C144.733 132.517 144.733 132.517 144.733 132.667C136.637 132.667 128.541 132.667 120.2 132.667C119.81 131.927 119.423 131.189 119.051 130.441C118.978 130.294 118.905 130.147 118.832 130.001C118.651 129.637 118.469 129.273 118.288 128.91C118.134 128.6 117.98 128.291 117.826 127.981C117.755 127.839 117.685 127.698 117.614 127.556C117.372 127.07 117.125 126.589 116.871 126.109C116.569 125.538 116.277 124.962 115.989 124.384C115.905 124.215 115.821 124.046 115.737 123.877C115.527 123.458 115.318 123.038 115.11 122.619C114.932 122.262 114.754 121.906 114.576 121.549C114.495 121.385 114.413 121.221 114.332 121.058C114.072 120.536 113.807 120.017 113.534 119.502C113.229 118.925 112.934 118.343 112.644 117.759C112.557 117.586 112.471 117.412 112.384 117.239C112.169 116.808 111.955 116.378 111.741 115.947C111.558 115.581 111.376 115.215 111.193 114.85C111.109 114.681 111.025 114.513 110.942 114.345C110.678 113.815 110.41 113.289 110.133 112.767C109.828 112.191 109.534 111.609 109.244 111.026C109.157 110.852 109.071 110.679 108.984 110.505C108.769 110.075 108.555 109.644 108.341 109.214C108.158 108.848 107.976 108.482 107.793 108.116C107.709 107.948 107.625 107.78 107.542 107.611C107.251 107.028 106.953 106.449 106.648 105.873C106.376 105.358 106.115 104.838 105.856 104.317C105.772 104.148 105.688 103.979 105.603 103.81C105.394 103.391 105.185 102.972 104.976 102.552C104.799 102.196 104.621 101.839 104.443 101.483C104.361 101.319 104.28 101.155 104.198 100.991C103.938 100.469 103.674 99.9504 103.401 99.4352C103.095 98.8584 102.801 98.2767 102.51 97.6924C102.424 97.5189 102.337 97.3454 102.251 97.1719C102.036 96.7416 101.822 96.3111 101.607 95.8807C101.425 95.5147 101.242 95.1487 101.06 94.7828C100.976 94.6146 100.892 94.4462 100.808 94.2779C100.545 93.7488 100.277 93.2225 99.9999 92.7001C99.6948 92.1239 99.4006 91.5428 99.1102 90.9591C99.0239 90.7855 98.9374 90.612 98.8508 90.4386C98.6361 90.0082 98.4216 89.5778 98.2072 89.1473C98.0249 88.7813 97.8424 88.4154 97.6598 88.0495C97.5759 87.8812 97.4921 87.7129 97.4084 87.5445C97.1176 86.9612 96.8199 86.3821 96.5149 85.8061C96.243 85.2914 95.9818 84.7716 95.7226 84.2505C95.6385 84.0814 95.5542 83.9124 95.4698 83.7434C95.2607 83.3242 95.0518 82.9049 94.843 82.4855C94.6653 82.1289 94.4876 81.7724 94.3097 81.4159C94.228 81.252 94.1464 81.0881 94.0649 80.9242C93.8049 80.4025 93.5403 79.8837 93.2675 79.3685C92.9621 78.7918 92.6676 78.2101 92.3769 77.6258C92.2906 77.4522 92.204 77.2787 92.1174 77.1052C91.9027 76.6749 91.6883 76.2445 91.4739 75.814C91.2915 75.448 91.1091 75.082 90.9265 74.7162C90.8426 74.5479 90.7588 74.3796 90.6751 74.2112C90.3548 73.5686 90.0254 72.9314 89.6897 72.2967C89.3584 71.6699 89.0382 71.0372 88.7188 70.4043C88.6079 70.1845 88.4965 69.965 88.3842 69.746C88.2736 69.5302 88.164 69.3138 88.0552 69.0971C88.014 69.0156 87.9724 68.9342 87.9305 68.8531C87.8724 68.7404 87.8158 68.627 87.7592 68.5136C87.7267 68.4497 87.6942 68.3857 87.6608 68.3198C87.5479 67.9743 87.6654 67.7022 87.8227 67.3898C87.8552 67.3246 87.8878 67.2593 87.9213 67.192C87.9568 67.1222 87.9922 67.0524 88.0288 66.9805C88.0656 66.9071 88.1024 66.8338 88.1403 66.7582C88.2583 66.5233 88.377 66.2887 88.4957 66.0542C88.5733 65.8998 88.6509 65.7453 88.7284 65.5908C89.0515 64.9481 89.3766 64.3066 89.7147 63.6717C90.0311 63.0765 90.3323 62.4739 90.6332 61.8709C90.6715 61.7943 90.6715 61.7943 90.7105 61.7161C90.896 61.3442 91.0813 60.9721 91.2666 60.6C91.4775 60.1764 91.6885 59.7527 91.8999 59.3292C91.9254 59.278 91.951 59.2268 91.9773 59.174C92.2698 58.5883 92.5657 58.0052 92.8741 57.4278C93.1588 56.8913 93.4288 56.3476 93.6999 55.8042C93.7254 55.7531 93.7509 55.702 93.7772 55.6493C93.9627 55.2774 94.148 54.9054 94.3332 54.5334C94.5442 54.1097 94.7552 53.686 94.9666 53.2625C94.9921 53.2113 95.0177 53.1601 95.044 53.1073C95.3365 52.5217 95.6324 51.9385 95.9408 51.3611C96.2255 50.8247 96.4954 50.2809 96.7666 49.7375C96.7921 49.6864 96.8176 49.6353 96.8439 49.5826C97.0294 49.2107 97.2147 48.8387 97.3999 48.4667C98.6967 45.862 98.6967 45.862 99.1985 44.927C99.2759 44.7826 99.3529 44.638 99.4298 44.4934C99.5529 44.2621 99.6763 44.031 99.7999 43.8Z" fill="#DB504B"/>
<path d="M123.667 48.6667C130.883 48.6667 138.099 48.6667 145.533 48.6667C145.533 75.7487 145.533 102.831 145.533 130.733C145.489 130.733 145.445 130.733 145.4 130.733C145.4 130.645 145.4 130.557 145.4 130.467C145.356 130.467 145.312 130.467 145.267 130.467C145.245 130.357 145.223 130.247 145.2 130.133C145.178 130.133 145.156 130.133 145.133 130.133C145.133 130.023 145.133 129.913 145.133 129.8C145.045 129.778 144.957 129.756 144.867 129.733C144.867 129.623 144.867 129.513 144.867 129.4C144.823 129.4 144.779 129.4 144.733 129.4C144.613 129.145 144.587 128.948 144.6 128.667C144.512 128.667 144.424 128.667 144.333 128.667C144.333 128.579 144.333 128.491 144.333 128.4C144.289 128.378 144.245 128.356 144.2 128.333C144.2 128.223 144.2 128.113 144.2 128C144.156 128 144.112 128 144.067 128C144.067 127.868 144.067 127.736 144.067 127.6C144.001 127.6 143.935 127.6 143.867 127.6C143.867 127.534 143.867 127.468 143.867 127.4C143.801 127.378 143.735 127.356 143.667 127.333C143.667 127.201 143.667 127.069 143.667 126.933C143.623 126.933 143.579 126.933 143.533 126.933C143.511 126.801 143.489 126.669 143.467 126.533C143.423 126.533 143.379 126.533 143.333 126.533C143.333 126.467 143.333 126.401 143.333 126.333C143.267 126.311 143.201 126.289 143.133 126.267C143.133 126.135 143.133 126.003 143.133 125.867C143.089 125.867 143.045 125.867 143 125.867C143 125.779 143 125.691 143 125.6C142.956 125.6 142.912 125.6 142.867 125.6C142.86 125.548 142.853 125.496 142.846 125.442C142.815 125.245 142.815 125.245 142.6 125.133C142.519 124.959 142.461 124.783 142.4 124.6C142.422 124.556 142.444 124.512 142.467 124.467C142.401 124.467 142.335 124.467 142.267 124.467C142.257 124.414 142.247 124.362 142.237 124.308C142.208 124.136 142.208 124.136 142.133 124C142.089 123.978 142.045 123.956 142 123.933C142.022 123.911 142.044 123.889 142.067 123.867C142.001 123.823 141.935 123.779 141.867 123.733C141.867 123.645 141.867 123.557 141.867 123.467C141.823 123.445 141.779 123.423 141.733 123.4C141.733 123.312 141.733 123.224 141.733 123.133C141.689 123.133 141.645 123.133 141.6 123.133C141.6 123.001 141.6 122.869 141.6 122.733C141.512 122.733 141.424 122.733 141.333 122.733C141.333 122.601 141.333 122.469 141.333 122.333C141.289 122.333 141.245 122.333 141.2 122.333C141.2 122.245 141.2 122.157 141.2 122.067C141.156 122.067 141.112 122.067 141.067 122.067C141.06 122.014 141.053 121.962 141.046 121.908C141.015 121.711 141.015 121.711 140.8 121.6C140.682 121.371 140.652 121.19 140.667 120.933C140.623 120.933 140.579 120.933 140.533 120.933C140.533 120.845 140.533 120.757 140.533 120.667C140.467 120.645 140.401 120.623 140.333 120.6C140.311 120.49 140.289 120.38 140.267 120.267C140.223 120.267 140.179 120.267 140.133 120.267C140.045 120.025 140 119.86 140 119.6C139.934 119.6 139.868 119.6 139.8 119.6C139.778 119.468 139.756 119.336 139.733 119.2C139.689 119.2 139.645 119.2 139.6 119.2C139.6 119.112 139.6 119.024 139.6 118.933C139.556 118.933 139.512 118.933 139.467 118.933C139.401 118.775 139.339 118.626 139.304 118.458C139.275 118.325 139.275 118.325 139.162 118.233C139.067 118.133 139.067 118.133 139.067 117.867C139.023 117.867 138.979 117.867 138.933 117.867C138.933 117.779 138.933 117.691 138.933 117.6C138.889 117.6 138.845 117.6 138.8 117.6C138.778 117.468 138.756 117.336 138.733 117.2C138.667 117.178 138.601 117.156 138.533 117.133C138.496 117.013 138.496 117.013 138.467 116.867C138.391 116.696 138.333 116.6 138.2 116.467C138.175 116.356 138.153 116.245 138.133 116.133C138.078 115.989 138.078 115.989 137.933 115.933C137.977 115.933 138.021 115.933 138.067 115.933C138.067 115.889 138.067 115.845 138.067 115.8C137.979 115.8 137.891 115.8 137.8 115.8C137.8 115.668 137.8 115.536 137.8 115.4C137.756 115.4 137.712 115.4 137.667 115.4C137.667 115.312 137.667 115.224 137.667 115.133C137.623 115.133 137.579 115.133 137.533 115.133C137.533 115.001 137.533 114.869 137.533 114.733C137.445 114.733 137.357 114.733 137.267 114.733C137.267 114.601 137.267 114.469 137.267 114.333C137.223 114.333 137.179 114.333 137.133 114.333C137.133 114.245 137.133 114.157 137.133 114.067C137.089 114.067 137.045 114.067 137 114.067C137 113.935 137 113.803 137 113.667C136.958 113.662 136.917 113.657 136.874 113.652C136.733 113.6 136.733 113.6 136.666 113.465C136.651 113.41 136.636 113.356 136.621 113.3C136.575 113.099 136.575 113.099 136.467 112.933C136.464 112.822 136.464 112.711 136.467 112.6C136.379 112.578 136.291 112.556 136.2 112.533C136.222 112.445 136.244 112.357 136.267 112.267C136.201 112.267 136.135 112.267 136.067 112.267C136.067 112.135 136.067 112.003 136.067 111.867C136.023 111.867 135.979 111.867 135.933 111.867C135.933 111.779 135.933 111.691 135.933 111.6C135.867 111.578 135.801 111.556 135.733 111.533C135.733 111.445 135.733 111.357 135.733 111.267C135.667 111.245 135.601 111.223 135.533 111.2C135.533 111.068 135.533 110.936 135.533 110.8C135.489 110.8 135.445 110.8 135.4 110.8C135.4 110.712 135.4 110.624 135.4 110.533C135.356 110.533 135.312 110.533 135.267 110.533C135.245 110.401 135.223 110.269 135.2 110.133C135.134 110.133 135.068 110.133 135 110.133C134.912 109.892 134.867 109.727 134.867 109.467C134.823 109.467 134.779 109.467 134.733 109.467C134.733 109.379 134.733 109.291 134.733 109.2C134.689 109.2 134.645 109.2 134.6 109.2C134.369 109.015 134.35 108.835 134.304 108.554C134.286 108.478 134.286 108.478 134.267 108.4C134.223 108.378 134.179 108.356 134.133 108.333C134.133 108.245 134.133 108.157 134.133 108.067C134.089 108.067 134.045 108.067 134 108.067C133.956 107.979 133.912 107.891 133.867 107.8C133.889 107.778 133.911 107.756 133.933 107.733C133.867 107.711 133.801 107.689 133.733 107.667C133.711 107.557 133.689 107.447 133.667 107.333C133.645 107.333 133.623 107.333 133.6 107.333C133.6 107.223 133.6 107.113 133.6 107C133.556 107 133.512 107 133.467 107C133.467 106.912 133.467 106.824 133.467 106.733C133.423 106.733 133.379 106.733 133.333 106.733C133.333 106.689 133.333 106.645 133.333 106.6C133.289 106.6 133.245 106.6 133.2 106.6C133.2 106.512 133.2 106.424 133.2 106.333C133.156 106.333 133.112 106.333 133.067 106.333C133.067 106.201 133.067 106.069 133.067 105.933C133.023 105.933 132.979 105.933 132.933 105.933C132.933 105.845 132.933 105.757 132.933 105.667C132.892 105.652 132.851 105.636 132.808 105.621C132.62 105.505 132.592 105.41 132.533 105.2C132.525 105.013 132.525 105.013 132.533 104.867C132.489 104.867 132.445 104.867 132.4 104.867C132.4 104.779 132.4 104.691 132.4 104.6C132.334 104.6 132.268 104.6 132.2 104.6C132 104.167 132 104.167 132 103.867C131.956 103.867 131.912 103.867 131.867 103.867C131.858 103.825 131.85 103.784 131.842 103.742C131.808 103.587 131.808 103.587 131.667 103.467C131.667 103.379 131.667 103.291 131.667 103.2C131.601 103.178 131.535 103.156 131.467 103.133C131.353 102.912 131.333 102.788 131.333 102.533C131.289 102.533 131.245 102.533 131.2 102.533C131.167 102.335 131.167 102.335 131.133 102.133C131.067 102.133 131.001 102.133 130.933 102.133C130.845 101.892 130.8 101.727 130.8 101.467C130.756 101.467 130.712 101.467 130.667 101.467C130.667 101.379 130.667 101.291 130.667 101.2C130.625 101.185 130.584 101.17 130.542 101.154C130.355 101.039 130.334 100.939 130.267 100.733C130.243 100.677 130.22 100.621 130.196 100.563C130.133 100.4 130.133 100.4 130.1 100.25C130.089 100.212 130.078 100.173 130.067 100.133C130.023 100.111 129.979 100.089 129.933 100.067C129.933 99.9347 129.933 99.8027 129.933 99.6667C129.845 99.6667 129.757 99.6667 129.667 99.6667C129.667 99.5567 129.667 99.4467 129.667 99.3334C129.623 99.3334 129.579 99.3334 129.533 99.3334C129.533 99.2234 129.533 99.1134 129.533 99.0001C129.489 99.0001 129.445 99.0001 129.4 99.0001C129.334 98.8021 129.334 98.8021 129.267 98.6001C129.223 98.6001 129.179 98.6001 129.133 98.6001C129.133 98.5341 129.133 98.4681 129.133 98.4001C129.089 98.3781 129.045 98.3561 129 98.3334C129 98.2014 129 98.0694 129 97.9334C128.956 97.9334 128.912 97.9334 128.867 97.9334C128.867 97.8454 128.867 97.7574 128.867 97.6667C128.823 97.6667 128.779 97.6667 128.733 97.6667C128.733 97.6227 128.733 97.5787 128.733 97.5334C128.689 97.5334 128.645 97.5334 128.6 97.5334C128.593 97.499 128.586 97.4647 128.579 97.4292C128.533 97.2515 128.533 97.2515 128.429 97.0334C128.333 96.8001 128.333 96.8001 128.333 96.5334C128.267 96.5114 128.201 96.4894 128.133 96.4667C128.108 96.3785 128.086 96.2896 128.067 96.2001C128.023 96.1781 127.979 96.1561 127.933 96.1334C127.818 95.9032 127.785 95.7229 127.8 95.4667C127.756 95.4667 127.712 95.4667 127.667 95.4667C127.647 95.4131 127.628 95.3595 127.608 95.3042C127.551 95.1246 127.551 95.1246 127.4 95.0667C127.4 94.9787 127.4 94.8907 127.4 94.8001C127.356 94.8001 127.312 94.8001 127.267 94.8001C127.267 94.6681 127.267 94.5361 127.267 94.4001C127.201 94.4221 127.135 94.4441 127.067 94.4667C127.1 94.3017 127.1 94.3017 127.133 94.1334C127.067 94.1334 127.001 94.1334 126.933 94.1334C126.9 93.9354 126.9 93.9354 126.867 93.7334C126.823 93.7334 126.779 93.7334 126.733 93.7334C126.645 93.4921 126.6 93.327 126.6 93.0667C126.534 93.0447 126.468 93.0227 126.4 93.0001C126.353 92.8899 126.309 92.7788 126.267 92.6667C126.223 92.6447 126.179 92.6227 126.133 92.6001C126.133 92.4901 126.133 92.3801 126.133 92.2667C126.089 92.2667 126.045 92.2667 126 92.2667C125.968 92.182 125.936 92.0973 125.904 92.0126C125.886 91.9654 125.869 91.9182 125.85 91.8696C125.809 91.7583 125.771 91.646 125.733 91.5334C125.689 91.5334 125.645 91.5334 125.6 91.5334C125.6 91.4454 125.6 91.3574 125.6 91.2667C125.556 91.2667 125.512 91.2667 125.467 91.2667C125.327 91.0399 125.321 90.8632 125.333 90.6001C125.245 90.5781 125.157 90.5561 125.067 90.5334C125.067 90.4234 125.067 90.3134 125.067 90.2001C125.023 90.2001 124.979 90.2001 124.933 90.2001C124.933 90.1121 124.933 90.0241 124.933 89.9334C124.889 89.9334 124.845 89.9334 124.8 89.9334C124.793 89.8825 124.786 89.8317 124.779 89.7792C124.75 89.6005 124.75 89.6005 124.639 89.5074C124.515 89.382 124.458 89.2653 124.387 89.1042C124.364 89.0535 124.342 89.0027 124.318 88.9503C124.267 88.8001 124.267 88.8001 124.267 88.5334C124.201 88.5334 124.135 88.5334 124.067 88.5334C124.058 88.4798 124.05 88.4262 124.042 88.3709C124.028 88.3145 124.014 88.2582 124 88.2001C123.956 88.1781 123.912 88.1561 123.867 88.1334C123.674 87.6924 123.638 87.2534 123.642 86.7788C123.642 86.6793 123.642 86.6793 123.641 86.5779C123.641 86.3565 123.642 86.135 123.643 85.9136C123.642 85.753 123.642 85.5923 123.642 85.4317C123.642 85.0829 123.642 84.734 123.643 84.3851C123.644 83.8664 123.644 83.3476 123.644 82.8288C123.644 81.9561 123.644 81.0834 123.645 80.2107C123.647 79.3467 123.647 78.4828 123.648 77.6188C123.648 77.5651 123.648 77.5113 123.648 77.456C123.648 77.183 123.648 76.9101 123.648 76.6371C123.648 74.7045 123.65 72.7719 123.651 70.8393C123.653 68.962 123.655 67.0846 123.656 65.2073C123.656 65.0892 123.656 64.9711 123.656 64.853C123.656 63.8935 123.657 62.9341 123.657 61.9746C123.659 57.5386 123.663 53.1027 123.667 48.6667Z" fill="#DB504B"/>
<path d="M42.1583 110.042C42.2134 110.042 42.2684 110.042 42.3251 110.042C46.0285 110.055 49.266 111.557 51.9333 114.067C51.9772 114.108 52.0211 114.149 52.0664 114.191C52.4097 114.522 52.7063 114.891 53 115.267C53.0285 115.303 53.0571 115.339 53.0865 115.377C55.3493 118.29 56.2401 121.954 55.8265 125.596C55.5332 127.853 54.6834 130.033 53.3333 131.867C53.3032 131.908 53.2731 131.949 53.242 131.992C52.1149 133.519 50.71 134.798 49.0555 135.731C48.9751 135.776 48.8949 135.822 48.8151 135.869C46.8234 137.023 44.5039 137.548 42.2166 137.55C42.1439 137.55 42.1439 137.55 42.0696 137.55C41.2331 137.549 40.4225 137.496 39.6 137.333C39.542 137.322 39.484 137.31 39.4243 137.299C36.9795 136.798 34.7839 135.694 32.9487 134.003C32.8116 133.877 32.6713 133.757 32.5291 133.637C30.1817 131.575 28.7602 128.265 28.4666 125.2C28.456 124.998 28.4527 124.796 28.4508 124.594C28.4501 124.537 28.4495 124.48 28.4488 124.421C28.4374 123.17 28.4406 121.958 28.7333 120.733C28.7476 120.673 28.7619 120.613 28.7766 120.551C29.6487 117.001 31.8802 113.957 34.975 112.029C37.1694 110.701 39.5994 110.035 42.1583 110.042Z" fill="#DB504B"/>
<path d="M150.533 48.6667C159.443 48.6667 168.353 48.6667 177.533 48.6667C177.533 56.1027 177.533 63.5387 177.533 71.2001C177.298 71.0823 177.138 70.9707 176.938 70.8042C176.873 70.7507 176.809 70.6972 176.742 70.642C176.49 70.431 176.24 70.2186 175.989 70.006C175.762 69.8127 175.532 69.622 175.3 69.4334C174.993 69.1836 174.691 68.9288 174.389 68.6725C174.161 68.4792 173.932 68.2886 173.7 68.1001C173.393 67.8502 173.091 67.5954 172.789 67.3391C172.561 67.1459 172.332 66.9553 172.1 66.7667C171.793 66.5168 171.491 66.262 171.189 66.0057C170.963 65.8137 170.735 65.6246 170.504 65.4376C170.18 65.1738 169.863 64.9025 169.546 64.6297C169.252 64.3766 168.953 64.1299 168.652 63.8852C168.444 63.7146 168.238 63.541 168.033 63.3667C167.769 63.1419 167.503 62.9193 167.233 62.7001C166.926 62.4502 166.624 62.1954 166.323 61.9391C166.095 61.7459 165.865 61.5553 165.633 61.3667C165.326 61.1169 165.024 60.8621 164.723 60.6058C164.495 60.4126 164.265 60.222 164.033 60.0334C163.726 59.7835 163.424 59.5287 163.122 59.2723C162.896 59.0804 162.668 58.8913 162.438 58.7042C162.113 58.4405 161.796 58.1691 161.48 57.8963C161.185 57.6433 160.887 57.3966 160.585 57.1519C160.377 56.9813 160.172 56.8077 159.967 56.6334C159.702 56.4086 159.436 56.186 159.167 55.9667C158.86 55.7169 158.557 55.4621 158.256 55.2058C158.028 55.0126 157.798 54.822 157.567 54.6334C157.26 54.3836 156.957 54.1288 156.656 53.8725C156.428 53.6793 156.198 53.4886 155.967 53.3001C155.66 53.0502 155.357 52.7954 155.056 52.539C154.829 52.3471 154.601 52.1579 154.371 51.9709C154.047 51.7071 153.73 51.4358 153.413 51.163C153.119 50.91 152.82 50.6632 152.519 50.4186C152.311 50.2479 152.105 50.0743 151.9 49.9001C151.237 49.3232 151.237 49.3232 150.533 48.8001C150.533 48.7561 150.533 48.7121 150.533 48.6667Z" fill="#DB504B"/>
<path d="M37.5478 170L36.8052 167.804H32.2548L31.5122 170H29.237L33.2186 158.94H35.8414L39.823 170H37.5478ZM32.9026 165.892H36.1574L34.53 161.105L32.9026 165.892ZM54.4121 158.94H56.7031V170H54.5543V162.669L51.2521 168.025H50.5411L47.2231 162.669V170H45.0901V158.94H47.3653L50.8887 164.628L54.4121 158.94ZM70.2816 170L69.539 167.804H64.9886L64.246 170H61.9708L65.9524 158.94H68.5752L72.5568 170H70.2816ZM65.6364 165.892H68.8912L67.2638 161.105L65.6364 165.892ZM80.1149 168.009H85.4395V170H77.3499V168.294L82.6745 160.931H77.6343V158.94H85.2973V160.646L80.1149 168.009ZM91.02 158.94H93.153V170H91.02V158.94ZM106.043 158.94H108.192V170H106.248L101.35 162.685V170H99.2014V158.94H101.145L106.043 166.255V158.94Z" fill="#DB504B"/>
<path d="M129.337 158.94V160.931H126.683V170H124.534V160.931H121.879V158.94H129.337ZM143.638 170H141.189L138.914 166.018C138.867 166.018 138.804 166.018 138.74 166.018H137.05V170H134.917V158.94H138.74C141.221 158.94 142.864 160.457 142.864 162.558C142.864 163.949 142.122 165.023 140.921 165.576L143.638 170ZM137.05 160.931V164.17H138.74C139.846 164.17 140.668 163.664 140.668 162.558C140.668 161.563 139.941 160.931 138.74 160.931H137.05ZM148.9 158.94H151.033V170H148.9V158.94ZM160.778 158.94C163.417 158.94 165.029 160.473 165.029 162.764C165.029 165.055 163.417 166.571 160.778 166.571H159.23V170H157.081V158.94H160.778ZM160.778 164.581C162.09 164.581 162.848 163.917 162.848 162.764C162.848 161.594 162.09 160.931 160.778 160.931H159.23V164.581H160.778ZM174.824 163.648C177.447 164.249 178.395 165.007 178.395 166.793C178.395 168.515 177.162 170.205 174.271 170.205C172.201 170.205 170.352 169.352 169.815 167.519L171.885 166.872C172.043 167.504 172.707 168.325 174.255 168.325C175.361 168.325 176.246 167.899 176.246 166.951C176.246 165.845 174.998 165.766 173.244 165.339C171.016 164.786 170.273 163.664 170.273 162.132C170.273 160.046 171.869 158.75 174.176 158.75C176.025 158.75 177.478 159.667 177.952 161.357L175.867 161.863C175.74 161.278 175.171 160.631 174.065 160.631C173.149 160.631 172.391 161.105 172.391 161.989C172.391 163.238 173.797 163.411 174.824 163.648Z" fill="black"/>
</g>
<defs>
<filter id="filter0_d_328_13956" x="0" y="0" width="208" height="208" filterUnits="userSpaceOnUse" color-interpolation-filters="sRGB">
<feFlood flood-opacity="0" result="BackgroundImageFix"/>
<feColorMatrix in="SourceAlpha" type="matrix" values="0 0 0 0 0 0 0 0 0 0 0 0 0 0 0 0 0 0 127 0" result="hardAlpha"/>
<feOffset dy="4"/>
<feGaussianBlur stdDeviation="2"/>
<feComposite in2="hardAlpha" operator="out"/>
<feColorMatrix type="matrix" values="0 0 0 0 0 0 0 0 0 0 0 0 0 0 0 0 0 0 0.25 0"/>
<feBlend mode="normal" in2="BackgroundImageFix" result="effect1_dropShadow_328_13956"/>
<feBlend mode="normal" in="SourceGraphic" in2="effect1_dropShadow_328_13956" result="shape"/>
</filter>
</defs>
</svg>
